<svg width="455" height="210" xmlns="http://www.w3.org/2000/svg" xmlns:xlink="http://www.w3.org/1999/xlink" xml:space="preserve" overflow="hidden"><g transform="translate(-1741 -1199)"><g><g><g><path d="M0 17.0139C0 26.4018 6.77266 34.034 15.1059 34.034L56.1868 34.034C58.2229 34.034 59.942 36.1005 59.942 38.5511 59.942 41.0017 58.2229 43.0683 56.1868 43.0683L0 43.0683 0 55.5712 56.1868 55.5712C64.514 55.5712 71.2866 47.939 71.2866 38.5511 71.2866 29.1633 64.514 21.5311 56.1868 21.5311L15.1059 21.5311C13.0698 21.5311 11.3508 19.4645 11.3508 17.0139 11.3508 14.5633 13.0698 12.4968 15.1059 12.4968L71.2927 12.4968 71.2927 0 15.1059 0C6.77266 0 0 7.63219 0 17.0139Z" transform="matrix(1 0 0 1.04371 1814.27 1199)"/><path d="M77.8094 55.5712 149.102 55.5712 149.102 43.0683 90.3123 43.0683 90.3123 34.034 149.102 34.034 149.102 21.5372 77.8094 21.5372 77.8094 55.5712Z" transform="matrix(1 0 0 1.04371 1814.27 1199)"/><path d="M77.8094 0 149.102 0 149.102 12.4968 77.8094 12.4968Z" transform="matrix(1 0 0 1.04371 1814.27 1199)"/><path d="M156.143 27.7856 156.143 55.5712 167.488 55.5712 167.488 43.3243 216.091 43.3243 216.091 55.5712 227.442 55.5712 227.442 0 180.679 0C167.152 0 156.149 12.4663 156.149 27.7856ZM167.488 27.7856C167.488 19.3548 173.401 12.4968 180.673 12.4968L216.091 12.4968 216.091 30.8275 167.488 30.8275 167.488 27.7856Z" transform="matrix(1 0 0 1.04371 1814.27 1199)"/><path d="M283.921 0 237.165 0 237.165 12.4968 283.921 12.4968C291.194 12.4968 297.107 19.3548 297.107 27.7856 297.107 36.2163 291.194 43.0683 283.921 43.0683L248.504 43.0683 248.504 17.2151 237.159 17.2151 237.159 55.5712 283.915 55.5712C297.442 55.5712 308.452 43.1048 308.452 27.7856 308.452 12.4663 297.454 0 283.921 0Z" transform="matrix(1 0 0 1.04371 1814.27 1199)"/></g></g></g><text font-family="Aptos Display,Aptos Display_MSFontService,sans-serif" font-weight="400" font-size="41" transform="matrix(1 0 0 1 1776.19 1322)">Stochastic Engineering </text><text font-family="Aptos Display,Aptos Display_MSFontService,sans-serif" font-weight="400" font-size="41" transform="matrix(1 0 0 1 1821.18 1372)">Analysis </text><text font-family="Aptos Display,Aptos Display_MSFontService,sans-serif" font-weight="400" font-size="41" transform="matrix(1 0 0 1 1968.42 1372)">&amp; Design</text><path d="M1771.5 1268.5 2167.5 1268.5" stroke="#000000" stroke-width="6.875" stroke-miterlimit="8" fill="none" fill-rule="evenodd"/></g></svg>