<svg width="197" height="67" xmlns="http://www.w3.org/2000/svg" xmlns:xlink="http://www.w3.org/1999/xlink" xml:space="preserve" overflow="hidden"><g transform="translate(-1710 -1199)"><g><g><g><path d="M0 5.61626C0 8.71516 2.23564 11.2345 4.98642 11.2345L18.5471 11.2345C19.2192 11.2345 19.7867 11.9167 19.7867 12.7256 19.7867 13.5346 19.2192 14.2167 18.5471 14.2167L0 14.2167 0 18.3439 18.5471 18.3439C21.2959 18.3439 23.5315 15.8245 23.5315 12.7256 23.5315 9.62672 21.2959 7.10735 18.5471 7.10735L4.98642 7.10735C4.31432 7.10735 3.74685 6.42519 3.74685 5.61626 3.74685 4.80732 4.31432 4.12516 4.98642 4.12516L23.5335 4.12516 23.5335 0 4.98642 0C2.23564 0 0 2.51937 0 5.61626Z" transform="matrix(1 0 0 1.03576 1758.09 1199)"/><path d="M25.6847 18.3439 49.2182 18.3439 49.2182 14.2167 29.8118 14.2167 29.8118 11.2345 49.2182 11.2345 49.2182 7.10936 25.6847 7.10936 25.6847 18.3439Z" transform="matrix(1 0 0 1.03576 1758.09 1199)"/><path d="M25.6847 0 49.2182 0 49.2182 4.12516 25.6847 4.12516Z" transform="matrix(1 0 0 1.03576 1758.09 1199)"/><path d="M51.5424 9.17195 51.5424 18.3439 55.2872 18.3439 55.2872 14.3012 71.3311 14.3012 71.3311 18.3439 75.0779 18.3439 75.0779 0 59.6418 0C55.1766 0 51.5444 4.1151 51.5444 9.17195ZM55.2872 9.17195C55.2872 6.38897 57.2391 4.12516 59.6398 4.12516L71.3311 4.12516 71.3311 10.1761 55.2872 10.1761 55.2872 9.17195Z" transform="matrix(1 0 0 1.03576 1758.09 1199)"/><path d="M93.7217 0 78.2875 0 78.2875 4.12516 93.7217 4.12516C96.1223 4.12516 98.0742 6.38897 98.0742 9.17195 98.0742 11.9549 96.1223 14.2167 93.7217 14.2167L82.0303 14.2167 82.0303 5.68266 78.2855 5.68266 78.2855 18.3439 93.7197 18.3439C98.1849 18.3439 101.819 14.2288 101.819 9.17195 101.819 4.1151 98.1889 0 93.7217 0Z" transform="matrix(1 0 0 1.03576 1758.09 1199)"/></g></g></g><text font-family="Aptos Display,Aptos Display_MSFontService,sans-serif" font-weight="400" font-size="14" transform="matrix(1 0 0 1 1744.34 1239)">Stochastic Engineering </text><text font-family="Aptos Display,Aptos Display_MSFontService,sans-serif" font-weight="400" font-size="14" transform="matrix(1 0 0 1 1759.24 1253)">Analysis </text><text font-family="Aptos Display,Aptos Display_MSFontService,sans-serif" font-weight="400" font-size="14" transform="matrix(1 0 0 1 1808.51 1253)">&amp; Design</text><path d="M1744 1223 1874.55 1223" stroke="#000000" stroke-width="2.29167" stroke-miterlimit="8" fill="none" fill-rule="evenodd"/></g></svg>