<svg width="585" height="337" xmlns="http://www.w3.org/2000/svg" xmlns:xlink="http://www.w3.org/1999/xlink" xml:space="preserve" overflow="hidden"><defs><clipPath id="clip0"><rect x="3163" y="754" width="203" height="38"/></clipPath><clipPath id="clip1"><rect x="3163" y="754" width="203" height="38"/></clipPath><clipPath id="clip2"><rect x="3163" y="754" width="203" height="38"/></clipPath></defs><g transform="translate(-2973 -650)"><rect x="2976.5" y="653.5" width="578" height="330" stroke="#FFFFFF" stroke-width="6.875" stroke-miterlimit="8" fill="#FFFFFF"/><g clip-path="url(#clip0)"><g clip-path="url(#clip1)"><g clip-path="url(#clip2)"><path d="M0 11.1224C0 17.2594 4.42744 22.2488 9.87505 22.2488L36.7306 22.2488C38.0616 22.2488 39.1854 23.5997 39.1854 25.2017 39.1854 26.8037 38.0616 28.1547 36.7306 28.1547L0 28.1547 0 36.3281 36.7306 36.3281C42.1742 36.3281 46.6017 31.3388 46.6017 25.2017 46.6017 19.0647 42.1742 14.0753 36.7306 14.0753L9.87505 14.0753C8.54403 14.0753 7.42024 12.7244 7.42024 11.1224 7.42024 9.52038 8.54403 8.16944 9.87505 8.16944L46.6056 8.16944 46.6056 0 9.87505 0C4.42744 0 0 4.98933 0 11.1224Z" transform="matrix(1 0 0 1.0185 3164.18 755)"/><path d="M50.8657 36.3281 97.4713 36.3281 97.4713 28.1547 59.0391 28.1547 59.0391 22.2488 97.4713 22.2488 97.4713 14.0793 50.8657 14.0793 50.8657 36.3281Z" transform="matrix(1 0 0 1.0185 3164.18 755)"/><path d="M50.8657 0 97.4713 0 97.4713 8.16944 50.8657 8.16944Z" transform="matrix(1 0 0 1.0185 3164.18 755)"/><path d="M102.074 18.164 102.074 36.3281 109.49 36.3281 109.49 28.322 141.263 28.322 141.263 36.3281 148.684 36.3281 148.684 0 118.114 0C109.271 0 102.078 8.14951 102.078 18.164ZM109.49 18.164C109.49 12.6527 113.356 8.16944 118.11 8.16944L141.263 8.16944 141.263 20.1526 109.49 20.1526 109.49 18.164Z" transform="matrix(1 0 0 1.0185 3164.18 755)"/><path d="M185.606 0 155.04 0 155.04 8.16944 185.606 8.16944C190.36 8.16944 194.225 12.6527 194.225 18.164 194.225 23.6754 190.36 28.1547 185.606 28.1547L162.452 28.1547 162.452 11.2539 155.036 11.2539 155.036 36.3281 185.602 36.3281C194.445 36.3281 201.642 28.1786 201.642 18.164 201.642 8.14951 194.452 0 185.606 0Z" transform="matrix(1 0 0 1.0185 3164.18 755)"/></g></g></g><text font-family="Aptos Display,Aptos Display_MSFontService,sans-serif" font-weight="400" font-size="28" transform="matrix(1 0 0 1 3136.48 833)">Stochastic Engineering </text><text font-family="Aptos Display,Aptos Display_MSFontService,sans-serif" font-weight="400" font-size="28" transform="matrix(1 0 0 1 3167.15 856)">Analysis </text><text font-family="Aptos Display,Aptos Display_MSFontService,sans-serif" font-weight="400" font-size="28" transform="matrix(1 0 0 1 3265.12 856)">&amp; Design</text><path d="M3136.5 801.5 3394.76 801.5" stroke="#000000" stroke-width="6.875" stroke-miterlimit="8" fill="none" fill-rule="evenodd"/></g></svg>