<svg width="327" height="127" xmlns="http://www.w3.org/2000/svg" xmlns:xlink="http://www.w3.org/1999/xlink" xml:space="preserve" overflow="hidden"><g transform="translate(-1726 -1199)"><g><g><g><path d="M0 11.0673C0 17.174 4.40552 22.1386 9.82617 22.1386L36.5487 22.1386C37.8732 22.1386 38.9914 23.4829 38.9914 25.077 38.9914 26.671 37.8732 28.0153 36.5487 28.0153L0 28.0153 0 36.1482 36.5487 36.1482C41.9654 36.1482 46.3709 31.1836 46.3709 25.077 46.3709 18.9703 41.9654 14.0057 36.5487 14.0057L9.82617 14.0057C8.50174 14.0057 7.3835 12.6614 7.3835 11.0673 7.3835 9.47325 8.50174 8.12899 9.82617 8.12899L46.3749 8.12899 46.3749 0 9.82617 0C4.40552 0 0 4.96463 0 11.0673Z" transform="matrix(1 0 0 1.05123 1789.18 1199)"/><path d="M50.6139 36.1482 96.9888 36.1482 96.9888 28.0153 58.7468 28.0153 58.7468 22.1386 96.9888 22.1386 96.9888 14.0096 50.6139 14.0096 50.6139 36.1482Z" transform="matrix(1 0 0 1.05123 1789.18 1199)"/><path d="M50.6139 0 96.9888 0 96.9888 8.12899 50.6139 8.12899Z" transform="matrix(1 0 0 1.05123 1789.18 1199)"/><path d="M101.569 18.0741 101.569 36.1482 108.948 36.1482 108.948 28.1818 140.564 28.1818 140.564 36.1482 147.948 36.1482 147.948 0 117.529 0C108.73 0 101.573 8.10917 101.573 18.0741ZM108.948 18.0741C108.948 12.59 112.795 8.12899 117.525 8.12899L140.564 8.12899 140.564 20.0528 108.948 20.0528 108.948 18.0741Z" transform="matrix(1 0 0 1.05123 1789.18 1199)"/><path d="M184.687 0 154.272 0 154.272 8.12899 184.687 8.12899C189.417 8.12899 193.264 12.59 193.264 18.0741 193.264 23.5582 189.417 28.0153 184.687 28.0153L161.648 28.0153 161.648 11.1982 154.268 11.1982 154.268 36.1482 184.683 36.1482C193.482 36.1482 200.643 28.0391 200.643 18.0741 200.643 8.10917 193.49 0 184.687 0Z" transform="matrix(1 0 0 1.05123 1789.18 1199)"/></g></g></g><text font-family="Aptos Display,Aptos Display_MSFontService,sans-serif" font-weight="400" font-size="28" transform="matrix(1 0 0 1 1760.87 1278)">Stochastic Engineering </text><text font-family="Aptos Display,Aptos Display_MSFontService,sans-serif" font-weight="400" font-size="28" transform="matrix(1 0 0 1 1791.54 1301)">Analysis </text><text font-family="Aptos Display,Aptos Display_MSFontService,sans-serif" font-weight="400" font-size="28" transform="matrix(1 0 0 1 1889.5 1301)">&amp; Design</text><path d="M1760.5 1247.5 2018.76 1247.5" stroke="#000000" stroke-width="6.875" stroke-miterlimit="8" fill="none" fill-rule="evenodd"/></g></svg>