<svg width="3568" height="1461" xmlns="http://www.w3.org/2000/svg" xmlns:xlink="http://www.w3.org/1999/xlink" xml:space="preserve" overflow="hidden"><defs><clipPath id="clip0"><rect x="495" y="284" width="3568" height="1461"/></clipPath></defs><g clip-path="url(#clip0)" transform="translate(-495 -284)"><rect x="495" y="284" width="3568" height="1461" fill="#FFFFFF"/><text fill="#FF0000" font-family="Arial,Arial_MSFontService,sans-serif" font-weight="400" font-size="73" transform="matrix(1 0 0 1 614.996 909)">Sensor Noise</text><text fill="#FF0000" font-family="Arial,Arial_MSFontService,sans-serif" font-weight="400" font-size="73" transform="matrix(1 0 0 1 610.369 1082)">Material </text><text fill="#FF0000" font-family="Arial,Arial_MSFontService,sans-serif" font-weight="400" font-size="73" transform="matrix(1 0 0 1 891.671 1082)">&amp;</text><text fill="#FF0000" font-family="Arial,Arial_MSFontService,sans-serif" font-weight="400" font-size="73" transform="matrix(1 0 0 1 610.369 1170)">Manufacturin</text><text fill="#FF0000" font-family="Arial,Arial_MSFontService,sans-serif" font-weight="400" font-size="73" transform="matrix(1 0 0 1 1034.33 1170)">g </text><text fill="#FF0000" font-family="Arial,Arial_MSFontService,sans-serif" font-weight="400" font-size="73" transform="matrix(1 0 0 1 610.369 1258)">variability </text><text fill="#FF0000" font-family="Arial,Arial_MSFontService,sans-serif" font-weight="400" font-size="73" transform="matrix(1 0 0 1 610.369 1433)">Environmental </text><text fill="#FF0000" font-family="Arial,Arial_MSFontService,sans-serif" font-weight="400" font-size="73" transform="matrix(1 0 0 1 610.369 1521)">Uncertainty</text><text fill="#548235" font-family="Arial,Arial_MSFontService,sans-serif" font-weight="400" font-size="73" transform="matrix(1 0 0 1 3551.38 1010)">Numerical </text><text fill="#548235" font-family="Arial,Arial_MSFontService,sans-serif" font-weight="400" font-size="73" transform="matrix(1 0 0 1 3551.38 1098)">Uncertainty</text><path d="M2030 962.001C2030 943.775 2044.77 929 2063 929L2567 929C2585.23 929 2600 943.775 2600 962.001L2600 1094C2600 1112.23 2585.23 1127 2567 1127L2063 1127C2044.77 1127 2030 1112.23 2030 1094Z" fill="#E2F0D9" fill-rule="evenodd"/><text font-family="Arial,Arial_MSFontService,sans-serif" font-weight="400" font-size="83" transform="matrix(1 0 0 1 2202.45 1009)">Model </text><text font-family="Arial,Arial_MSFontService,sans-serif" font-weight="400" font-size="83" transform="matrix(1 0 0 1 2188.7 1108)">update</text><path d="M1285.5 858.386C1285.5 834.148 1305.15 814.5 1329.39 814.5L1888.61 814.5C1912.85 814.5 1932.5 834.148 1932.5 858.386L1932.5 1497.61C1932.5 1521.85 1912.85 1541.5 1888.61 1541.5L1329.39 1541.5C1305.15 1541.5 1285.5 1521.85 1285.5 1497.61Z" stroke="#000000" stroke-width="4.58333" stroke-miterlimit="8" stroke-dasharray="18.3333 13.75" fill="#EDEDED" fill-rule="evenodd"/><rect x="1239" y="712" width="739" height="165" fill="#FD5C58"/><text fill="#FFFFFF" font-family="Arial,Arial_MSFontService,sans-serif" font-weight="700" font-size="83" transform="matrix(1 0 0 1 1282.92 825)">Physical System</text><rect x="1311" y="1103" width="594" height="198" fill="#FFC094"/><text font-family="Arial,Arial_MSFontService,sans-serif" font-weight="400" font-size="83" transform="matrix(1 0 0 1 1347.08 1183)">Manufacturing </text><text font-family="Arial,Arial_MSFontService,sans-serif" font-weight="400" font-size="83" transform="matrix(1 0 0 1 1463.96 1282)">process</text><path d="M2724.5 858.318C2724.5 834.118 2744.12 814.5 2768.32 814.5L3326.68 814.5C3350.88 814.5 3370.5 834.118 3370.5 858.318L3370.5 1497.68C3370.5 1521.88 3350.88 1541.5 3326.68 1541.5L2768.32 1541.5C2744.12 1541.5 2724.5 1521.88 2724.5 1497.68Z" stroke="#000000" stroke-width="4.58333" stroke-miterlimit="8" stroke-dasharray="18.3333 13.75" fill="#EDEDED" fill-rule="evenodd"/><rect x="2700" y="712" width="693" height="165" fill="#FD5C58"/><text fill="#FFFFFF" font-family="Arial,Arial_MSFontService,sans-serif" font-weight="700" font-size="83" transform="matrix(1 0 0 1 2762.7 825)">Digital System</text><path d="M1605.06 1103.42 1605.06 1025.06 2006.76 1025.06 2006.76 1031.94 1608.5 1031.94 1611.94 1028.5 1611.94 1103.42ZM2002.17 1014.75 2029.67 1028.5 2002.17 1042.25Z"/><path d="M2044 1329C2044 1310.77 2058.77 1296 2077 1296L2570 1296C2588.22 1296 2603 1310.77 2603 1329L2603 1461C2603 1479.22 2588.22 1494 2570 1494L2077 1494C2058.77 1494 2044 1479.22 2044 1461Z" fill="#DAE3F3" fill-rule="evenodd"/><text font-family="Arial,Arial_MSFontService,sans-serif" font-weight="400" font-size="83" transform="matrix(1 0 0 1 2174.45 1376)">Process </text><text font-family="Arial,Arial_MSFontService,sans-serif" font-weight="400" font-size="83" transform="matrix(1 0 0 1 2199.66 1475)">control</text><rect x="2750" y="929" width="594" height="198" fill="#FFC094"/><text font-family="Arial,Arial_MSFontService,sans-serif" font-weight="400" font-size="83" transform="matrix(1 0 0 1 2829.16 1009)">Multi</text><text font-family="Arial,Arial_MSFontService,sans-serif" font-weight="400" font-size="83" transform="matrix(1 0 0 1 3003.33 1009)">-</text><text font-family="Arial,Arial_MSFontService,sans-serif" font-weight="400" font-size="83" transform="matrix(1 0 0 1 3030.83 1009)">fidelity </text><text font-family="Arial,Arial_MSFontService,sans-serif" font-weight="400" font-size="83" transform="matrix(1 0 0 1 2913.95 1108)">models</text><rect x="2750" y="1312" width="594" height="165" fill="#FFC094"/><text font-family="Arial,Arial_MSFontService,sans-serif" font-weight="400" font-size="83" transform="matrix(1 0 0 1 2817.7 1425)">Optimization</text><path d="M3050.94 1127.5 3050.94 1290.4 3044.06 1290.4 3044.06 1127.5ZM3061.25 1285.82 3047.5 1313.32 3033.75 1285.82Z"/><path d="M2044.35 1399.33 1605.06 1399.33 1605.06 1324.42 1611.94 1324.42 1611.94 1395.9 1608.5 1392.46 2044.35 1392.46ZM1594.75 1329 1608.5 1301.5 1622.25 1329Z"/><text font-family="Arial,Arial_MSFontService,sans-serif" font-weight="700" font-size="73" transform="matrix(1 0 0 1 1995.41 879)">Physical</text><text font-family="Arial,Arial_MSFontService,sans-serif" font-weight="700" font-size="73" transform="matrix(1 0 0 1 2409.97 879)">Digital</text><path d="M2357 832.5 2381.5 857 2357 881.5 2357 869.25 2315.5 869.25 2315.5 844.75 2357 844.75Z" stroke="#41719C" stroke-width="4.58333" stroke-miterlimit="8" fill="#548235" fill-rule="evenodd"/><text font-family="Arial,Arial_MSFontService,sans-serif" font-weight="700" font-size="73" transform="matrix(1 0 0 1 1995.41 1581)">Physical</text><text font-family="Arial,Arial_MSFontService,sans-serif" font-weight="700" font-size="73" transform="matrix(1 0 0 1 2409.97 1584)">Digital</text><path d="M2339.5 1583.5 2315.5 1559.5 2339.5 1535.5 2339.5 1547.5 2381.5 1547.5 2381.5 1571.5 2339.5 1571.5Z" stroke="#203864" stroke-width="4.58333" stroke-miterlimit="8" fill="#2F5597" fill-rule="evenodd"/><path d="M2600.5 1025.06 2727.29 1025.06 2727.29 1031.94 2600.5 1031.94ZM2722.71 1014.75 2750.21 1028.5 2722.71 1042.25Z"/><path d="M8.43676e-06-3.4375 124.126-3.4372 124.126 3.4378-8.43676e-06 3.4375ZM119.543-13.7497 147.043 0.000360892 119.543 13.7503Z" transform="matrix(-1 0 0 1 2750.54 1395.5)"/><text fill="#548235" font-family="Arial,Arial_MSFontService,sans-serif" font-weight="400" font-size="73" transform="matrix(1 0 0 1 3567.5 1298)">Prediction </text><text fill="#548235" font-family="Arial,Arial_MSFontService,sans-serif" font-weight="400" font-size="73" transform="matrix(1 0 0 1 3567.5 1386)">Uncertainty</text><text fill="#548235" font-family="Arial,Arial_MSFontService,sans-serif" font-weight="400" font-size="73" transform="matrix(1 0 0 1 2048.45 498)">Model/ Parameter </text><text fill="#548235" font-family="Arial,Arial_MSFontService,sans-serif" font-weight="400" font-size="73" transform="matrix(1 0 0 1 2154.71 586)">Uncertainty</text><path d="M2285.5 678.056 2313 678.056 2313 635.5 2368 635.5 2368 678.056 2395.5 678.056 2340.5 734.5Z" stroke="#3B3838" stroke-width="4.58333" stroke-miterlimit="8" fill="#BFBFBF" fill-rule="evenodd"/><path d="M1183.06 1215.5 1183.06 1188 1140.5 1188 1140.5 1133 1183.06 1133 1183.06 1105.5 1239.5 1160.5Z" stroke="#3B3838" stroke-width="4.58333" stroke-miterlimit="8" fill="#BFBFBF" fill-rule="evenodd"/><path d="M3454.94 1105.5 3454.94 1133 3497.5 1133 3497.5 1188 3454.94 1188 3454.94 1215.5 3398.5 1160.5Z" stroke="#3B3838" stroke-width="4.58333" stroke-miterlimit="8" fill="#BFBFBF" fill-rule="evenodd"/></g></svg>