<svg width="2773" height="2080" xmlns="http://www.w3.org/2000/svg" xmlns:xlink="http://www.w3.org/1999/xlink" xml:space="preserve" overflow="hidden"><g transform="translate(-540 -198)"><rect x="543.5" y="201.5" width="2766" height="2073" stroke="#FFFFFF" stroke-width="6.875" stroke-miterlimit="8" fill="#FFFFFF"/><path d="M2306.03 1250.55 1015 1373 2923.13 1373 3095 1249 2306.03 1250.55Z" fill="#FF7F0E" fill-rule="evenodd" fill-opacity="0.2"/><path d="M2036 1536.5C2036 1495.91 2068.91 1463 2109.5 1463L2919.5 1463C2960.09 1463 2993 1495.91 2993 1536.5L2993 1830.5C2993 1871.09 2960.09 1904 2919.5 1904L2109.5 1904C2068.91 1904 2036 1871.09 2036 1830.5Z" stroke="#FF7F0E" stroke-width="10.3125" stroke-miterlimit="8" fill="#FFFFFF" fill-rule="evenodd"/><path d="M869 1537.84C869 1496.5 902.505 1463 943.835 1463L1751.16 1463C1792.5 1463 1826 1496.5 1826 1537.84L1826 1837.16C1826 1878.5 1792.5 1912 1751.16 1912L943.835 1912C902.505 1912 869 1878.5 869 1837.16Z" stroke="#FF7F0E" stroke-width="10.3125" stroke-miterlimit="8" fill="#FFFFFF" fill-rule="evenodd"/><path d="M1556 360.501C1556 339.237 1573.24 322 1594.5 322L2210.5 322C2231.76 322 2249 339.237 2249 360.501L2249 514.499C2249 535.763 2231.76 553 2210.5 553L1594.5 553C1573.24 553 1556 535.763 1556 514.499Z" stroke="#000000" stroke-width="10.3125" stroke-miterlimit="8" fill="none" fill-rule="evenodd"/><text fill="#7F7F7F" font-family="Arial,Arial_MSFontService,sans-serif" font-weight="400" font-size="83" transform="matrix(1 0 0 1 1606.66 418)">High</text><text fill="#7F7F7F" font-family="Arial,Arial_MSFontService,sans-serif" font-weight="400" font-size="83" transform="matrix(1 0 0 1 1776.24 418)">-</text><text fill="#7F7F7F" font-family="Arial,Arial_MSFontService,sans-serif" font-weight="400" font-size="83" transform="matrix(1 0 0 1 1803.74 418)">throughput </text><text fill="#7F7F7F" font-family="Arial,Arial_MSFontService,sans-serif" font-weight="400" font-size="83" transform="matrix(1 0 0 1 1730.41 517)">synthesis  </text><path d="M1474 718.335C1474 694.954 1492.95 676 1516.33 676L2332.67 676C2356.05 676 2375 694.954 2375 718.335L2375 887.665C2375 911.046 2356.05 930 2332.67 930L1516.33 930C1492.95 930 1474 911.046 1474 887.665Z" fill="#ED7D31" fill-rule="evenodd"/><text fill="#FFFFFF" font-family="Arial,Arial_MSFontService,sans-serif" font-weight="700" font-size="83" transform="matrix(1 0 0 1 1709 784)">Automated </text><text fill="#FFFFFF" font-family="Arial,Arial_MSFontService,sans-serif" font-weight="700" font-size="83" transform="matrix(1 0 0 1 1539.41 883)">materials discovery</text><path d="M1.87906-1.31182 393.944 560.284 390.186 562.907-1.87906 1.31182ZM400.715 549.966 405.183 580.386 378.167 565.708Z" transform="matrix(-1 0 0 1 1556.68 437.5)"/><path d="M804 1056.5C804 1035.24 821.237 1018 842.501 1018L1458.5 1018C1479.76 1018 1497 1035.24 1497 1056.5L1497 1210.5C1497 1231.76 1479.76 1249 1458.5 1249L842.501 1249C821.237 1249 804 1231.76 804 1210.5Z" stroke="#000000" stroke-width="10.3125" stroke-miterlimit="8" fill="none" fill-rule="evenodd"/><text fill="#7F7F7F" font-family="Arial,Arial_MSFontService,sans-serif" font-weight="400" font-size="83" transform="matrix(1 0 0 1 854.977 1114)">High</text><text fill="#7F7F7F" font-family="Arial,Arial_MSFontService,sans-serif" font-weight="400" font-size="83" transform="matrix(1 0 0 1 1024.56 1114)">-</text><text fill="#7F7F7F" font-family="Arial,Arial_MSFontService,sans-serif" font-weight="400" font-size="83" transform="matrix(1 0 0 1 1052.06 1114)">throughput </text><text fill="#7F7F7F" font-family="Arial,Arial_MSFontService,sans-serif" font-weight="400" font-size="83" transform="matrix(1 0 0 1 859.56 1213)">characterization</text><path d="M2313 1056.5C2313 1035.24 2330.24 1018 2351.5 1018L3069.5 1018C3090.76 1018 3108 1035.24 3108 1056.5L3108 1210.5C3108 1231.76 3090.76 1249 3069.5 1249L2351.5 1249C2330.24 1249 2313 1231.76 2313 1210.5Z" stroke="#FF7F0E" stroke-width="10.3125" stroke-miterlimit="8" fill="#FF7F0E" fill-rule="evenodd" fill-opacity="0.301961"/><text fill="#C00000" font-family="Arial,Arial_MSFontService,sans-serif" font-weight="700" font-size="83" transform="matrix(1 0 0 1 2385.08 1114)">High</text><text fill="#C00000" font-family="Arial,Arial_MSFontService,sans-serif" font-weight="700" font-size="83" transform="matrix(1 0 0 1 2568.42 1114)">-</text><text fill="#C00000" font-family="Arial,Arial_MSFontService,sans-serif" font-weight="700" font-size="83" transform="matrix(1 0 0 1 2595.92 1114)">throughput </text><text fill="#C00000" font-family="Arial,Arial_MSFontService,sans-serif" font-weight="700" font-size="83" transform="matrix(1 0 0 1 2451.54 1213)">data analysis</text><path d="M2709.42 1019.31 2261.97 456.862 2265.56 454.008 2713.01 1016.46ZM2255.86 467.581 2249.5 437.5 2277.38 450.461Z"/><path d="M1497.5 1131.21 2290.82 1131.21 2290.82 1135.79 1497.5 1135.79ZM2286.23 1119.75 2313.73 1133.5 2286.23 1147.25Z"/><path d="M1851.5 610.056 1878.75 610.056 1878.75 567.5 1933.25 567.5 1933.25 610.056 1960.5 610.056 1906 666.5Z" stroke="#3B3838" stroke-width="4.58333" stroke-miterlimit="8" fill="#BFBFBF" fill-rule="evenodd"/><path d="M1555.51 1023.8 1538.36 1005.95 1507.67 1035.44 1473.38 999.744 1504.06 970.258 1486.91 952.412 1561.91 948.997Z" stroke="#3B3838" stroke-width="4.58333" stroke-miterlimit="8" fill="#BFBFBF" fill-rule="evenodd"/><path d="M0 42.5561 24.75 42.5561 24.75 0 74.25 0 74.25 42.5561 99 42.5561 49.5 99Z" stroke="#3B3838" stroke-width="4.58333" stroke-miterlimit="8" fill="#7F7F7F" fill-rule="evenodd" transform="matrix(0.692859 -0.721073 -0.721073 -0.692859 2293.83 1045.97)"/><rect x="2102" y="1373" width="825" height="161" stroke="#FF7F0E" stroke-width="10.3125" stroke-miterlimit="8" fill="#FFFFFF"/><text font-family="Arial,Arial_MSFontService,sans-serif" font-weight="700" font-size="73" transform="matrix(1 0 0 1 2202.7 1481)">Machine Learning</text><rect x="1018" y="1369" width="660" height="161" stroke="#FF7F0E" stroke-width="10.3125" stroke-miterlimit="8" fill="#FFFFFF"/><text font-family="Arial,Arial_MSFontService,sans-serif" font-weight="700" font-size="73" transform="matrix(1 0 0 1 1268.36 1477)">Data</text><text font-family="Arial,Arial_MSFontService,sans-serif" font-weight="400" font-size="73" transform="matrix(1 0 0 1 971.366 1646)">•</text><text font-family="Arial,Arial_MSFontService,sans-serif" font-weight="400" font-size="73" transform="matrix(1 0 0 1 1033.24 1646)">Experiment</text><text font-family="Arial,Arial_MSFontService,sans-serif" font-weight="400" font-size="73" transform="matrix(1 0 0 1 971.366 1734)">•</text><text font-family="Arial,Arial_MSFontService,sans-serif" font-weight="400" font-size="73" transform="matrix(1 0 0 1 1033.24 1734)">Simulation</text><text font-family="Arial,Arial_MSFontService,sans-serif" font-weight="400" font-size="73" transform="matrix(1 0 0 1 971.366 1822)">•</text><text font-family="Arial,Arial_MSFontService,sans-serif" font-weight="400" font-size="73" transform="matrix(1 0 0 1 1033.24 1822)">…</text><text font-family="Arial,Arial_MSFontService,sans-serif" font-weight="400" font-size="73" transform="matrix(1 0 0 1 2067.93 1646)">•</text><text font-family="Arial,Arial_MSFontService,sans-serif" font-weight="400" font-size="73" transform="matrix(1 0 0 1 2129.81 1646)">Physics</text><text font-family="Arial,Arial_MSFontService,sans-serif" font-weight="400" font-size="73" transform="matrix(1 0 0 1 2381.89 1646)">-</text><text font-family="Arial,Arial_MSFontService,sans-serif" font-weight="400" font-size="73" transform="matrix(1 0 0 1 2406.53 1646)">based ML</text><text font-family="Arial,Arial_MSFontService,sans-serif" font-weight="400" font-size="73" transform="matrix(1 0 0 1 2067.93 1734)">•</text><text font-family="Arial,Arial_MSFontService,sans-serif" font-weight="400" font-size="73" transform="matrix(1 0 0 1 2129.81 1734)">Uncertainty Quantification</text><text font-family="Arial,Arial_MSFontService,sans-serif" font-weight="400" font-size="73" transform="matrix(1 0 0 1 2067.93 1822)">•</text><text font-family="Arial,Arial_MSFontService,sans-serif" font-weight="400" font-size="73" transform="matrix(1 0 0 1 2129.81 1822)">Active Learning</text><path d="M2517 1965 3069.5 1965 3111 2006.5 3069.5 2048 2517 2048 2558.5 2006.5Z" stroke="#FF7F0E" stroke-width="10.3125" stroke-miterlimit="8" fill="#FFFFFF" fill-rule="evenodd"/><text font-family="Arial,Arial_MSFontService,sans-serif" font-weight="400" font-size="73" transform="matrix(1 0 0 1 2603.63 2034)">Performance</text><path d="M1925 1965 2477.5 1965 2519 2006.5 2477.5 2048 1925 2048 1966.5 2006.5Z" stroke="#FF7F0E" stroke-width="10.3125" stroke-miterlimit="8" fill="#FFFFFF" fill-rule="evenodd"/><text font-family="Arial,Arial_MSFontService,sans-serif" font-weight="400" font-size="73" transform="matrix(1 0 0 1 2082.95 2034)">Property</text><path d="M1333 1965 1885.5 1965 1927 2006.5 1885.5 2048 1333 2048 1374.5 2006.5Z" stroke="#FF7F0E" stroke-width="10.3125" stroke-miterlimit="8" fill="#FFFFFF" fill-rule="evenodd"/><text font-family="Arial,Arial_MSFontService,sans-serif" font-weight="400" font-size="73" transform="matrix(1 0 0 1 1480.64 2034)">Structure</text><path d="M741 1965 1293.5 1965 1335 2006.5 1293.5 2048 741 2048 782.5 2006.5Z" stroke="#FF7F0E" stroke-width="10.3125" stroke-miterlimit="8" fill="#FFFFFF" fill-rule="evenodd"/><text font-family="Arial,Arial_MSFontService,sans-serif" font-weight="400" font-size="73" transform="matrix(1 0 0 1 856.546 2034)">Processing</text><path d="M0 0-82.5083 0-82.5083 123.75 2411.28 123.75 2411.28 4.58333 2328.77 4.58333" stroke="#FF7F0E" stroke-width="10.3125" stroke-miterlimit="8" fill="none" fill-rule="evenodd" transform="matrix(-1 0 0 1 3110.77 2007)"/><path d="M1985 2153 1851 2129.5 1985 2106Z" stroke="#FF7F0E" stroke-width="10.3125" stroke-miterlimit="8" fill="#FF7F0E" fill-rule="evenodd"/></g></svg>