<svg width="2505" height="1846" xmlns="http://www.w3.org/2000/svg" xmlns:xlink="http://www.w3.org/1999/xlink" xml:space="preserve" overflow="hidden"><g transform="translate(-99 -267)"><path d="M1711.03 1204.54 420 1326 2328.13 1326 2500 1203 1711.03 1204.54Z" fill="#FF7F0E" fill-rule="evenodd" fill-opacity="0.2"/><path d="M1441 1490.33C1441 1449.83 1473.83 1417 1514.33 1417L2324.67 1417C2365.17 1417 2398 1449.83 2398 1490.33L2398 1783.67C2398 1824.17 2365.17 1857 2324.67 1857L1514.33 1857C1473.83 1857 1441 1824.17 1441 1783.67Z" stroke="#FF7F0E" stroke-width="10.3125" stroke-miterlimit="8" fill="#FFFFFF" fill-rule="evenodd"/><path d="M274 1491.84C274 1450.5 307.505 1417 348.835 1417L1156.16 1417C1197.5 1417 1231 1450.5 1231 1491.84L1231 1791.16C1231 1832.49 1197.5 1866 1156.16 1866L348.835 1866C307.505 1866 274 1832.49 274 1791.16Z" stroke="#FF7F0E" stroke-width="10.3125" stroke-miterlimit="8" fill="#FFFFFF" fill-rule="evenodd"/><path d="M961 314.501C961 293.237 978.237 276 999.501 276L1615.5 276C1636.76 276 1654 293.237 1654 314.501L1654 468.499C1654 489.763 1636.76 507 1615.5 507L999.501 507C978.237 507 961 489.763 961 468.499Z" stroke="#000000" stroke-width="10.3125" stroke-miterlimit="8" fill="none" fill-rule="evenodd"/><text fill="#7F7F7F" font-family="Arial,Arial_MSFontService,sans-serif" font-weight="400" font-size="83" transform="matrix(1 0 0 1 1011.7 372)">High</text><text fill="#7F7F7F" font-family="Arial,Arial_MSFontService,sans-serif" font-weight="400" font-size="83" transform="matrix(1 0 0 1 1181.28 372)">-</text><text fill="#7F7F7F" font-family="Arial,Arial_MSFontService,sans-serif" font-weight="400" font-size="83" transform="matrix(1 0 0 1 1208.78 372)">throughput </text><text fill="#7F7F7F" font-family="Arial,Arial_MSFontService,sans-serif" font-weight="400" font-size="83" transform="matrix(1 0 0 1 1135.45 471)">synthesis  </text><path d="M879 671.335C879 647.954 897.954 629 921.334 629L1737.67 629C1761.05 629 1780 647.954 1780 671.335L1780 840.666C1780 864.046 1761.05 883 1737.67 883L921.334 883C897.954 883 879 864.046 879 840.666Z" fill="#ED7D31" fill-rule="evenodd"/><text fill="#FFFFFF" font-family="Arial,Arial_MSFontService,sans-serif" font-weight="700" font-size="83" transform="matrix(1 0 0 1 1114.03 737)">Automated </text><text fill="#FFFFFF" font-family="Arial,Arial_MSFontService,sans-serif" font-weight="700" font-size="83" transform="matrix(1 0 0 1 944.45 836)">materials discovery</text><path d="M1.87906-1.31182 393.944 560.284 390.186 562.907-1.87906 1.31182ZM400.715 549.966 405.183 580.386 378.167 565.708Z" transform="matrix(-1 0 0 1 961.683 391.5)"/><path d="M209 1010.5C209 989.237 226.237 972 247.501 972L863.499 972C884.763 972 902 989.237 902 1010.5L902 1164.5C902 1185.76 884.763 1203 863.499 1203L247.501 1203C226.237 1203 209 1185.76 209 1164.5Z" stroke="#000000" stroke-width="10.3125" stroke-miterlimit="8" fill="none" fill-rule="evenodd"/><text fill="#7F7F7F" font-family="Arial,Arial_MSFontService,sans-serif" font-weight="400" font-size="83" transform="matrix(1 0 0 1 260.013 1068)">High</text><text fill="#7F7F7F" font-family="Arial,Arial_MSFontService,sans-serif" font-weight="400" font-size="83" transform="matrix(1 0 0 1 429.597 1068)">-</text><text fill="#7F7F7F" font-family="Arial,Arial_MSFontService,sans-serif" font-weight="400" font-size="83" transform="matrix(1 0 0 1 457.097 1068)">throughput </text><text fill="#7F7F7F" font-family="Arial,Arial_MSFontService,sans-serif" font-weight="400" font-size="83" transform="matrix(1 0 0 1 264.597 1167)">characterization</text><path d="M1718 1010.5C1718 989.237 1735.24 972 1756.5 972L2474.5 972C2495.76 972 2513 989.237 2513 1010.5L2513 1164.5C2513 1185.76 2495.76 1203 2474.5 1203L1756.5 1203C1735.24 1203 1718 1185.76 1718 1164.5Z" stroke="#FF7F0E" stroke-width="10.3125" stroke-miterlimit="8" fill="#FF7F0E" fill-rule="evenodd" fill-opacity="0.301961"/><text fill="#C00000" font-family="Arial,Arial_MSFontService,sans-serif" font-weight="700" font-size="83" transform="matrix(1 0 0 1 1790.12 1068)">High</text><text fill="#C00000" font-family="Arial,Arial_MSFontService,sans-serif" font-weight="700" font-size="83" transform="matrix(1 0 0 1 1973.45 1068)">-</text><text fill="#C00000" font-family="Arial,Arial_MSFontService,sans-serif" font-weight="700" font-size="83" transform="matrix(1 0 0 1 2000.95 1068)">throughput </text><text fill="#C00000" font-family="Arial,Arial_MSFontService,sans-serif" font-weight="700" font-size="83" transform="matrix(1 0 0 1 1856.58 1167)">data analysis</text><path d="M2114.42 973.313 1666.97 410.862 1670.56 408.008 2118.01 970.459ZM1660.86 421.581 1654.5 391.5 1682.38 404.461Z"/><path d="M902.5 1085.21 1695.82 1085.21 1695.82 1089.79 902.5 1089.79ZM1691.23 1073.75 1718.73 1087.5 1691.23 1101.25Z"/><path d="M1256.5 564.056 1283.75 564.056 1283.75 521.5 1338.25 521.5 1338.25 564.056 1365.5 564.056 1311 620.5Z" stroke="#3B3838" stroke-width="4.58333" stroke-miterlimit="8" fill="#BFBFBF" fill-rule="evenodd"/><path d="M960.544 977.52 943.396 959.674 912.709 989.159 878.413 953.466 909.099 923.98 891.951 906.134 966.947 902.719Z" stroke="#3B3838" stroke-width="4.58333" stroke-miterlimit="8" fill="#BFBFBF" fill-rule="evenodd"/><path d="M0 42.5561 24.75 42.5561 24.75 0 74.25 0 74.25 42.5561 99 42.5561 49.5 99Z" stroke="#3B3838" stroke-width="4.58333" stroke-miterlimit="8" fill="#7F7F7F" fill-rule="evenodd" transform="matrix(0.692859 -0.721073 -0.721073 -0.692859 1698.87 999.692)"/><rect x="1507" y="1327" width="825" height="161" stroke="#FF7F0E" stroke-width="10.3125" stroke-miterlimit="8" fill="#FFFFFF"/><text font-family="Arial,Arial_MSFontService,sans-serif" font-weight="700" font-size="73" transform="matrix(1 0 0 1 1607.74 1434)">Machine Learning</text><rect x="423" y="1323" width="660" height="161" stroke="#FF7F0E" stroke-width="10.3125" stroke-miterlimit="8" fill="#FFFFFF"/><text font-family="Arial,Arial_MSFontService,sans-serif" font-weight="700" font-size="73" transform="matrix(1 0 0 1 673.399 1431)">Data</text><text font-family="Arial,Arial_MSFontService,sans-serif" font-weight="400" font-size="73" transform="matrix(1 0 0 1 376.402 1600)">•</text><text font-family="Arial,Arial_MSFontService,sans-serif" font-weight="400" font-size="73" transform="matrix(1 0 0 1 438.277 1600)">Experiment</text><text font-family="Arial,Arial_MSFontService,sans-serif" font-weight="400" font-size="73" transform="matrix(1 0 0 1 376.402 1688)">•</text><text font-family="Arial,Arial_MSFontService,sans-serif" font-weight="400" font-size="73" transform="matrix(1 0 0 1 438.277 1688)">Simulation</text><text font-family="Arial,Arial_MSFontService,sans-serif" font-weight="400" font-size="73" transform="matrix(1 0 0 1 376.402 1776)">•</text><text font-family="Arial,Arial_MSFontService,sans-serif" font-weight="400" font-size="73" transform="matrix(1 0 0 1 438.277 1776)">…</text><text font-family="Arial,Arial_MSFontService,sans-serif" font-weight="400" font-size="73" transform="matrix(1 0 0 1 1472.97 1600)">•</text><text font-family="Arial,Arial_MSFontService,sans-serif" font-weight="400" font-size="73" transform="matrix(1 0 0 1 1534.85 1600)">Physics</text><text font-family="Arial,Arial_MSFontService,sans-serif" font-weight="400" font-size="73" transform="matrix(1 0 0 1 1786.93 1600)">-</text><text font-family="Arial,Arial_MSFontService,sans-serif" font-weight="400" font-size="73" transform="matrix(1 0 0 1 1811.56 1600)">based ML</text><text font-family="Arial,Arial_MSFontService,sans-serif" font-weight="400" font-size="73" transform="matrix(1 0 0 1 1472.97 1688)">•</text><text font-family="Arial,Arial_MSFontService,sans-serif" font-weight="400" font-size="73" transform="matrix(1 0 0 1 1534.85 1688)">Uncertainty Quantification</text><text font-family="Arial,Arial_MSFontService,sans-serif" font-weight="400" font-size="73" transform="matrix(1 0 0 1 1472.97 1776)">•</text><text font-family="Arial,Arial_MSFontService,sans-serif" font-weight="400" font-size="73" transform="matrix(1 0 0 1 1534.85 1776)">Active Learning</text><path d="M1922 1919 2474.5 1919 2516 1960.5 2474.5 2002 1922 2002 1963.5 1960.5Z" stroke="#FF7F0E" stroke-width="10.3125" stroke-miterlimit="8" fill="#FFFFFF" fill-rule="evenodd"/><text font-family="Arial,Arial_MSFontService,sans-serif" font-weight="400" font-size="73" transform="matrix(1 0 0 1 2008.67 1987)">Performance</text><path d="M1330 1919 1882.5 1919 1924 1960.5 1882.5 2002 1330 2002 1371.5 1960.5Z" stroke="#FF7F0E" stroke-width="10.3125" stroke-miterlimit="8" fill="#FFFFFF" fill-rule="evenodd"/><text font-family="Arial,Arial_MSFontService,sans-serif" font-weight="400" font-size="73" transform="matrix(1 0 0 1 1487.99 1987)">Property</text><path d="M738 1919 1290.5 1919 1332 1960.5 1290.5 2002 738 2002 779.5 1960.5Z" stroke="#FF7F0E" stroke-width="10.3125" stroke-miterlimit="8" fill="#FFFFFF" fill-rule="evenodd"/><text font-family="Arial,Arial_MSFontService,sans-serif" font-weight="400" font-size="73" transform="matrix(1 0 0 1 885.672 1987)">Structure</text><path d="M146 1919 698.501 1919 740 1960.5 698.501 2002 146 2002 187.5 1960.5Z" stroke="#FF7F0E" stroke-width="10.3125" stroke-miterlimit="8" fill="#FFFFFF" fill-rule="evenodd"/><text font-family="Arial,Arial_MSFontService,sans-serif" font-weight="400" font-size="73" transform="matrix(1 0 0 1 261.582 1987)">Processing</text><path d="M0 0-82.5083 0-82.5083 123.75 2411.28 123.75 2411.28 4.58333 2328.77 4.58333" stroke="#FF7F0E" stroke-width="10.3125" stroke-miterlimit="8" fill="none" fill-rule="evenodd" transform="matrix(-1 0 0 1 2515.77 1960)"/><path d="M1390 2107 1256 2083.5 1390 2060Z" stroke="#FF7F0E" stroke-width="10.3125" stroke-miterlimit="8" fill="#FF7F0E" fill-rule="evenodd"/></g></svg>