<svg width="1874" height="1388" xmlns="http://www.w3.org/2000/svg" xmlns:xlink="http://www.w3.org/1999/xlink" xml:space="preserve" overflow="hidden"><g transform="translate(-1070 -710)"><rect x="1073.5" y="713.5" width="1867" height="1381" stroke="#FFFFFF" stroke-width="6.875" stroke-miterlimit="8" fill="#FFFFFF"/><path d="M1396 1838.12 2654.13 1838.13 2654.13 1851.88 1396 1851.87ZM2647.25 1824.38 2716 1845 2647.25 1865.63Z"/><path d="M1389.12 1845 1389.13 916.874 1402.88 916.874 1402.88 1845ZM1375.38 923.75 1396 855 1416.63 923.75Z"/><text font-family="Arial,Arial_MSFontService,sans-serif" font-weight="700" font-size="83" transform="matrix(1 0 0 1 1770.35 1969)">Physics/theory</text><text font-family="Arial,Arial_MSFontService,sans-serif" font-weight="700" font-size="83" transform="matrix(-1.83697e-16 -1 1 -1.83697e-16 1318.15 1433)">Data</text><text fill="#70AD47" font-family="Arial,Arial_MSFontService,sans-serif" font-weight="400" font-size="83" transform="matrix(-1.83697e-16 -1 1 -1.83697e-16 1318.15 1832)">Low</text><text fill="#ED7D31" font-family="Arial,Arial_MSFontService,sans-serif" font-weight="400" font-size="83" transform="matrix(-1.83697e-16 -1 1 -1.83697e-16 1318.15 1005)">High</text><text fill="#ED7D31" font-family="Arial,Arial_MSFontService,sans-serif" font-weight="400" font-size="83" transform="matrix(1 0 0 1 2587.72 1969)">High</text><text fill="#70AD47" font-family="Arial,Arial_MSFontService,sans-serif" font-weight="400" font-size="83" transform="matrix(1 0 0 1 1388.47 1969)">Low</text><rect x="1582" y="1679" width="957" height="132" fill="#A9D18E" fill-opacity="0.501961"/><text font-family="Arial,Arial_MSFontService,sans-serif" font-weight="400" font-size="83" transform="matrix(1 0 0 1 1647.91 1775)">Physics</text><text font-family="Arial,Arial_MSFontService,sans-serif" font-weight="400" font-size="83" transform="matrix(1 0 0 1 1932.07 1775)">-</text><text font-family="Arial,Arial_MSFontService,sans-serif" font-weight="400" font-size="83" transform="matrix(1 0 0 1 1959.57 1775)">based models</text><rect x="1423" y="942" width="132" height="825" fill="#1F77B4" fill-opacity="0.301961"/><text font-family="Arial,Arial_MSFontService,sans-serif" font-weight="400" font-size="83" transform="matrix(-1.83697e-16 -1 1 -1.83697e-16 1519.6 1712)">Data</text><text font-family="Arial,Arial_MSFontService,sans-serif" font-weight="400" font-size="83" transform="matrix(-1.83697e-16 -1 1 -1.83697e-16 1519.6 1538)">-</text><text font-family="Arial,Arial_MSFontService,sans-serif" font-weight="400" font-size="83" transform="matrix(-1.83697e-16 -1 1 -1.83697e-16 1519.6 1510)">driven models</text><rect x="1651" y="1114" width="726" height="495" fill="#E97132" fill-opacity="0.501961"/><text font-family="Arial,Arial_MSFontService,sans-serif" font-weight="400" font-size="83" transform="matrix(1 0 0 1 1745.96 1293)">Physics</text><text font-family="Arial,Arial_MSFontService,sans-serif" font-weight="400" font-size="83" transform="matrix(1 0 0 1 2030.13 1293)">-</text><text font-family="Arial,Arial_MSFontService,sans-serif" font-weight="400" font-size="83" transform="matrix(1 0 0 1 2057.63 1293)">based </text><text font-family="Arial,Arial_MSFontService,sans-serif" font-weight="400" font-size="83" transform="matrix(1 0 0 1 1807.84 1392)">data</text><text font-family="Arial,Arial_MSFontService,sans-serif" font-weight="400" font-size="83" transform="matrix(1 0 0 1 1968.25 1392)">-</text><text font-family="Arial,Arial_MSFontService,sans-serif" font-weight="400" font-size="83" transform="matrix(1 0 0 1 1995.75 1392)">driven </text><text font-family="Arial,Arial_MSFontService,sans-serif" font-weight="400" font-size="83" transform="matrix(1 0 0 1 1881.17 1491)">models</text></g></svg>