<svg width="2989" height="1689" xmlns="http://www.w3.org/2000/svg" xmlns:xlink="http://www.w3.org/1999/xlink" xml:space="preserve" overflow="hidden"><defs><clipPath id="clip0"><rect x="709" y="249" width="2989" height="1689"/></clipPath></defs><g clip-path="url(#clip0)" transform="translate(-709 -249)"><path d="M709 342.488C709 290.856 750.856 249 802.488 249L3597.51 249C3649.14 249 3691 290.856 3691 342.488L3691 1844.51C3691 1896.14 3649.14 1938 3597.51 1938L802.488 1938C750.856 1938 709 1896.14 709 1844.51Z" fill="#E7E6E6" fill-rule="evenodd"/><path d="M864.5 387.334C864.5 341.034 902.034 303.5 948.334 303.5L3451.67 303.5C3497.97 303.5 3535.5 341.034 3535.5 387.334L3535.5 722.666C3535.5 768.966 3497.97 806.5 3451.67 806.5L948.334 806.5C902.034 806.5 864.5 768.966 864.5 722.666Z" stroke="#223F59" stroke-width="4.58333" stroke-miterlimit="8" fill="#BDD7EE" fill-rule="evenodd"/><text font-family="Arial,Arial_MSFontService,sans-serif" font-weight="700" font-size="92" transform="matrix(1 0 0 1 1637.36 434)">Sources of information</text><path d="M1584.5 1745.5C1584.5 1727.28 1599.27 1712.5 1617.5 1712.5L2145.5 1712.5C2163.73 1712.5 2178.5 1727.28 2178.5 1745.5L2178.5 1877.5C2178.5 1895.72 2163.73 1910.5 2145.5 1910.5L1617.5 1910.5C1599.27 1910.5 1584.5 1895.72 1584.5 1877.5Z" stroke="#64310F" stroke-width="4.58333" stroke-miterlimit="8" fill="#ED7D31" fill-rule="evenodd"/><text fill="#FFFFFF" font-family="Arial,Arial_MSFontService,sans-serif" font-weight="400" font-size="83" transform="matrix(1 0 0 1 1727.75 1841)">Analysis</text><path d="M2221.5 1741.5C2221.5 1723.27 2236.28 1708.5 2254.5 1708.5L2782.5 1708.5C2800.73 1708.5 2815.5 1723.27 2815.5 1741.5L2815.5 1873.5C2815.5 1891.72 2800.73 1906.5 2782.5 1906.5L2254.5 1906.5C2236.28 1906.5 2221.5 1891.72 2221.5 1873.5Z" stroke="#64310F" stroke-width="4.58333" stroke-miterlimit="8" fill="#ED7D31" fill-rule="evenodd"/><text fill="#FFFFFF" font-family="Arial,Arial_MSFontService,sans-serif" font-weight="400" font-size="83" transform="matrix(1 0 0 1 2390.1 1838)">Design</text><path d="M1686.5 1359.5C1686.5 1335.2 1706.2 1315.5 1730.5 1315.5L2669.5 1315.5C2693.8 1315.5 2713.5 1335.2 2713.5 1359.5L2713.5 1535.5C2713.5 1559.8 2693.8 1579.5 2669.5 1579.5L1730.5 1579.5C1706.2 1579.5 1686.5 1559.8 1686.5 1535.5Z" stroke="#FFFFFF" stroke-width="6.875" stroke-miterlimit="8" fill-rule="evenodd"/><text fill="#FFFFFF" font-family="Arial,Arial_MSFontService,sans-serif" font-weight="400" font-size="83" transform="matrix(1 0 0 1 1872.15 1477)">Machine Learning</text><path d="M2145.5 868.056 2172.75 868.056 2172.75 825.5 2227.25 825.5 2227.25 868.056 2254.5 868.056 2200 924.5Z" stroke="#3B3838" stroke-width="4.58333" stroke-miterlimit="8" fill="#7F7F7F" fill-rule="evenodd"/><path d="M2145.5 1642.06 2172.75 1642.06 2172.75 1599.5 2227.25 1599.5 2227.25 1642.06 2254.5 1642.06 2200 1698.5Z" stroke="#3B3838" stroke-width="4.58333" stroke-miterlimit="8" fill="#7F7F7F" fill-rule="evenodd"/><rect x="984.5" y="509.5" width="528" height="231" stroke="#172C51" stroke-width="4.58333" stroke-miterlimit="8" fill="#4472C4"/><text fill="#FFFFFF" font-family="Arial,Arial_MSFontService,sans-serif" font-weight="400" font-size="83" transform="matrix(1 0 0 1 1078.49 606)">Empirical </text><text fill="#FFFFFF" font-family="Arial,Arial_MSFontService,sans-serif" font-weight="400" font-size="83" transform="matrix(1 0 0 1 1050.99 705)">knowledge</text><rect x="1619.5" y="509.5" width="528" height="231" stroke="#172C51" stroke-width="4.58333" stroke-miterlimit="8" fill="#4472C4"/><text fill="#FFFFFF" font-family="Arial,Arial_MSFontService,sans-serif" font-weight="400" font-size="83" transform="matrix(1 0 0 1 1692.39 606)">Governing </text><text fill="#FFFFFF" font-family="Arial,Arial_MSFontService,sans-serif" font-weight="400" font-size="83" transform="matrix(1 0 0 1 1703.85 705)">equations</text><rect x="2253.5" y="509.5" width="528" height="231" stroke="#172C51" stroke-width="4.58333" stroke-miterlimit="8" fill="#4472C4"/><text fill="#FFFFFF" font-family="Arial,Arial_MSFontService,sans-serif" font-weight="400" font-size="83" transform="matrix(1 0 0 1 2324.63 655)">Simulation</text><rect x="2888.5" y="509.5" width="528" height="231" stroke="#172C51" stroke-width="4.58333" stroke-miterlimit="8" fill="#4472C4"/><text fill="#FFFFFF" font-family="Arial,Arial_MSFontService,sans-serif" font-weight="400" font-size="83" transform="matrix(1 0 0 1 2943.11 655)">Experiment</text><text font-family="Arial,Arial_MSFontService,sans-serif" font-weight="700" font-size="128" transform="matrix(1 0 0 1 2913.11 1325)">Uncertainty</text><path d="M2145.5 1248.06 2172.75 1248.06 2172.75 1205.5 2227.25 1205.5 2227.25 1248.06 2254.5 1248.06 2200 1304.5Z" stroke="#3B3838" stroke-width="4.58333" stroke-miterlimit="8" fill="#7F7F7F" fill-rule="evenodd"/><path d="M1686.5 985.501C1686.5 961.2 1706.2 941.5 1730.5 941.5L2669.5 941.5C2693.8 941.5 2713.5 961.2 2713.5 985.501L2713.5 1161.5C2713.5 1185.8 2693.8 1205.5 2669.5 1205.5L1730.5 1205.5C1706.2 1205.5 1686.5 1185.8 1686.5 1161.5Z" stroke="#FFFFFF" stroke-width="6.875" stroke-miterlimit="8" fill="#70AD47" fill-rule="evenodd"/><text fill="#FFFFFF" font-family="Arial,Arial_MSFontService,sans-serif" font-weight="400" font-size="83" transform="matrix(1 0 0 1 2112.78 1103)">Data</text></g></svg>