<svg width="166" height="47" xmlns="http://www.w3.org/2000/svg" xmlns:xlink="http://www.w3.org/1999/xlink" xml:space="preserve" overflow="hidden"><g transform="translate(-2755 -1924)"><path d="M2772.5 1931.85C2772.5 1935.9 2775.35 1939.2 2778.86 1939.2L2796.14 1939.2C2797 1939.2 2797.72 1940.09 2797.72 1941.15 2797.72 1942.21 2797 1943.1 2796.14 1943.1L2772.5 1943.1 2772.5 1948.5 2796.14 1948.5C2799.65 1948.5 2802.5 1945.2 2802.5 1941.15 2802.5 1937.09 2799.65 1933.8 2796.14 1933.8L2778.86 1933.8C2778 1933.8 2777.28 1932.91 2777.28 1931.85 2777.28 1930.79 2778 1929.9 2778.86 1929.9L2802.5 1929.9 2802.5 1924.5 2778.86 1924.5C2775.35 1924.5 2772.5 1927.8 2772.5 1931.85Z" stroke="#000000" stroke-width="0.360171" stroke-miterlimit="8" fill="#FFFFFF" fill-rule="evenodd"/><path d="M2805.5 1948.5 2836.5 1948.5 2836.5 1942.99 2810.94 1942.99 2810.94 1939.01 2836.5 1939.01 2836.5 1933.5 2805.5 1933.5 2805.5 1948.5Z" stroke="#000000" stroke-width="0.360171" stroke-miterlimit="8" fill="#FFFFFF" fill-rule="evenodd"/><path d="M2805.5 1924.5 2836.5 1924.5 2836.5 1929.5 2805.5 1929.5Z" stroke="#000000" stroke-width="0.360171" stroke-miterlimit="8" fill="#FFFFFF" fill-rule="evenodd"/><path d="M2839.5 1936.5 2839.5 1948.5 2844.27 1948.5 2844.27 1943.21 2864.72 1943.21 2864.72 1948.5 2869.5 1948.5 2869.5 1924.5 2849.82 1924.5C2844.13 1924.5 2839.5 1929.88 2839.5 1936.5ZM2844.27 1936.5C2844.27 1932.86 2846.76 1929.9 2849.82 1929.9L2864.72 1929.9 2864.72 1937.81 2844.27 1937.81 2844.27 1936.5Z" stroke="#000000" stroke-width="0.360171" stroke-miterlimit="8" fill="#FFFFFF" fill-rule="evenodd"/><path d="M2893.83 1924.5 2873.5 1924.5 2873.5 1929.9 2893.83 1929.9C2897 1929.9 2899.57 1932.86 2899.57 1936.5 2899.57 1940.14 2897 1943.1 2893.83 1943.1L2878.43 1943.1 2878.43 1931.94 2873.5 1931.94 2873.5 1948.5 2893.83 1948.5C2899.71 1948.5 2904.5 1943.12 2904.5 1936.5 2904.5 1929.88 2899.72 1924.5 2893.83 1924.5Z" stroke="#000000" stroke-width="0.360171" stroke-miterlimit="8" fill="#FFFFFF" fill-rule="evenodd"/><rect x="2755.5" y="1924.5" width="165" height="45.9998" stroke="#000000" stroke-width="1.14583" stroke-miterlimit="8" fill="none"/></g></svg>