<svg width="240" height="44" xmlns="http://www.w3.org/2000/svg" xmlns:xlink="http://www.w3.org/1999/xlink" xml:space="preserve" overflow="hidden"><defs><clipPath id="clip0"><rect x="897" y="518" width="240" height="44"/></clipPath></defs><g clip-path="url(#clip0)" transform="translate(-897 -518)"><path d="M0 13.2147C0 20.5062 5.26032 26.4342 11.7327 26.4342L43.6403 26.4342C45.2217 26.4342 46.5569 28.0392 46.5569 29.9426 46.5569 31.846 45.2217 33.4511 43.6403 33.4511L0 33.4511 0 43.1621 43.6403 43.1621C50.1079 43.1621 55.3683 37.2341 55.3683 29.9426 55.3683 22.6511 50.1079 16.7232 43.6403 16.7232L11.7327 16.7232C10.1513 16.7232 8.81612 15.1181 8.81612 13.2147 8.81612 11.3113 10.1513 9.70625 11.7327 9.70625L55.373 9.70625 55.373 0 11.7327 0C5.26032 0 0 5.92792 0 13.2147Z" transform="matrix(1 0 0 1.01941 897.211 518)"/><path d="M60.4345 43.1621 115.807 43.1621 115.807 33.4511 70.1454 33.4511 70.1454 26.4342 115.807 26.4342 115.807 16.7279 60.4345 16.7279 60.4345 43.1621Z" transform="matrix(1 0 0 1.01941 897.211 518)"/><path d="M60.4345 0 115.807 0 115.807 9.70625 60.4345 9.70625Z" transform="matrix(1 0 0 1.01941 897.211 518)"/><path d="M121.276 21.581 121.276 43.1621 130.087 43.1621 130.087 33.6499 167.838 33.6499 167.838 43.1621 176.654 43.1621 176.654 0 140.333 0C129.827 0 121.281 9.68258 121.281 21.581ZM130.087 21.581C130.087 15.0329 134.68 9.70625 140.329 9.70625L167.838 9.70625 167.838 23.9437 130.087 23.9437 130.087 21.581Z" transform="matrix(1 0 0 1.01941 897.211 518)"/><path d="M220.521 0 184.206 0 184.206 9.70625 220.521 9.70625C226.17 9.70625 230.763 15.0329 230.763 21.581 230.763 28.1292 226.17 33.4511 220.521 33.4511L193.012 33.4511 193.012 13.371 184.201 13.371 184.201 43.1621 220.517 43.1621C231.023 43.1621 239.574 33.4795 239.574 21.581 239.574 9.68258 231.033 0 220.521 0Z" transform="matrix(1 0 0 1.01941 897.211 518)"/></g></svg>