<svg width="183" height="33" xmlns="http://www.w3.org/2000/svg" xmlns:xlink="http://www.w3.org/1999/xlink" xml:space="preserve" overflow="hidden"><defs><clipPath id="clip0"><rect x="2017" y="1910" width="183" height="33"/></clipPath></defs><g clip-path="url(#clip0)" transform="translate(-2017 -1910)"><path d="M2017 1920.1C2017 1925.68 2020.99 1930.21 2025.9 1930.21L2050.1 1930.21C2051.3 1930.21 2052.31 1931.44 2052.31 1932.89 2052.31 1934.35 2051.3 1935.58 2050.1 1935.58L2017 1935.58 2017 1943 2050.1 1943C2055.01 1943 2059 1938.47 2059 1932.89 2059 1927.32 2055.01 1922.79 2050.1 1922.79L2025.9 1922.79C2024.7 1922.79 2023.69 1921.56 2023.69 1920.1 2023.69 1918.65 2024.7 1917.42 2025.9 1917.42L2059 1917.42 2059 1910 2025.9 1910C2020.99 1910 2017 1914.53 2017 1920.1Z" fill="#FFFFFF" fill-rule="evenodd"/><path d="M2063 1943 2105 1943 2105 1935.65 2070.37 1935.65 2070.37 1930.34 2105 1930.34 2105 1923 2063 1923 2063 1943Z" fill="#FFFFFF" fill-rule="evenodd"/><path d="M2063 1910 2105 1910 2105 1917 2063 1917Z" fill="#FFFFFF" fill-rule="evenodd"/><path d="M2109 1926.5 2109 1943 2115.84 1943 2115.84 1935.73 2145.15 1935.73 2145.15 1943 2152 1943 2152 1910 2123.8 1910C2115.64 1910 2109 1917.4 2109 1926.5ZM2115.84 1926.5C2115.84 1921.49 2119.41 1917.42 2123.79 1917.42L2145.15 1917.42 2145.15 1928.31 2115.84 1928.31 2115.84 1926.5Z" fill="#FFFFFF" fill-rule="evenodd"/><path d="M2185.55 1910 2158 1910 2158 1917.42 2185.55 1917.42C2189.83 1917.42 2193.32 1921.49 2193.32 1926.5 2193.32 1931.51 2189.83 1935.58 2185.55 1935.58L2164.68 1935.58 2164.68 1920.22 2158 1920.22 2158 1943 2185.55 1943C2193.51 1943 2200 1935.6 2200 1926.5 2200 1917.4 2193.52 1910 2185.55 1910Z" fill="#FFFFFF" fill-rule="evenodd"/></g></svg>