<svg width="825" height="149" xmlns="http://www.w3.org/2000/svg" xmlns:xlink="http://www.w3.org/1999/xlink" xml:space="preserve" overflow="hidden"><defs><clipPath id="clip0"><rect x="1551" y="1573" width="825" height="149"/></clipPath></defs><g clip-path="url(#clip0)" transform="translate(-1551 -1573)"><path d="M1551 1618.62C1551 1643.79 1569.14 1664.25 1591.47 1664.25L1701.53 1664.25C1706.98 1664.25 1711.59 1669.79 1711.59 1676.37 1711.59 1682.94 1706.98 1688.48 1701.53 1688.48L1551 1688.48 1551 1722 1701.53 1722C1723.84 1722 1741.98 1701.54 1741.98 1676.37 1741.98 1651.19 1723.84 1630.73 1701.53 1630.73L1591.47 1630.73C1586.02 1630.73 1581.41 1625.19 1581.41 1618.62 1581.41 1612.05 1586.02 1606.51 1591.47 1606.51L1742 1606.51 1742 1573 1591.47 1573C1569.14 1573 1551 1593.46 1551 1618.62Z" fill="#FFFFFF" fill-rule="evenodd"/><path d="M1760 1722 1950 1722 1950 1688.57 1793.32 1688.57 1793.32 1664.41 1950 1664.41 1950 1631 1760 1631 1760 1722Z" fill="#FFFFFF" fill-rule="evenodd"/><path d="M1760 1573 1950 1573 1950 1606 1760 1606Z" fill="#FFFFFF" fill-rule="evenodd"/><path d="M1969 1647.5 1969 1722 1999.39 1722 1999.39 1689.16 2129.59 1689.16 2129.59 1722 2160 1722 2160 1573 2034.73 1573C1998.49 1573 1969.02 1606.43 1969.02 1647.5ZM1999.39 1647.5C1999.39 1624.9 2015.23 1606.51 2034.71 1606.51L2129.59 1606.51 2129.59 1655.66 1999.39 1655.66 1999.39 1647.5Z" fill="#FFFFFF" fill-rule="evenodd"/><path d="M2310.62 1573 2186.02 1573 2186.02 1606.51 2310.62 1606.51C2330.01 1606.51 2345.77 1624.9 2345.77 1647.5 2345.77 1670.11 2330.01 1688.48 2310.62 1688.48L2216.23 1688.48 2216.23 1619.16 2186 1619.16 2186 1722 2310.61 1722C2346.66 1722 2376 1688.57 2376 1647.5 2376 1606.43 2346.69 1573 2310.62 1573Z" fill="#FFFFFF" fill-rule="evenodd"/></g></svg>