<svg width="165" height="29" xmlns="http://www.w3.org/2000/svg" xmlns:xlink="http://www.w3.org/1999/xlink" xml:space="preserve" overflow="hidden"><defs><clipPath id="clip0"><rect x="2465" y="1920" width="165" height="29"/></clipPath></defs><g clip-path="url(#clip0)" transform="translate(-2465 -1920)"><path d="M2465 1928.88C2465 1933.78 2468.61 1937.76 2473.05 1937.76L2494.95 1937.76C2496.03 1937.76 2496.95 1938.84 2496.95 1940.12 2496.95 1941.4 2496.03 1942.48 2494.95 1942.48L2465 1942.48 2465 1949 2494.95 1949C2499.39 1949 2503 1945.02 2503 1940.12 2503 1935.22 2499.39 1931.24 2494.95 1931.24L2473.05 1931.24C2471.97 1931.24 2471.05 1930.16 2471.05 1928.88 2471.05 1927.6 2471.97 1926.52 2473.05 1926.52L2503 1926.52 2503 1920 2473.05 1920C2468.61 1920 2465 1923.98 2465 1928.88Z" fill="#FFFFFF" fill-rule="evenodd"/><path d="M2506 1949 2545 1949 2545 1942.39 2512.84 1942.39 2512.84 1937.61 2545 1937.61 2545 1931 2506 1931 2506 1949Z" fill="#FFFFFF" fill-rule="evenodd"/><path d="M2506 1920 2545 1920 2545 1926 2506 1926Z" fill="#FFFFFF" fill-rule="evenodd"/><path d="M2548 1934.5 2548 1949 2554.05 1949 2554.05 1942.61 2579.95 1942.61 2579.95 1949 2586 1949 2586 1920 2561.08 1920C2553.87 1920 2548 1926.51 2548 1934.5ZM2554.05 1934.5C2554.05 1930.1 2557.2 1926.52 2561.07 1926.52L2579.95 1926.52 2579.95 1936.09 2554.05 1936.09 2554.05 1934.5Z" fill="#FFFFFF" fill-rule="evenodd"/><path d="M2616.93 1920 2592 1920 2592 1926.52 2616.93 1926.52C2620.8 1926.52 2623.95 1930.1 2623.95 1934.5 2623.95 1938.9 2620.8 1942.48 2616.93 1942.48L2598.05 1942.48 2598.05 1928.98 2592 1928.98 2592 1949 2616.92 1949C2624.13 1949 2630 1942.49 2630 1934.5 2630 1926.51 2624.14 1920 2616.93 1920Z" fill="#FFFFFF" fill-rule="evenodd"/></g></svg>