<svg width="165" height="56" xmlns="http://www.w3.org/2000/svg" xmlns:xlink="http://www.w3.org/1999/xlink" xml:space="preserve" overflow="hidden"><g transform="translate(-2755 -1921)"><path d="M2772 1944.35C2772 1948.4 2774.85 1951.7 2778.36 1951.7L2795.64 1951.7C2796.5 1951.7 2797.22 1952.59 2797.22 1953.65 2797.22 1954.71 2796.5 1955.6 2795.64 1955.6L2772 1955.6 2772 1961 2795.64 1961C2799.15 1961 2802 1957.7 2802 1953.65 2802 1949.6 2799.15 1946.3 2795.64 1946.3L2778.36 1946.3C2777.5 1946.3 2776.78 1945.41 2776.78 1944.35 2776.78 1943.29 2777.5 1942.4 2778.36 1942.4L2802 1942.4 2802 1937 2778.36 1937C2774.85 1937 2772 1940.3 2772 1944.35Z" fill="#FFFFFF" fill-rule="evenodd"/><path d="M2805 1961 2836 1961 2836 1955.49 2810.44 1955.49 2810.44 1951.51 2836 1951.51 2836 1946 2805 1946 2805 1961Z" fill="#FFFFFF" fill-rule="evenodd"/><path d="M2805 1937 2836 1937 2836 1942 2805 1942Z" fill="#FFFFFF" fill-rule="evenodd"/><path d="M2839 1949 2839 1961 2843.77 1961 2843.77 1955.71 2864.22 1955.71 2864.22 1961 2869 1961 2869 1937 2849.32 1937C2843.63 1937 2839 1942.38 2839 1949ZM2843.77 1949C2843.77 1945.36 2846.26 1942.4 2849.32 1942.4L2864.22 1942.4 2864.22 1950.31 2843.77 1950.31 2843.77 1949Z" fill="#FFFFFF" fill-rule="evenodd"/><path d="M2893.33 1937 2873 1937 2873 1942.4 2893.33 1942.4C2896.5 1942.4 2899.07 1945.36 2899.07 1949 2899.07 1952.64 2896.5 1955.6 2893.33 1955.6L2877.93 1955.6 2877.93 1944.44 2873 1944.44 2873 1961 2893.33 1961C2899.21 1961 2904 1955.62 2904 1949 2904 1942.38 2899.22 1937 2893.33 1937Z" fill="#FFFFFF" fill-rule="evenodd"/></g></svg>