<svg width="165" height="99" xmlns="http://www.w3.org/2000/svg" xmlns:xlink="http://www.w3.org/1999/xlink" xml:space="preserve" overflow="hidden"><g transform="translate(-2758 -1890)"><path d="M2774 1935.35C2774 1939.4 2776.95 1942.7 2780.57 1942.7L2798.43 1942.7C2799.32 1942.7 2800.06 1943.59 2800.06 1944.65 2800.06 1945.71 2799.32 1946.6 2798.43 1946.6L2774 1946.6 2774 1952 2798.43 1952C2802.05 1952 2805 1948.7 2805 1944.65 2805 1940.6 2802.05 1937.3 2798.43 1937.3L2780.57 1937.3C2779.68 1937.3 2778.94 1936.41 2778.94 1935.35 2778.94 1934.29 2779.68 1933.4 2780.57 1933.4L2805 1933.4 2805 1928 2780.57 1928C2776.95 1928 2774 1931.3 2774 1935.35Z" fill="#FFFFFF" fill-rule="evenodd"/><path d="M2807 1952 2838 1952 2838 1946.49 2812.44 1946.49 2812.44 1942.51 2838 1942.51 2838 1937 2807 1937 2807 1952Z" fill="#FFFFFF" fill-rule="evenodd"/><path d="M2807 1928 2838 1928 2838 1933 2807 1933Z" fill="#FFFFFF" fill-rule="evenodd"/><path d="M2841 1940 2841 1952 2845.77 1952 2845.77 1946.71 2866.22 1946.71 2866.22 1952 2871 1952 2871 1928 2851.32 1928C2845.63 1928 2841 1933.38 2841 1940ZM2845.77 1940C2845.77 1936.36 2848.26 1933.4 2851.32 1933.4L2866.22 1933.4 2866.22 1941.31 2845.77 1941.31 2845.77 1940Z" fill="#FFFFFF" fill-rule="evenodd"/><path d="M2895.68 1928 2876 1928 2876 1933.4 2895.68 1933.4C2898.74 1933.4 2901.23 1936.36 2901.23 1940 2901.23 1943.64 2898.74 1946.6 2895.68 1946.6L2880.77 1946.6 2880.77 1935.44 2876 1935.44 2876 1952 2895.68 1952C2901.37 1952 2906 1946.62 2906 1940 2906 1933.38 2901.37 1928 2895.68 1928Z" fill="#FFFFFF" fill-rule="evenodd"/></g></svg>