<svg width="165" height="66" xmlns="http://www.w3.org/2000/svg" xmlns:xlink="http://www.w3.org/1999/xlink" xml:space="preserve" overflow="hidden"><g transform="translate(-2755 -1921)"><path d="M2772 1949.35C2772 1953.4 2774.85 1956.7 2778.36 1956.7L2795.64 1956.7C2796.5 1956.7 2797.22 1957.59 2797.22 1958.65 2797.22 1959.71 2796.5 1960.6 2795.64 1960.6L2772 1960.6 2772 1966 2795.64 1966C2799.15 1966 2802 1962.7 2802 1958.65 2802 1954.59 2799.15 1951.3 2795.64 1951.3L2778.36 1951.3C2777.5 1951.3 2776.78 1950.41 2776.78 1949.35 2776.78 1948.29 2777.5 1947.4 2778.36 1947.4L2802 1947.4 2802 1942 2778.36 1942C2774.85 1942 2772 1945.3 2772 1949.35Z" fill="#FFFFFF" fill-rule="evenodd"/><path d="M2805 1966 2836 1966 2836 1960.49 2810.44 1960.49 2810.44 1956.51 2836 1956.51 2836 1951 2805 1951 2805 1966Z" fill="#FFFFFF" fill-rule="evenodd"/><path d="M2805 1942 2836 1942 2836 1947 2805 1947Z" fill="#FFFFFF" fill-rule="evenodd"/><path d="M2839 1954 2839 1966 2843.77 1966 2843.77 1960.71 2864.22 1960.71 2864.22 1966 2869 1966 2869 1942 2849.32 1942C2843.63 1942 2839 1947.38 2839 1954ZM2843.77 1954C2843.77 1950.36 2846.26 1947.4 2849.32 1947.4L2864.22 1947.4 2864.22 1955.31 2843.77 1955.31 2843.77 1954Z" fill="#FFFFFF" fill-rule="evenodd"/><path d="M2893.33 1942 2873 1942 2873 1947.4 2893.33 1947.4C2896.5 1947.4 2899.07 1950.36 2899.07 1954 2899.07 1957.64 2896.5 1960.6 2893.33 1960.6L2877.93 1960.6 2877.93 1949.43 2873 1949.43 2873 1966 2893.33 1966C2899.21 1966 2904 1960.62 2904 1954 2904 1947.38 2899.22 1942 2893.33 1942Z" fill="#FFFFFF" fill-rule="evenodd"/></g></svg>