<svg width="132" height="24" xmlns="http://www.w3.org/2000/svg" xmlns:xlink="http://www.w3.org/1999/xlink" xml:space="preserve" overflow="hidden"><defs><clipPath id="clip0"><rect x="2685" y="1923" width="132" height="24"/></clipPath></defs><g clip-path="url(#clip0)" transform="translate(-2685 -1923)"><path d="M2685 1930.35C2685 1934.4 2687.95 1937.7 2691.57 1937.7L2709.43 1937.7C2710.32 1937.7 2711.06 1938.59 2711.06 1939.65 2711.06 1940.71 2710.32 1941.6 2709.43 1941.6L2685 1941.6 2685 1947 2709.43 1947C2713.05 1947 2716 1943.7 2716 1939.65 2716 1935.59 2713.05 1932.3 2709.43 1932.3L2691.57 1932.3C2690.68 1932.3 2689.94 1931.41 2689.94 1930.35 2689.94 1929.29 2690.68 1928.4 2691.57 1928.4L2716 1928.4 2716 1923 2691.57 1923C2687.95 1923 2685 1926.3 2685 1930.35Z" fill="#FFFFFF" fill-rule="evenodd"/><path d="M2719 1947 2749 1947 2749 1941.49 2724.26 1941.49 2724.26 1937.51 2749 1937.51 2749 1932 2719 1932 2719 1947Z" fill="#FFFFFF" fill-rule="evenodd"/><path d="M2719 1923 2749 1923 2749 1928 2719 1928Z" fill="#FFFFFF" fill-rule="evenodd"/><path d="M2752 1935 2752 1947 2756.93 1947 2756.93 1941.71 2778.06 1941.71 2778.06 1947 2783 1947 2783 1923 2762.67 1923C2756.79 1923 2752 1928.38 2752 1935ZM2756.93 1935C2756.93 1931.36 2759.5 1928.4 2762.67 1928.4L2778.06 1928.4 2778.06 1936.31 2756.93 1936.31 2756.93 1935Z" fill="#FFFFFF" fill-rule="evenodd"/><path d="M2806.68 1923 2787 1923 2787 1928.4 2806.68 1928.4C2809.74 1928.4 2812.23 1931.36 2812.23 1935 2812.23 1938.64 2809.74 1941.6 2806.68 1941.6L2791.77 1941.6 2791.77 1930.43 2787 1930.43 2787 1947 2806.68 1947C2812.37 1947 2817 1941.62 2817 1935 2817 1928.38 2812.37 1923 2806.68 1923Z" fill="#FFFFFF" fill-rule="evenodd"/></g></svg>