<svg width="330" height="59" xmlns="http://www.w3.org/2000/svg" xmlns:xlink="http://www.w3.org/1999/xlink" xml:space="preserve" overflow="hidden"><defs><clipPath id="clip0"><rect x="1838" y="2075" width="330" height="59"/></clipPath></defs><g clip-path="url(#clip0)" transform="translate(-1838 -2075)"><path d="M1838 2093.06C1838 2103.03 1845.22 2111.13 1854.1 2111.13L1897.9 2111.13C1900.07 2111.13 1901.9 2113.33 1901.9 2115.93 1901.9 2118.53 1900.07 2120.73 1897.9 2120.73L1838 2120.73 1838 2134 1897.9 2134C1906.77 2134 1913.99 2125.9 1913.99 2115.93 1913.99 2105.96 1906.77 2097.86 1897.9 2097.86L1854.1 2097.86C1851.93 2097.86 1850.1 2095.67 1850.1 2093.06 1850.1 2090.46 1851.93 2088.27 1854.1 2088.27L1914 2088.27 1914 2075 1854.1 2075C1845.22 2075 1838 2083.1 1838 2093.06Z" fill="#FFFFFF" fill-rule="evenodd"/><path d="M1921 2134 1998 2134 1998 2120.77 1934.5 2120.77 1934.5 2111.22 1998 2111.22 1998 2098 1921 2098 1921 2134Z" fill="#FFFFFF" fill-rule="evenodd"/><path d="M1921 2075 1998 2075 1998 2088 1921 2088Z" fill="#FFFFFF" fill-rule="evenodd"/><path d="M2005 2104.5 2005 2134 2017.09 2134 2017.09 2121 2068.9 2121 2068.9 2134 2081 2134 2081 2075 2031.15 2075C2016.74 2075 2005.01 2088.24 2005.01 2104.5ZM2017.09 2104.5C2017.09 2095.55 2023.4 2088.27 2031.15 2088.27L2068.9 2088.27 2068.9 2107.73 2017.09 2107.73 2017.09 2104.5Z" fill="#FFFFFF" fill-rule="evenodd"/><path d="M2141.85 2075 2092.01 2075 2092.01 2088.27 2141.85 2088.27C2149.6 2088.27 2155.91 2095.55 2155.91 2104.5 2155.91 2113.45 2149.6 2120.73 2141.85 2120.73L2104.09 2120.73 2104.09 2093.28 2092 2093.28 2092 2134 2141.84 2134C2156.26 2134 2168 2120.76 2168 2104.5 2168 2088.24 2156.28 2075 2141.85 2075Z" fill="#FFFFFF" fill-rule="evenodd"/></g></svg>