<svg width="165" height="49" xmlns="http://www.w3.org/2000/svg" xmlns:xlink="http://www.w3.org/1999/xlink" xml:space="preserve" overflow="hidden"><g transform="translate(-2755 -1921)"><path d="M2772 1941.04C2772 1944.93 2774.85 1948.09 2778.36 1948.09L2795.64 1948.09C2796.5 1948.09 2797.22 1948.94 2797.22 1949.96 2797.22 1950.97 2796.5 1951.83 2795.64 1951.83L2772 1951.83 2772 1957 2795.64 1957C2799.15 1957 2802 1953.84 2802 1949.96 2802 1946.07 2799.15 1942.91 2795.64 1942.91L2778.36 1942.91C2777.5 1942.91 2776.78 1942.06 2776.78 1941.04 2776.78 1940.03 2777.5 1939.17 2778.36 1939.17L2802 1939.17 2802 1934 2778.36 1934C2774.85 1934 2772 1937.16 2772 1941.04Z" fill="#FFFFFF" fill-rule="evenodd"/><path d="M2805 1957 2836 1957 2836 1951.86 2810.44 1951.86 2810.44 1948.14 2836 1948.14 2836 1943 2805 1943 2805 1957Z" fill="#FFFFFF" fill-rule="evenodd"/><path d="M2805 1934 2836 1934 2836 1939 2805 1939Z" fill="#FFFFFF" fill-rule="evenodd"/><path d="M2839 1945.5 2839 1957 2843.77 1957 2843.77 1951.93 2864.22 1951.93 2864.22 1957 2869 1957 2869 1934 2849.32 1934C2843.63 1934 2839 1939.16 2839 1945.5ZM2843.77 1945.5C2843.77 1942.01 2846.26 1939.17 2849.32 1939.17L2864.22 1939.17 2864.22 1946.76 2843.77 1946.76 2843.77 1945.5Z" fill="#FFFFFF" fill-rule="evenodd"/><path d="M2893.33 1934 2873 1934 2873 1939.17 2893.33 1939.17C2896.5 1939.17 2899.07 1942.01 2899.07 1945.5 2899.07 1948.99 2896.5 1951.83 2893.33 1951.83L2877.93 1951.83 2877.93 1941.13 2873 1941.13 2873 1957 2893.33 1957C2899.21 1957 2904 1951.84 2904 1945.5 2904 1939.16 2899.22 1934 2893.33 1934Z" fill="#FFFFFF" fill-rule="evenodd"/></g></svg>