<svg width="165" height="53" xmlns="http://www.w3.org/2000/svg" xmlns:xlink="http://www.w3.org/1999/xlink" xml:space="preserve" overflow="hidden"><g transform="translate(-2755 -1921)"><path d="M2772 1942.35C2772 1946.4 2774.85 1949.7 2778.36 1949.7L2795.64 1949.7C2796.5 1949.7 2797.22 1950.59 2797.22 1951.65 2797.22 1952.71 2796.5 1953.6 2795.64 1953.6L2772 1953.6 2772 1959 2795.64 1959C2799.15 1959 2802 1955.7 2802 1951.65 2802 1947.6 2799.15 1944.3 2795.64 1944.3L2778.36 1944.3C2777.5 1944.3 2776.78 1943.41 2776.78 1942.35 2776.78 1941.29 2777.5 1940.4 2778.36 1940.4L2802 1940.4 2802 1935 2778.36 1935C2774.85 1935 2772 1938.3 2772 1942.35Z" fill="#FFFFFF" fill-rule="evenodd"/><path d="M2805 1959 2836 1959 2836 1953.86 2810.44 1953.86 2810.44 1950.14 2836 1950.14 2836 1945 2805 1945 2805 1959Z" fill="#FFFFFF" fill-rule="evenodd"/><path d="M2805 1935 2836 1935 2836 1941 2805 1941Z" fill="#FFFFFF" fill-rule="evenodd"/><path d="M2839 1947 2839 1959 2843.77 1959 2843.77 1953.71 2864.22 1953.71 2864.22 1959 2869 1959 2869 1935 2849.32 1935C2843.63 1935 2839 1940.38 2839 1947ZM2843.77 1947C2843.77 1943.36 2846.26 1940.4 2849.32 1940.4L2864.22 1940.4 2864.22 1948.31 2843.77 1948.31 2843.77 1947Z" fill="#FFFFFF" fill-rule="evenodd"/><path d="M2893.33 1935 2873 1935 2873 1940.4 2893.33 1940.4C2896.5 1940.4 2899.07 1943.36 2899.07 1947 2899.07 1950.64 2896.5 1953.6 2893.33 1953.6L2877.93 1953.6 2877.93 1942.44 2873 1942.44 2873 1959 2893.33 1959C2899.21 1959 2904 1953.62 2904 1947 2904 1940.38 2899.22 1935 2893.33 1935Z" fill="#FFFFFF" fill-rule="evenodd"/></g></svg>