<svg width="2977" height="1856" xmlns="http://www.w3.org/2000/svg" xmlns:xlink="http://www.w3.org/1999/xlink" xml:space="preserve" overflow="hidden"><defs><linearGradient x1="978.5" y1="2044" x2="3380.5" y2="2044" gradientUnits="userSpaceOnUse" spreadMethod="reflect" id="fill0"><stop offset="0" stop-color="#FF7F0E" stop-opacity="0.101961"/><stop offset="1" stop-color="#FF7F0E"/><stop offset="1" stop-color="#FF7F0E"/></linearGradient></defs><g transform="translate(-686 -287)"><path d="M1394.5 1641.83C1394.5 1609.62 1420.62 1583.5 1452.83 1583.5L1897.17 1583.5C1929.38 1583.5 1955.5 1609.62 1955.5 1641.83L1955.5 1875.17C1955.5 1907.38 1929.38 1933.5 1897.17 1933.5L1452.83 1933.5C1420.62 1933.5 1394.5 1907.38 1394.5 1875.17Z" stroke="#161515" stroke-width="4.58333" stroke-miterlimit="8" fill="#FF7F0E" fill-rule="evenodd" fill-opacity="0.4"/><text fill="#342F2E" font-family="Arial,Arial_MSFontService,sans-serif" font-style="italic" font-weight="700" font-size="83" transform="matrix(1 0 0 1 1553.32 1739)">Fused </text><text fill="#342F2E" font-family="Arial,Arial_MSFontService,sans-serif" font-style="italic" font-weight="700" font-size="83" transform="matrix(1 0 0 1 1496.03 1838)">Opinion I</text><rect x="771.5" y="992.5" width="396" height="198" stroke="#23201F" stroke-width="4.58333" stroke-miterlimit="8" fill="#6E6969"/><text fill="#FFFFFF" font-family="Arial,Arial_MSFontService,sans-serif" font-weight="700" font-size="83" transform="matrix(1 0 0 1 879.412 1122)">CNN</text><path d="M974.875 886.936 975.536 957.677 961.786 957.805 961.125 887.064ZM989.221 950.674 968.982 992.115 947.973 951.059Z" fill="#401F68"/><text font-family="Arial,Arial_MSFontService,sans-serif" font-weight="400" font-size="128" transform="matrix(1 0 0 1 2804.93 674)">…</text><path d="M6.875-2.67682e-05 6.87523 58.3148-6.87477 58.3148-6.875 2.67682e-05ZM20.6252 51.4397 0.000360892 92.6898-20.6248 51.4399Z" fill="#401F68" transform="matrix(-1 0 0 1 969 1190)"/><path d="M688.5 1377C688.5 1325.36 730.362 1283.5 782.002 1283.5L1156 1283.5C1207.64 1283.5 1249.5 1325.36 1249.5 1377L1249.5 1850C1249.5 1901.64 1207.64 1943.5 1156 1943.5L782.002 1943.5C730.362 1943.5 688.5 1901.64 688.5 1850Z" stroke="#161515" stroke-width="4.58333" stroke-miterlimit="8" fill="#FF7F0E" fill-rule="evenodd" fill-opacity="0.101961"/><rect x="852.5" y="1701.5" width="41.9999" height="89" stroke="#2C144A" stroke-width="4.58333" stroke-miterlimit="8" fill="#1F77B4"/><rect x="894.5" y="1554.5" width="41.9999" height="236" stroke="#2C144A" stroke-width="4.58333" stroke-miterlimit="8" fill="#1F77B4"/><rect x="936.5" y="1678.5" width="42.0003" height="112" stroke="#2C144A" stroke-width="4.58333" stroke-miterlimit="8" fill="#1F77B4"/><rect x="978.5" y="1727.5" width="41.9999" height="63.0002" stroke="#2C144A" stroke-width="4.58333" stroke-miterlimit="8" fill="#1F77B4"/><rect x="1020.5" y="1774.5" width="41.9999" height="16.0001" stroke="#2C144A" stroke-width="4.58333" stroke-miterlimit="8" fill="#1F77B4"/><rect x="1062.5" y="1678.5" width="41.9999" height="112" stroke="#2C144A" stroke-width="4.58333" stroke-miterlimit="8" fill="#1F77B4"/><rect x="1104.5" y="1718.5" width="41.9999" height="72.0002" stroke="#2C144A" stroke-width="4.58333" stroke-miterlimit="8" fill="#1F77B4"/><text fill="#6B605E" font-family="Arial,Arial_MSFontService,sans-serif" font-weight="400" font-size="73" transform="matrix(1 0 0 1 879.12 1874)">Classes</text><text fill="#6B605E" font-family="Arial,Arial_MSFontService,sans-serif" font-weight="400" font-size="73" transform="matrix(-1.83697e-16 -1 1 -1.83697e-16 793.914 1823)">Probability</text><rect x="822" y="1493" width="396" height="297" stroke="#2C144A" stroke-width="2.29167" stroke-miterlimit="8" fill="none"/><text fill="#342F2E" font-family="Arial,Arial_MSFontService,sans-serif" font-style="italic" font-weight="700" font-size="83" transform="matrix(1 0 0 1 778.579 1418)">Opinion 1</text><text fill="#342F2E" font-family="Arial,Arial_MSFontService,sans-serif" font-weight="400" font-size="83" transform="matrix(1 0 0 1 1085.92 409)">A series of diffraction patterns with arbitrary zone axes</text><text font-family="Arial,Arial_MSFontService,sans-serif" font-weight="400" font-size="128" transform="matrix(1 0 0 1 2804.9 1390)">…</text><text font-family="Arial,Arial_MSFontService,sans-serif" font-weight="400" font-size="128" transform="matrix(1 0 0 1 2803.17 1766)">…</text><g><g><g><path d="M0 393.342 395.896 393.342 395.896 0 0 0Z" fill="#FFFFFF" transform="matrix(1 0 0 1.00167 1477.05 494)"/><g><path d="M0 393.342 395.896 393.342 395.896 0 0 0Z" transform="matrix(1 0 0 1.00167 1477.05 494)"/></g><g><path d="M0 5.32119C1.4112 5.32119 2.76478 4.76051 3.76265 3.76265 4.76051 2.76478 5.32119 1.4112 5.32119 0 5.32119-1.4112 4.76051-2.76478 3.76265-3.76265 2.76478-4.76051 1.4112-5.32119 0-5.32119-1.4112-5.32119-2.76478-4.76051-3.76265-3.76265-4.76051-2.76478-5.32119-1.4112-5.32119 0-5.32119 1.4112-4.76051 2.76478-3.76265 3.76265-2.76478 4.76051-1.4112 5.32119 0 5.32119Z" stroke="#000000" stroke-width="1.77373" stroke-linejoin="round" transform="matrix(1 0 0 1.00167 1736.04 866.944)"/></g><g><path d="M0 5.32119C1.4112 5.32119 2.76478 4.76051 3.76265 3.76265 4.76051 2.76478 5.32119 1.4112 5.32119 0 5.32119-1.4112 4.76051-2.76478 3.76265-3.76265 2.76478-4.76051 1.4112-5.32119 0-5.32119-1.4112-5.32119-2.76478-4.76051-3.76265-3.76265-4.76051-2.76478-5.32119-1.4112-5.32119 0-5.32119 1.4112-4.76051 2.76478-3.76265 3.76265-2.76478 4.76051-1.4112 5.32119 0 5.32119Z" stroke="#898989" stroke-width="1.77373" stroke-linejoin="round" fill="#898989" transform="matrix(1 0 0 1.00167 1705.52 866.944)"/></g><g><path d="M0 5.32119C1.4112 5.32119 2.76478 4.76051 3.76265 3.76265 4.76051 2.76478 5.32119 1.4112 5.32119 0 5.32119-1.4112 4.76051-2.76478 3.76265-3.76265 2.76478-4.76051 1.4112-5.32119 0-5.32119-1.4112-5.32119-2.76478-4.76051-3.76265-3.76265-4.76051-2.76478-5.32119-1.4112-5.32119 0-5.32119 1.4112-4.76051 2.76478-3.76265 3.76265-2.76478 4.76051-1.4112 5.32119 0 5.32119Z" stroke="#040404" stroke-width="1.77373" stroke-linejoin="round" fill="#040404" transform="matrix(1 0 0 1.00167 1675 866.944)"/></g><g><path d="M0 5.32119C1.4112 5.32119 2.76478 4.76051 3.76265 3.76265 4.76051 2.76478 5.32119 1.4112 5.32119 0 5.32119-1.4112 4.76051-2.76478 3.76265-3.76265 2.76478-4.76051 1.4112-5.32119 0-5.32119-1.4112-5.32119-2.76478-4.76051-3.76265-3.76265-4.76051-2.76478-5.32119-1.4112-5.32119 0-5.32119 1.4112-4.76051 2.76478-3.76265 3.76265-2.76478 4.76051-1.4112 5.32119 0 5.32119Z" stroke="#626262" stroke-width="1.77373" stroke-linejoin="round" fill="#626262" transform="matrix(1 0 0 1.00167 1644.48 866.944)"/></g><g><path d="M0 5.32119C1.4112 5.32119 2.76478 4.76051 3.76265 3.76265 4.76051 2.76478 5.32119 1.4112 5.32119 0 5.32119-1.4112 4.76051-2.76478 3.76265-3.76265 2.76478-4.76051 1.4112-5.32119 0-5.32119-1.4112-5.32119-2.76478-4.76051-3.76265-3.76265-4.76051-2.76478-5.32119-1.4112-5.32119 0-5.32119 1.4112-4.76051 2.76478-3.76265 3.76265-2.76478 4.76051-1.4112 5.32119 0 5.32119Z" stroke="#020202" stroke-width="1.77373" stroke-linejoin="round" fill="#020202" transform="matrix(1 0 0 1.00167 1613.96 866.944)"/></g><g><path d="M0 5.32119C1.4112 5.32119 2.76478 4.76051 3.76265 3.76265 4.76051 2.76478 5.32119 1.4112 5.32119 0 5.32119-1.4112 4.76051-2.76478 3.76265-3.76265 2.76478-4.76051 1.4112-5.32119 0-5.32119-1.4112-5.32119-2.76478-4.76051-3.76265-3.76265-4.76051-2.76478-5.32119-1.4112-5.32119 0-5.32119 1.4112-4.76051 2.76478-3.76265 3.76265-2.76478 4.76051-1.4112 5.32119 0 5.32119Z" stroke="#010101" stroke-width="1.77373" stroke-linejoin="round" fill="#010101" transform="matrix(1 0 0 1.00167 1858.13 691)"/></g><g><path d="M0 5.32119C1.4112 5.32119 2.76478 4.76051 3.76265 3.76265 4.76051 2.76478 5.32119 1.4112 5.32119 0 5.32119-1.4112 4.76051-2.76478 3.76265-3.76265 2.76478-4.76051 1.4112-5.32119 0-5.32119-1.4112-5.32119-2.76478-4.76051-3.76265-3.76265-4.76051-2.76478-5.32119-1.4112-5.32119 0-5.32119 1.4112-4.76051 2.76478-3.76265 3.76265-2.76478 4.76051-1.4112 5.32119 0 5.32119Z" stroke="#000000" stroke-width="1.77373" stroke-linejoin="round" transform="matrix(1 0 0 1.00167 1827.61 691)"/></g><g><path d="M0 5.32119C1.4112 5.32119 2.76478 4.76051 3.76265 3.76265 4.76051 2.76478 5.32119 1.4112 5.32119 0 5.32119-1.4112 4.76051-2.76478 3.76265-3.76265 2.76478-4.76051 1.4112-5.32119 0-5.32119-1.4112-5.32119-2.76478-4.76051-3.76265-3.76265-4.76051-2.76478-5.32119-1.4112-5.32119 0-5.32119 1.4112-4.76051 2.76478-3.76265 3.76265-2.76478 4.76051-1.4112 5.32119 0 5.32119Z" stroke="#FFFFFF" stroke-width="1.77373" stroke-linejoin="round" fill="#FFFFFF" transform="matrix(1 0 0 1.00167 1797.09 691)"/></g><g><path d="M0 5.32119C1.4112 5.32119 2.76478 4.76051 3.76265 3.76265 4.76051 2.76478 5.32119 1.4112 5.32119 0 5.32119-1.4112 4.76051-2.76478 3.76265-3.76265 2.76478-4.76051 1.4112-5.32119 0-5.32119-1.4112-5.32119-2.76478-4.76051-3.76265-3.76265-4.76051-2.76478-5.32119-1.4112-5.32119 0-5.32119 1.4112-4.76051 2.76478-3.76265 3.76265-2.76478 4.76051-1.4112 5.32119 0 5.32119Z" stroke="#000000" stroke-width="1.77373" stroke-linejoin="round" transform="matrix(1 0 0 1.00167 1766.56 691)"/></g><g><path d="M0 5.32119C1.4112 5.32119 2.76478 4.76051 3.76265 3.76265 4.76051 2.76478 5.32119 1.4112 5.32119 0 5.32119-1.4112 4.76051-2.76478 3.76265-3.76265 2.76478-4.76051 1.4112-5.32119 0-5.32119-1.4112-5.32119-2.76478-4.76051-3.76265-3.76265-4.76051-2.76478-5.32119-1.4112-5.32119 0-5.32119 1.4112-4.76051 2.76478-3.76265 3.76265-2.76478 4.76051-1.4112 5.32119 0 5.32119Z" stroke="#ABABAB" stroke-width="1.77373" stroke-linejoin="round" fill="#ABABAB" transform="matrix(1 0 0 1.00167 1736.04 691)"/></g><g><path d="M0 5.32119C1.4112 5.32119 2.76478 4.76051 3.76265 3.76265 4.76051 2.76478 5.32119 1.4112 5.32119 0 5.32119-1.4112 4.76051-2.76478 3.76265-3.76265 2.76478-4.76051 1.4112-5.32119 0-5.32119-1.4112-5.32119-2.76478-4.76051-3.76265-3.76265-4.76051-2.76478-5.32119-1.4112-5.32119 0-5.32119 1.4112-4.76051 2.76478-3.76265 3.76265-2.76478 4.76051-1.4112 5.32119 0 5.32119Z" stroke="#000000" stroke-width="1.77373" stroke-linejoin="round" transform="matrix(1 0 0 1.00167 1705.52 691)"/></g><g><path d="M0 5.32119C1.4112 5.32119 2.76478 4.76051 3.76265 3.76265 4.76051 2.76478 5.32119 1.4112 5.32119 0 5.32119-1.4112 4.76051-2.76478 3.76265-3.76265 2.76478-4.76051 1.4112-5.32119 0-5.32119-1.4112-5.32119-2.76478-4.76051-3.76265-3.76265-4.76051-2.76478-5.32119-1.4112-5.32119 0-5.32119 1.4112-4.76051 2.76478-3.76265 3.76265-2.76478 4.76051-1.4112 5.32119 0 5.32119Z" stroke="#000000" stroke-width="1.77373" stroke-linejoin="round" transform="matrix(1 0 0 1.00167 1644.48 691)"/></g><g><path d="M0 5.32119C1.4112 5.32119 2.76478 4.76051 3.76265 3.76265 4.76051 2.76478 5.32119 1.4112 5.32119 0 5.32119-1.4112 4.76051-2.76478 3.76265-3.76265 2.76478-4.76051 1.4112-5.32119 0-5.32119-1.4112-5.32119-2.76478-4.76051-3.76265-3.76265-4.76051-2.76478-5.32119-1.4112-5.32119 0-5.32119 1.4112-4.76051 2.76478-3.76265 3.76265-2.76478 4.76051-1.4112 5.32119 0 5.32119Z" stroke="#ABABAB" stroke-width="1.77373" stroke-linejoin="round" fill="#ABABAB" transform="matrix(1 0 0 1.00167 1613.96 691)"/></g><g><path d="M0 5.32119C1.4112 5.32119 2.76478 4.76051 3.76265 3.76265 4.76051 2.76478 5.32119 1.4112 5.32119 0 5.32119-1.4112 4.76051-2.76478 3.76265-3.76265 2.76478-4.76051 1.4112-5.32119 0-5.32119-1.4112-5.32119-2.76478-4.76051-3.76265-3.76265-4.76051-2.76478-5.32119-1.4112-5.32119 0-5.32119 1.4112-4.76051 2.76478-3.76265 3.76265-2.76478 4.76051-1.4112 5.32119 0 5.32119Z" stroke="#000000" stroke-width="1.77373" stroke-linejoin="round" transform="matrix(1 0 0 1.00167 1583.44 691)"/></g><g><path d="M0 5.32119C1.4112 5.32119 2.76478 4.76051 3.76265 3.76265 4.76051 2.76478 5.32119 1.4112 5.32119 0 5.32119-1.4112 4.76051-2.76478 3.76265-3.76265 2.76478-4.76051 1.4112-5.32119 0-5.32119-1.4112-5.32119-2.76478-4.76051-3.76265-3.76265-4.76051-2.76478-5.32119-1.4112-5.32119 0-5.32119 1.4112-4.76051 2.76478-3.76265 3.76265-2.76478 4.76051-1.4112 5.32119 0 5.32119Z" stroke="#FFFFFF" stroke-width="1.77373" stroke-linejoin="round" fill="#FFFFFF" transform="matrix(1 0 0 1.00167 1552.92 691)"/></g><g><path d="M0 5.32119C1.4112 5.32119 2.76478 4.76051 3.76265 3.76265 4.76051 2.76478 5.32119 1.4112 5.32119 0 5.32119-1.4112 4.76051-2.76478 3.76265-3.76265 2.76478-4.76051 1.4112-5.32119 0-5.32119-1.4112-5.32119-2.76478-4.76051-3.76265-3.76265-4.76051-2.76478-5.32119-1.4112-5.32119 0-5.32119 1.4112-4.76051 2.76478-3.76265 3.76265-2.76478 4.76051-1.4112 5.32119 0 5.32119Z" stroke="#000000" stroke-width="1.77373" stroke-linejoin="round" transform="matrix(1 0 0 1.00167 1522.39 691)"/></g><g><path d="M0 5.32119C1.4112 5.32119 2.76478 4.76051 3.76265 3.76265 4.76051 2.76478 5.32119 1.4112 5.32119 0 5.32119-1.4112 4.76051-2.76478 3.76265-3.76265 2.76478-4.76051 1.4112-5.32119 0-5.32119-1.4112-5.32119-2.76478-4.76051-3.76265-3.76265-4.76051-2.76478-5.32119-1.4112-5.32119 0-5.32119 1.4112-4.76051 2.76478-3.76265 3.76265-2.76478 4.76051-1.4112 5.32119 0 5.32119Z" stroke="#010101" stroke-width="1.77373" stroke-linejoin="round" fill="#010101" transform="matrix(1 0 0 1.00167 1491.87 691)"/></g><g><path d="M0 5.32119C1.4112 5.32119 2.76478 4.76051 3.76265 3.76265 4.76051 2.76478 5.32119 1.4112 5.32119 0 5.32119-1.4112 4.76051-2.76478 3.76265-3.76265 2.76478-4.76051 1.4112-5.32119 0-5.32119-1.4112-5.32119-2.76478-4.76051-3.76265-3.76265-4.76051-2.76478-5.32119-1.4112-5.32119 0-5.32119 1.4112-4.76051 2.76478-3.76265 3.76265-2.76478 4.76051-1.4112 5.32119 0 5.32119Z" stroke="#020202" stroke-width="1.77373" stroke-linejoin="round" fill="#020202" transform="matrix(1 0 0 1.00167 1736.04 515.055)"/></g><g><path d="M0 5.32119C1.4112 5.32119 2.76478 4.76051 3.76265 3.76265 4.76051 2.76478 5.32119 1.4112 5.32119 0 5.32119-1.4112 4.76051-2.76478 3.76265-3.76265 2.76478-4.76051 1.4112-5.32119 0-5.32119-1.4112-5.32119-2.76478-4.76051-3.76265-3.76265-4.76051-2.76478-5.32119-1.4112-5.32119 0-5.32119 1.4112-4.76051 2.76478-3.76265 3.76265-2.76478 4.76051-1.4112 5.32119 0 5.32119Z" stroke="#626262" stroke-width="1.77373" stroke-linejoin="round" fill="#626262" transform="matrix(1 0 0 1.00167 1705.52 515.055)"/></g><g><path d="M0 5.32119C1.4112 5.32119 2.76478 4.76051 3.76265 3.76265 4.76051 2.76478 5.32119 1.4112 5.32119 0 5.32119-1.4112 4.76051-2.76478 3.76265-3.76265 2.76478-4.76051 1.4112-5.32119 0-5.32119-1.4112-5.32119-2.76478-4.76051-3.76265-3.76265-4.76051-2.76478-5.32119-1.4112-5.32119 0-5.32119 1.4112-4.76051 2.76478-3.76265 3.76265-2.76478 4.76051-1.4112 5.32119 0 5.32119Z" stroke="#040404" stroke-width="1.77373" stroke-linejoin="round" fill="#040404" transform="matrix(1 0 0 1.00167 1675 515.055)"/></g><g><path d="M0 5.32119C1.4112 5.32119 2.76478 4.76051 3.76265 3.76265 4.76051 2.76478 5.32119 1.4112 5.32119 0 5.32119-1.4112 4.76051-2.76478 3.76265-3.76265 2.76478-4.76051 1.4112-5.32119 0-5.32119-1.4112-5.32119-2.76478-4.76051-3.76265-3.76265-4.76051-2.76478-5.32119-1.4112-5.32119 0-5.32119 1.4112-4.76051 2.76478-3.76265 3.76265-2.76478 4.76051-1.4112 5.32119 0 5.32119Z" stroke="#898989" stroke-width="1.77373" stroke-linejoin="round" fill="#898989" transform="matrix(1 0 0 1.00167 1644.48 515.055)"/></g><g><path d="M0 5.32119C1.4112 5.32119 2.76478 4.76051 3.76265 3.76265 4.76051 2.76478 5.32119 1.4112 5.32119 0 5.32119-1.4112 4.76051-2.76478 3.76265-3.76265 2.76478-4.76051 1.4112-5.32119 0-5.32119-1.4112-5.32119-2.76478-4.76051-3.76265-3.76265-4.76051-2.76478-5.32119-1.4112-5.32119 0-5.32119 1.4112-4.76051 2.76478-3.76265 3.76265-2.76478 4.76051-1.4112 5.32119 0 5.32119Z" stroke="#000000" stroke-width="1.77373" stroke-linejoin="round" transform="matrix(1 0 0 1.00167 1613.96 515.055)"/></g></g></g></g><g><g><g><path d="M0 393.342 395.896 393.342 395.896 0 0 0Z" stroke="#000000" stroke-width="1.77373" stroke-linejoin="round" fill="#FFFFFF" transform="matrix(1 0 0 1.00167 3177.05 498)"/><g><path d="M0 393.342 395.896 393.342 395.896 0 0 0Z" stroke="#000000" stroke-width="1.77373" stroke-linejoin="round" transform="matrix(1 0 0 1.00167 3177.05 498)"/></g><g><path d="M0 5.32119C1.4112 5.32119 2.76478 4.76051 3.76265 3.76265 4.76051 2.76478 5.32119 1.4112 5.32119 0 5.32119-1.4112 4.76051-2.76478 3.76265-3.76265 2.76478-4.76051 1.4112-5.32119 0-5.32119-1.4112-5.32119-2.76478-4.76051-3.76265-3.76265-4.76051-2.76478-5.32119-1.4112-5.32119 0-5.32119 1.4112-4.76051 2.76478-3.76265 3.76265-2.76478 4.76051-1.4112 5.32119 0 5.32119Z" stroke="#000000" stroke-width="1.77373" stroke-linejoin="round" fill="#090909" transform="matrix(1 0 0 1.00167 3458.52 525.224)"/></g><g><path d="M0 5.32119C1.4112 5.32119 2.76478 4.76051 3.76265 3.76265 4.76051 2.76478 5.32119 1.4112 5.32119 0 5.32119-1.4112 4.76051-2.76478 3.76265-3.76265 2.76478-4.76051 1.4112-5.32119 0-5.32119-1.4112-5.32119-2.76478-4.76051-3.76265-3.76265-4.76051-2.76478-5.32119-1.4112-5.32119 0-5.32119 1.4112-4.76051 2.76478-3.76265 3.76265-2.76478 4.76051-1.4112 5.32119 0 5.32119Z" stroke="#000000" stroke-width="1.77373" stroke-linejoin="round" fill="#030303" transform="matrix(1 0 0 1.00167 3416.76 525.224)"/></g><g><path d="M0 5.32119C1.4112 5.32119 2.76478 4.76051 3.76265 3.76265 4.76051 2.76478 5.32119 1.4112 5.32119 0 5.32119-1.4112 4.76051-2.76478 3.76265-3.76265 2.76478-4.76051 1.4112-5.32119 0-5.32119-1.4112-5.32119-2.76478-4.76051-3.76265-3.76265-4.76051-2.76478-5.32119-1.4112-5.32119 0-5.32119 1.4112-4.76051 2.76478-3.76265 3.76265-2.76478 4.76051-1.4112 5.32119 0 5.32119Z" stroke="#000000" stroke-width="1.77373" stroke-linejoin="round" fill="#030303" transform="matrix(1 0 0 1.00167 3375 525.224)"/></g><g><path d="M0 5.32119C1.4112 5.32119 2.76478 4.76051 3.76265 3.76265 4.76051 2.76478 5.32119 1.4112 5.32119 0 5.32119-1.4112 4.76051-2.76478 3.76265-3.76265 2.76478-4.76051 1.4112-5.32119 0-5.32119-1.4112-5.32119-2.76478-4.76051-3.76265-3.76265-4.76051-2.76478-5.32119-1.4112-5.32119 0-5.32119 1.4112-4.76051 2.76478-3.76265 3.76265-2.76478 4.76051-1.4112 5.32119 0 5.32119Z" stroke="#000000" stroke-width="1.77373" stroke-linejoin="round" fill="#030303" transform="matrix(1 0 0 1.00167 3333.24 525.224)"/></g><g><path d="M0 5.32119C1.4112 5.32119 2.76478 4.76051 3.76265 3.76265 4.76051 2.76478 5.32119 1.4112 5.32119 0 5.32119-1.4112 4.76051-2.76478 3.76265-3.76265 2.76478-4.76051 1.4112-5.32119 0-5.32119-1.4112-5.32119-2.76478-4.76051-3.76265-3.76265-4.76051-2.76478-5.32119-1.4112-5.32119 0-5.32119 1.4112-4.76051 2.76478-3.76265 3.76265-2.76478 4.76051-1.4112 5.32119 0 5.32119Z" stroke="#000000" stroke-width="1.77373" stroke-linejoin="round" fill="#090909" transform="matrix(1 0 0 1.00167 3291.48 525.224)"/></g><g><path d="M0 5.32119C1.4112 5.32119 2.76478 4.76051 3.76265 3.76265 4.76051 2.76478 5.32119 1.4112 5.32119 0 5.32119-1.4112 4.76051-2.76478 3.76265-3.76265 2.76478-4.76051 1.4112-5.32119 0-5.32119-1.4112-5.32119-2.76478-4.76051-3.76265-3.76265-4.76051-2.76478-5.32119-1.4112-5.32119 0-5.32119 1.4112-4.76051 2.76478-3.76265 3.76265-2.76478 4.76051-1.4112 5.32119 0 5.32119Z" stroke="#000000" stroke-width="1.77373" stroke-linejoin="round" fill="#161616" transform="matrix(1 0 0 1.00167 3500.27 581.816)"/></g><g><path d="M0 5.32119C1.4112 5.32119 2.76478 4.76051 3.76265 3.76265 4.76051 2.76478 5.32119 1.4112 5.32119 0 5.32119-1.4112 4.76051-2.76478 3.76265-3.76265 2.76478-4.76051 1.4112-5.32119 0-5.32119-1.4112-5.32119-2.76478-4.76051-3.76265-3.76265-4.76051-2.76478-5.32119-1.4112-5.32119 0-5.32119 1.4112-4.76051 2.76478-3.76265 3.76265-2.76478 4.76051-1.4112 5.32119 0 5.32119Z" stroke="#000000" stroke-width="1.77373" stroke-linejoin="round" fill="#3D3D3D" transform="matrix(1 0 0 1.00167 3458.52 581.816)"/></g><g><path d="M0 5.32119C1.4112 5.32119 2.76478 4.76051 3.76265 3.76265 4.76051 2.76478 5.32119 1.4112 5.32119 0 5.32119-1.4112 4.76051-2.76478 3.76265-3.76265 2.76478-4.76051 1.4112-5.32119 0-5.32119-1.4112-5.32119-2.76478-4.76051-3.76265-3.76265-4.76051-2.76478-5.32119-1.4112-5.32119 0-5.32119 1.4112-4.76051 2.76478-3.76265 3.76265-2.76478 4.76051-1.4112 5.32119 0 5.32119Z" stroke="#000000" stroke-width="1.77373" stroke-linejoin="round" fill="#101010" transform="matrix(1 0 0 1.00167 3416.76 581.816)"/></g><g><path d="M0 5.32119C1.4112 5.32119 2.76478 4.76051 3.76265 3.76265 4.76051 2.76478 5.32119 1.4112 5.32119 0 5.32119-1.4112 4.76051-2.76478 3.76265-3.76265 2.76478-4.76051 1.4112-5.32119 0-5.32119-1.4112-5.32119-2.76478-4.76051-3.76265-3.76265-4.76051-2.76478-5.32119-1.4112-5.32119 0-5.32119 1.4112-4.76051 2.76478-3.76265 3.76265-2.76478 4.76051-1.4112 5.32119 0 5.32119Z" stroke="#000000" stroke-width="1.77373" stroke-linejoin="round" fill="#5C5C5C" transform="matrix(1 0 0 1.00167 3375 581.816)"/></g><g><path d="M0 5.32119C1.4112 5.32119 2.76478 4.76051 3.76265 3.76265 4.76051 2.76478 5.32119 1.4112 5.32119 0 5.32119-1.4112 4.76051-2.76478 3.76265-3.76265 2.76478-4.76051 1.4112-5.32119 0-5.32119-1.4112-5.32119-2.76478-4.76051-3.76265-3.76265-4.76051-2.76478-5.32119-1.4112-5.32119 0-5.32119 1.4112-4.76051 2.76478-3.76265 3.76265-2.76478 4.76051-1.4112 5.32119 0 5.32119Z" stroke="#000000" stroke-width="1.77373" stroke-linejoin="round" fill="#101010" transform="matrix(1 0 0 1.00167 3333.24 581.816)"/></g><g><path d="M0 5.32119C1.4112 5.32119 2.76478 4.76051 3.76265 3.76265 4.76051 2.76478 5.32119 1.4112 5.32119 0 5.32119-1.4112 4.76051-2.76478 3.76265-3.76265 2.76478-4.76051 1.4112-5.32119 0-5.32119-1.4112-5.32119-2.76478-4.76051-3.76265-3.76265-4.76051-2.76478-5.32119-1.4112-5.32119 0-5.32119 1.4112-4.76051 2.76478-3.76265 3.76265-2.76478 4.76051-1.4112 5.32119 0 5.32119Z" stroke="#000000" stroke-width="1.77373" stroke-linejoin="round" fill="#3D3D3D" transform="matrix(1 0 0 1.00167 3291.48 581.816)"/></g><g><path d="M0 5.32119C1.4112 5.32119 2.76478 4.76051 3.76265 3.76265 4.76051 2.76478 5.32119 1.4112 5.32119 0 5.32119-1.4112 4.76051-2.76478 3.76265-3.76265 2.76478-4.76051 1.4112-5.32119 0-5.32119-1.4112-5.32119-2.76478-4.76051-3.76265-3.76265-4.76051-2.76478-5.32119-1.4112-5.32119 0-5.32119 1.4112-4.76051 2.76478-3.76265 3.76265-2.76478 4.76051-1.4112 5.32119 0 5.32119Z" stroke="#000000" stroke-width="1.77373" stroke-linejoin="round" fill="#161616" transform="matrix(1 0 0 1.00167 3249.73 581.816)"/></g><g><path d="M0 5.32119C1.4112 5.32119 2.76478 4.76051 3.76265 3.76265 4.76051 2.76478 5.32119 1.4112 5.32119 0 5.32119-1.4112 4.76051-2.76478 3.76265-3.76265 2.76478-4.76051 1.4112-5.32119 0-5.32119-1.4112-5.32119-2.76478-4.76051-3.76265-3.76265-4.76051-2.76478-5.32119-1.4112-5.32119 0-5.32119 1.4112-4.76051 2.76478-3.76265 3.76265-2.76478 4.76051-1.4112 5.32119 0 5.32119Z" stroke="#000000" stroke-width="1.77373" stroke-linejoin="round" fill="#010101" transform="matrix(1 0 0 1.00167 3542.03 638.408)"/></g><g><path d="M0 5.32119C1.4112 5.32119 2.76478 4.76051 3.76265 3.76265 4.76051 2.76478 5.32119 1.4112 5.32119 0 5.32119-1.4112 4.76051-2.76478 3.76265-3.76265 2.76478-4.76051 1.4112-5.32119 0-5.32119-1.4112-5.32119-2.76478-4.76051-3.76265-3.76265-4.76051-2.76478-5.32119-1.4112-5.32119 0-5.32119 1.4112-4.76051 2.76478-3.76265 3.76265-2.76478 4.76051-1.4112 5.32119 0 5.32119Z" stroke="#000000" stroke-width="1.77373" stroke-linejoin="round" fill="#727272" transform="matrix(1 0 0 1.00167 3500.27 638.408)"/></g><g><path d="M0 5.32119C1.4112 5.32119 2.76478 4.76051 3.76265 3.76265 4.76051 2.76478 5.32119 1.4112 5.32119 0 5.32119-1.4112 4.76051-2.76478 3.76265-3.76265 2.76478-4.76051 1.4112-5.32119 0-5.32119-1.4112-5.32119-2.76478-4.76051-3.76265-3.76265-4.76051-2.76478-5.32119-1.4112-5.32119 0-5.32119 1.4112-4.76051 2.76478-3.76265 3.76265-2.76478 4.76051-1.4112 5.32119 0 5.32119Z" stroke="#000000" stroke-width="1.77373" stroke-linejoin="round" fill="#858585" transform="matrix(1 0 0 1.00167 3458.52 638.408)"/></g><g><path d="M0 5.32119C1.4112 5.32119 2.76478 4.76051 3.76265 3.76265 4.76051 2.76478 5.32119 1.4112 5.32119 0 5.32119-1.4112 4.76051-2.76478 3.76265-3.76265 2.76478-4.76051 1.4112-5.32119 0-5.32119-1.4112-5.32119-2.76478-4.76051-3.76265-3.76265-4.76051-2.76478-5.32119-1.4112-5.32119 0-5.32119 1.4112-4.76051 2.76478-3.76265 3.76265-2.76478 4.76051-1.4112 5.32119 0 5.32119Z" stroke="#000000" stroke-width="1.77373" stroke-linejoin="round" fill="#777777" transform="matrix(1 0 0 1.00167 3416.76 638.408)"/></g><g><path d="M0 5.32119C1.4112 5.32119 2.76478 4.76051 3.76265 3.76265 4.76051 2.76478 5.32119 1.4112 5.32119 0 5.32119-1.4112 4.76051-2.76478 3.76265-3.76265 2.76478-4.76051 1.4112-5.32119 0-5.32119-1.4112-5.32119-2.76478-4.76051-3.76265-3.76265-4.76051-2.76478-5.32119-1.4112-5.32119 0-5.32119 1.4112-4.76051 2.76478-3.76265 3.76265-2.76478 4.76051-1.4112 5.32119 0 5.32119Z" stroke="#000000" stroke-width="1.77373" stroke-linejoin="round" fill="#8C8C8C" transform="matrix(1 0 0 1.00167 3375 638.408)"/></g><g><path d="M0 5.32119C1.4112 5.32119 2.76478 4.76051 3.76265 3.76265 4.76051 2.76478 5.32119 1.4112 5.32119 0 5.32119-1.4112 4.76051-2.76478 3.76265-3.76265 2.76478-4.76051 1.4112-5.32119 0-5.32119-1.4112-5.32119-2.76478-4.76051-3.76265-3.76265-4.76051-2.76478-5.32119-1.4112-5.32119 0-5.32119 1.4112-4.76051 2.76478-3.76265 3.76265-2.76478 4.76051-1.4112 5.32119 0 5.32119Z" stroke="#000000" stroke-width="1.77373" stroke-linejoin="round" fill="#777777" transform="matrix(1 0 0 1.00167 3333.24 638.408)"/></g><g><path d="M0 5.32119C1.4112 5.32119 2.76478 4.76051 3.76265 3.76265 4.76051 2.76478 5.32119 1.4112 5.32119 0 5.32119-1.4112 4.76051-2.76478 3.76265-3.76265 2.76478-4.76051 1.4112-5.32119 0-5.32119-1.4112-5.32119-2.76478-4.76051-3.76265-3.76265-4.76051-2.76478-5.32119-1.4112-5.32119 0-5.32119 1.4112-4.76051 2.76478-3.76265 3.76265-2.76478 4.76051-1.4112 5.32119 0 5.32119Z" stroke="#000000" stroke-width="1.77373" stroke-linejoin="round" fill="#858585" transform="matrix(1 0 0 1.00167 3291.48 638.408)"/></g><g><path d="M0 5.32119C1.4112 5.32119 2.76478 4.76051 3.76265 3.76265 4.76051 2.76478 5.32119 1.4112 5.32119 0 5.32119-1.4112 4.76051-2.76478 3.76265-3.76265 2.76478-4.76051 1.4112-5.32119 0-5.32119-1.4112-5.32119-2.76478-4.76051-3.76265-3.76265-4.76051-2.76478-5.32119-1.4112-5.32119 0-5.32119 1.4112-4.76051 2.76478-3.76265 3.76265-2.76478 4.76051-1.4112 5.32119 0 5.32119Z" stroke="#000000" stroke-width="1.77373" stroke-linejoin="round" fill="#727272" transform="matrix(1 0 0 1.00167 3249.73 638.408)"/></g><g><path d="M0 5.32119C1.4112 5.32119 2.76478 4.76051 3.76265 3.76265 4.76051 2.76478 5.32119 1.4112 5.32119 0 5.32119-1.4112 4.76051-2.76478 3.76265-3.76265 2.76478-4.76051 1.4112-5.32119 0-5.32119-1.4112-5.32119-2.76478-4.76051-3.76265-3.76265-4.76051-2.76478-5.32119-1.4112-5.32119 0-5.32119 1.4112-4.76051 2.76478-3.76265 3.76265-2.76478 4.76051-1.4112 5.32119 0 5.32119Z" stroke="#000000" stroke-width="1.77373" stroke-linejoin="round" fill="#010101" transform="matrix(1 0 0 1.00167 3207.97 638.408)"/></g><g><path d="M0 5.32119C1.4112 5.32119 2.76478 4.76051 3.76265 3.76265 4.76051 2.76478 5.32119 1.4112 5.32119 0 5.32119-1.4112 4.76051-2.76478 3.76265-3.76265 2.76478-4.76051 1.4112-5.32119 0-5.32119-1.4112-5.32119-2.76478-4.76051-3.76265-3.76265-4.76051-2.76478-5.32119-1.4112-5.32119 0-5.32119 1.4112-4.76051 2.76478-3.76265 3.76265-2.76478 4.76051-1.4112 5.32119 0 5.32119Z" stroke="#000000" stroke-width="1.77373" stroke-linejoin="round" fill="#212121" transform="matrix(1 0 0 1.00167 3542.03 695)"/></g><g><path d="M0 5.32119C1.4112 5.32119 2.76478 4.76051 3.76265 3.76265 4.76051 2.76478 5.32119 1.4112 5.32119 0 5.32119-1.4112 4.76051-2.76478 3.76265-3.76265 2.76478-4.76051 1.4112-5.32119 0-5.32119-1.4112-5.32119-2.76478-4.76051-3.76265-3.76265-4.76051-2.76478-5.32119-1.4112-5.32119 0-5.32119 1.4112-4.76051 2.76478-3.76265 3.76265-2.76478 4.76051-1.4112 5.32119 0 5.32119Z" stroke="#000000" stroke-width="1.77373" stroke-linejoin="round" fill="#FFFFFF" transform="matrix(1 0 0 1.00167 3500.27 695)"/></g><g><path d="M0 5.32119C1.4112 5.32119 2.76478 4.76051 3.76265 3.76265 4.76051 2.76478 5.32119 1.4112 5.32119 0 5.32119-1.4112 4.76051-2.76478 3.76265-3.76265 2.76478-4.76051 1.4112-5.32119 0-5.32119-1.4112-5.32119-2.76478-4.76051-3.76265-3.76265-4.76051-2.76478-5.32119-1.4112-5.32119 0-5.32119 1.4112-4.76051 2.76478-3.76265 3.76265-2.76478 4.76051-1.4112 5.32119 0 5.32119Z" stroke="#000000" stroke-width="1.77373" stroke-linejoin="round" fill="#4C4C4C" transform="matrix(1 0 0 1.00167 3458.52 695)"/></g><g><path d="M0 5.32119C1.4112 5.32119 2.76478 4.76051 3.76265 3.76265 4.76051 2.76478 5.32119 1.4112 5.32119 0 5.32119-1.4112 4.76051-2.76478 3.76265-3.76265 2.76478-4.76051 1.4112-5.32119 0-5.32119-1.4112-5.32119-2.76478-4.76051-3.76265-3.76265-4.76051-2.76478-5.32119-1.4112-5.32119 0-5.32119 1.4112-4.76051 2.76478-3.76265 3.76265-2.76478 4.76051-1.4112 5.32119 0 5.32119Z" stroke="#000000" stroke-width="1.77373" stroke-linejoin="round" fill="#070707" transform="matrix(1 0 0 1.00167 3416.76 695)"/></g><g><path d="M0 5.32119C1.4112 5.32119 2.76478 4.76051 3.76265 3.76265 4.76051 2.76478 5.32119 1.4112 5.32119 0 5.32119-1.4112 4.76051-2.76478 3.76265-3.76265 2.76478-4.76051 1.4112-5.32119 0-5.32119-1.4112-5.32119-2.76478-4.76051-3.76265-3.76265-4.76051-2.76478-5.32119-1.4112-5.32119 0-5.32119 1.4112-4.76051 2.76478-3.76265 3.76265-2.76478 4.76051-1.4112 5.32119 0 5.32119Z" stroke="#000000" stroke-width="1.77373" stroke-linejoin="round" fill="#070707" transform="matrix(1 0 0 1.00167 3333.24 695)"/></g><g><path d="M0 5.32119C1.4112 5.32119 2.76478 4.76051 3.76265 3.76265 4.76051 2.76478 5.32119 1.4112 5.32119 0 5.32119-1.4112 4.76051-2.76478 3.76265-3.76265 2.76478-4.76051 1.4112-5.32119 0-5.32119-1.4112-5.32119-2.76478-4.76051-3.76265-3.76265-4.76051-2.76478-5.32119-1.4112-5.32119 0-5.32119 1.4112-4.76051 2.76478-3.76265 3.76265-2.76478 4.76051-1.4112 5.32119 0 5.32119Z" stroke="#000000" stroke-width="1.77373" stroke-linejoin="round" fill="#4C4C4C" transform="matrix(1 0 0 1.00167 3291.48 695)"/></g><g><path d="M0 5.32119C1.4112 5.32119 2.76478 4.76051 3.76265 3.76265 4.76051 2.76478 5.32119 1.4112 5.32119 0 5.32119-1.4112 4.76051-2.76478 3.76265-3.76265 2.76478-4.76051 1.4112-5.32119 0-5.32119-1.4112-5.32119-2.76478-4.76051-3.76265-3.76265-4.76051-2.76478-5.32119-1.4112-5.32119 0-5.32119 1.4112-4.76051 2.76478-3.76265 3.76265-2.76478 4.76051-1.4112 5.32119 0 5.32119Z" stroke="#000000" stroke-width="1.77373" stroke-linejoin="round" fill="#FFFFFF" transform="matrix(1 0 0 1.00167 3249.73 695)"/></g><g><path d="M0 5.32119C1.4112 5.32119 2.76478 4.76051 3.76265 3.76265 4.76051 2.76478 5.32119 1.4112 5.32119 0 5.32119-1.4112 4.76051-2.76478 3.76265-3.76265 2.76478-4.76051 1.4112-5.32119 0-5.32119-1.4112-5.32119-2.76478-4.76051-3.76265-3.76265-4.76051-2.76478-5.32119-1.4112-5.32119 0-5.32119 1.4112-4.76051 2.76478-3.76265 3.76265-2.76478 4.76051-1.4112 5.32119 0 5.32119Z" stroke="#000000" stroke-width="1.77373" stroke-linejoin="round" fill="#212121" transform="matrix(1 0 0 1.00167 3207.97 695)"/></g><g><path d="M0 5.32119C1.4112 5.32119 2.76478 4.76051 3.76265 3.76265 4.76051 2.76478 5.32119 1.4112 5.32119 0 5.32119-1.4112 4.76051-2.76478 3.76265-3.76265 2.76478-4.76051 1.4112-5.32119 0-5.32119-1.4112-5.32119-2.76478-4.76051-3.76265-3.76265-4.76051-2.76478-5.32119-1.4112-5.32119 0-5.32119 1.4112-4.76051 2.76478-3.76265 3.76265-2.76478 4.76051-1.4112 5.32119 0 5.32119Z" stroke="#000000" stroke-width="1.77373" stroke-linejoin="round" fill="#010101" transform="matrix(1 0 0 1.00167 3542.03 751.591)"/></g><g><path d="M0 5.32119C1.4112 5.32119 2.76478 4.76051 3.76265 3.76265 4.76051 2.76478 5.32119 1.4112 5.32119 0 5.32119-1.4112 4.76051-2.76478 3.76265-3.76265 2.76478-4.76051 1.4112-5.32119 0-5.32119-1.4112-5.32119-2.76478-4.76051-3.76265-3.76265-4.76051-2.76478-5.32119-1.4112-5.32119 0-5.32119 1.4112-4.76051 2.76478-3.76265 3.76265-2.76478 4.76051-1.4112 5.32119 0 5.32119Z" stroke="#000000" stroke-width="1.77373" stroke-linejoin="round" fill="#727272" transform="matrix(1 0 0 1.00167 3500.27 751.591)"/></g><g><path d="M0 5.32119C1.4112 5.32119 2.76478 4.76051 3.76265 3.76265 4.76051 2.76478 5.32119 1.4112 5.32119 0 5.32119-1.4112 4.76051-2.76478 3.76265-3.76265 2.76478-4.76051 1.4112-5.32119 0-5.32119-1.4112-5.32119-2.76478-4.76051-3.76265-3.76265-4.76051-2.76478-5.32119-1.4112-5.32119 0-5.32119 1.4112-4.76051 2.76478-3.76265 3.76265-2.76478 4.76051-1.4112 5.32119 0 5.32119Z" stroke="#000000" stroke-width="1.77373" stroke-linejoin="round" fill="#858585" transform="matrix(1 0 0 1.00167 3458.52 751.591)"/></g><g><path d="M0 5.32119C1.4112 5.32119 2.76478 4.76051 3.76265 3.76265 4.76051 2.76478 5.32119 1.4112 5.32119 0 5.32119-1.4112 4.76051-2.76478 3.76265-3.76265 2.76478-4.76051 1.4112-5.32119 0-5.32119-1.4112-5.32119-2.76478-4.76051-3.76265-3.76265-4.76051-2.76478-5.32119-1.4112-5.32119 0-5.32119 1.4112-4.76051 2.76478-3.76265 3.76265-2.76478 4.76051-1.4112 5.32119 0 5.32119Z" stroke="#000000" stroke-width="1.77373" stroke-linejoin="round" fill="#777777" transform="matrix(1 0 0 1.00167 3416.76 751.591)"/></g><g><path d="M0 5.32119C1.4112 5.32119 2.76478 4.76051 3.76265 3.76265 4.76051 2.76478 5.32119 1.4112 5.32119 0 5.32119-1.4112 4.76051-2.76478 3.76265-3.76265 2.76478-4.76051 1.4112-5.32119 0-5.32119-1.4112-5.32119-2.76478-4.76051-3.76265-3.76265-4.76051-2.76478-5.32119-1.4112-5.32119 0-5.32119 1.4112-4.76051 2.76478-3.76265 3.76265-2.76478 4.76051-1.4112 5.32119 0 5.32119Z" stroke="#000000" stroke-width="1.77373" stroke-linejoin="round" fill="#8C8C8C" transform="matrix(1 0 0 1.00167 3375 751.591)"/></g><g><path d="M0 5.32119C1.4112 5.32119 2.76478 4.76051 3.76265 3.76265 4.76051 2.76478 5.32119 1.4112 5.32119 0 5.32119-1.4112 4.76051-2.76478 3.76265-3.76265 2.76478-4.76051 1.4112-5.32119 0-5.32119-1.4112-5.32119-2.76478-4.76051-3.76265-3.76265-4.76051-2.76478-5.32119-1.4112-5.32119 0-5.32119 1.4112-4.76051 2.76478-3.76265 3.76265-2.76478 4.76051-1.4112 5.32119 0 5.32119Z" stroke="#000000" stroke-width="1.77373" stroke-linejoin="round" fill="#777777" transform="matrix(1 0 0 1.00167 3333.24 751.591)"/></g><g><path d="M0 5.32119C1.4112 5.32119 2.76478 4.76051 3.76265 3.76265 4.76051 2.76478 5.32119 1.4112 5.32119 0 5.32119-1.4112 4.76051-2.76478 3.76265-3.76265 2.76478-4.76051 1.4112-5.32119 0-5.32119-1.4112-5.32119-2.76478-4.76051-3.76265-3.76265-4.76051-2.76478-5.32119-1.4112-5.32119 0-5.32119 1.4112-4.76051 2.76478-3.76265 3.76265-2.76478 4.76051-1.4112 5.32119 0 5.32119Z" stroke="#000000" stroke-width="1.77373" stroke-linejoin="round" fill="#858585" transform="matrix(1 0 0 1.00167 3291.48 751.591)"/></g><g><path d="M0 5.32119C1.4112 5.32119 2.76478 4.76051 3.76265 3.76265 4.76051 2.76478 5.32119 1.4112 5.32119 0 5.32119-1.4112 4.76051-2.76478 3.76265-3.76265 2.76478-4.76051 1.4112-5.32119 0-5.32119-1.4112-5.32119-2.76478-4.76051-3.76265-3.76265-4.76051-2.76478-5.32119-1.4112-5.32119 0-5.32119 1.4112-4.76051 2.76478-3.76265 3.76265-2.76478 4.76051-1.4112 5.32119 0 5.32119Z" stroke="#000000" stroke-width="1.77373" stroke-linejoin="round" fill="#727272" transform="matrix(1 0 0 1.00167 3249.73 751.591)"/></g><g><path d="M0 5.32119C1.4112 5.32119 2.76478 4.76051 3.76265 3.76265 4.76051 2.76478 5.32119 1.4112 5.32119 0 5.32119-1.4112 4.76051-2.76478 3.76265-3.76265 2.76478-4.76051 1.4112-5.32119 0-5.32119-1.4112-5.32119-2.76478-4.76051-3.76265-3.76265-4.76051-2.76478-5.32119-1.4112-5.32119 0-5.32119 1.4112-4.76051 2.76478-3.76265 3.76265-2.76478 4.76051-1.4112 5.32119 0 5.32119Z" stroke="#000000" stroke-width="1.77373" stroke-linejoin="round" fill="#010101" transform="matrix(1 0 0 1.00167 3207.97 751.591)"/></g><g><path d="M0 5.32119C1.4112 5.32119 2.76478 4.76051 3.76265 3.76265 4.76051 2.76478 5.32119 1.4112 5.32119 0 5.32119-1.4112 4.76051-2.76478 3.76265-3.76265 2.76478-4.76051 1.4112-5.32119 0-5.32119-1.4112-5.32119-2.76478-4.76051-3.76265-3.76265-4.76051-2.76478-5.32119-1.4112-5.32119 0-5.32119 1.4112-4.76051 2.76478-3.76265 3.76265-2.76478 4.76051-1.4112 5.32119 0 5.32119Z" stroke="#000000" stroke-width="1.77373" stroke-linejoin="round" fill="#161616" transform="matrix(1 0 0 1.00167 3500.27 808.184)"/></g><g><path d="M0 5.32119C1.4112 5.32119 2.76478 4.76051 3.76265 3.76265 4.76051 2.76478 5.32119 1.4112 5.32119 0 5.32119-1.4112 4.76051-2.76478 3.76265-3.76265 2.76478-4.76051 1.4112-5.32119 0-5.32119-1.4112-5.32119-2.76478-4.76051-3.76265-3.76265-4.76051-2.76478-5.32119-1.4112-5.32119 0-5.32119 1.4112-4.76051 2.76478-3.76265 3.76265-2.76478 4.76051-1.4112 5.32119 0 5.32119Z" stroke="#000000" stroke-width="1.77373" stroke-linejoin="round" fill="#3D3D3D" transform="matrix(1 0 0 1.00167 3458.52 808.184)"/></g><g><path d="M0 5.32119C1.4112 5.32119 2.76478 4.76051 3.76265 3.76265 4.76051 2.76478 5.32119 1.4112 5.32119 0 5.32119-1.4112 4.76051-2.76478 3.76265-3.76265 2.76478-4.76051 1.4112-5.32119 0-5.32119-1.4112-5.32119-2.76478-4.76051-3.76265-3.76265-4.76051-2.76478-5.32119-1.4112-5.32119 0-5.32119 1.4112-4.76051 2.76478-3.76265 3.76265-2.76478 4.76051-1.4112 5.32119 0 5.32119Z" stroke="#000000" stroke-width="1.77373" stroke-linejoin="round" fill="#101010" transform="matrix(1 0 0 1.00167 3416.76 808.184)"/></g><g><path d="M0 5.32119C1.4112 5.32119 2.76478 4.76051 3.76265 3.76265 4.76051 2.76478 5.32119 1.4112 5.32119 0 5.32119-1.4112 4.76051-2.76478 3.76265-3.76265 2.76478-4.76051 1.4112-5.32119 0-5.32119-1.4112-5.32119-2.76478-4.76051-3.76265-3.76265-4.76051-2.76478-5.32119-1.4112-5.32119 0-5.32119 1.4112-4.76051 2.76478-3.76265 3.76265-2.76478 4.76051-1.4112 5.32119 0 5.32119Z" stroke="#000000" stroke-width="1.77373" stroke-linejoin="round" fill="#5C5C5C" transform="matrix(1 0 0 1.00167 3375 808.184)"/></g><g><path d="M0 5.32119C1.4112 5.32119 2.76478 4.76051 3.76265 3.76265 4.76051 2.76478 5.32119 1.4112 5.32119 0 5.32119-1.4112 4.76051-2.76478 3.76265-3.76265 2.76478-4.76051 1.4112-5.32119 0-5.32119-1.4112-5.32119-2.76478-4.76051-3.76265-3.76265-4.76051-2.76478-5.32119-1.4112-5.32119 0-5.32119 1.4112-4.76051 2.76478-3.76265 3.76265-2.76478 4.76051-1.4112 5.32119 0 5.32119Z" stroke="#000000" stroke-width="1.77373" stroke-linejoin="round" fill="#101010" transform="matrix(1 0 0 1.00167 3333.24 808.184)"/></g><g><path d="M0 5.32119C1.4112 5.32119 2.76478 4.76051 3.76265 3.76265 4.76051 2.76478 5.32119 1.4112 5.32119 0 5.32119-1.4112 4.76051-2.76478 3.76265-3.76265 2.76478-4.76051 1.4112-5.32119 0-5.32119-1.4112-5.32119-2.76478-4.76051-3.76265-3.76265-4.76051-2.76478-5.32119-1.4112-5.32119 0-5.32119 1.4112-4.76051 2.76478-3.76265 3.76265-2.76478 4.76051-1.4112 5.32119 0 5.32119Z" stroke="#000000" stroke-width="1.77373" stroke-linejoin="round" fill="#3D3D3D" transform="matrix(1 0 0 1.00167 3291.48 808.184)"/></g><g><path d="M0 5.32119C1.4112 5.32119 2.76478 4.76051 3.76265 3.76265 4.76051 2.76478 5.32119 1.4112 5.32119 0 5.32119-1.4112 4.76051-2.76478 3.76265-3.76265 2.76478-4.76051 1.4112-5.32119 0-5.32119-1.4112-5.32119-2.76478-4.76051-3.76265-3.76265-4.76051-2.76478-5.32119-1.4112-5.32119 0-5.32119 1.4112-4.76051 2.76478-3.76265 3.76265-2.76478 4.76051-1.4112 5.32119 0 5.32119Z" stroke="#000000" stroke-width="1.77373" stroke-linejoin="round" fill="#161616" transform="matrix(1 0 0 1.00167 3249.73 808.184)"/></g><g><path d="M0 5.32119C1.4112 5.32119 2.76478 4.76051 3.76265 3.76265 4.76051 2.76478 5.32119 1.4112 5.32119 0 5.32119-1.4112 4.76051-2.76478 3.76265-3.76265 2.76478-4.76051 1.4112-5.32119 0-5.32119-1.4112-5.32119-2.76478-4.76051-3.76265-3.76265-4.76051-2.76478-5.32119-1.4112-5.32119 0-5.32119 1.4112-4.76051 2.76478-3.76265 3.76265-2.76478 4.76051-1.4112 5.32119 0 5.32119Z" stroke="#000000" stroke-width="1.77373" stroke-linejoin="round" fill="#090909" transform="matrix(1 0 0 1.00167 3458.52 864.776)"/></g><g><path d="M0 5.32119C1.4112 5.32119 2.76478 4.76051 3.76265 3.76265 4.76051 2.76478 5.32119 1.4112 5.32119 0 5.32119-1.4112 4.76051-2.76478 3.76265-3.76265 2.76478-4.76051 1.4112-5.32119 0-5.32119-1.4112-5.32119-2.76478-4.76051-3.76265-3.76265-4.76051-2.76478-5.32119-1.4112-5.32119 0-5.32119 1.4112-4.76051 2.76478-3.76265 3.76265-2.76478 4.76051-1.4112 5.32119 0 5.32119Z" stroke="#000000" stroke-width="1.77373" stroke-linejoin="round" fill="#030303" transform="matrix(1 0 0 1.00167 3416.76 864.776)"/></g><g><path d="M0 5.32119C1.4112 5.32119 2.76478 4.76051 3.76265 3.76265 4.76051 2.76478 5.32119 1.4112 5.32119 0 5.32119-1.4112 4.76051-2.76478 3.76265-3.76265 2.76478-4.76051 1.4112-5.32119 0-5.32119-1.4112-5.32119-2.76478-4.76051-3.76265-3.76265-4.76051-2.76478-5.32119-1.4112-5.32119 0-5.32119 1.4112-4.76051 2.76478-3.76265 3.76265-2.76478 4.76051-1.4112 5.32119 0 5.32119Z" stroke="#000000" stroke-width="1.77373" stroke-linejoin="round" fill="#030303" transform="matrix(1 0 0 1.00167 3375 864.776)"/></g><g><path d="M0 5.32119C1.4112 5.32119 2.76478 4.76051 3.76265 3.76265 4.76051 2.76478 5.32119 1.4112 5.32119 0 5.32119-1.4112 4.76051-2.76478 3.76265-3.76265 2.76478-4.76051 1.4112-5.32119 0-5.32119-1.4112-5.32119-2.76478-4.76051-3.76265-3.76265-4.76051-2.76478-5.32119-1.4112-5.32119 0-5.32119 1.4112-4.76051 2.76478-3.76265 3.76265-2.76478 4.76051-1.4112 5.32119 0 5.32119Z" stroke="#000000" stroke-width="1.77373" stroke-linejoin="round" fill="#030303" transform="matrix(1 0 0 1.00167 3333.24 864.776)"/></g><g><path d="M0 5.32119C1.4112 5.32119 2.76478 4.76051 3.76265 3.76265 4.76051 2.76478 5.32119 1.4112 5.32119 0 5.32119-1.4112 4.76051-2.76478 3.76265-3.76265 2.76478-4.76051 1.4112-5.32119 0-5.32119-1.4112-5.32119-2.76478-4.76051-3.76265-3.76265-4.76051-2.76478-5.32119-1.4112-5.32119 0-5.32119 1.4112-4.76051 2.76478-3.76265 3.76265-2.76478 4.76051-1.4112 5.32119 0 5.32119Z" stroke="#000000" stroke-width="1.77373" stroke-linejoin="round" fill="#090909" transform="matrix(1 0 0 1.00167 3291.48 864.776)"/></g></g></g></g><g><g><g><path d="M0 393 395.552 393 395.552 0 0 0Z" fill="#FFFFFF" transform="matrix(1.00087 0 0 1 770.052 494)"/><g><path d="M0 393 395.552 393 395.552 0 0 0Z" transform="matrix(1.00087 0 0 1 770.052 494)"/></g><g><path d="M0 5.31656C1.40997 5.31656 2.76238 4.75637 3.75937 3.75937 4.75637 2.76238 5.31656 1.40997 5.31656 0 5.31656-1.40997 4.75637-2.76238 3.75937-3.75937 2.76238-4.75637 1.40997-5.31656 0-5.31656-1.40997-5.31656-2.76238-4.75637-3.75937-3.75937-4.75637-2.76238-5.31656-1.40997-5.31656 0-5.31656 1.40997-4.75637 2.76238-3.75937 3.75937-2.76238 4.75637-1.40997 5.31656 0 5.31656Z" stroke="#030303" stroke-width="1.77219" stroke-linejoin="round" fill="#030303" transform="matrix(1.00087 0 0 1 1072.69 524.44)"/></g><g><path d="M0 5.31656C1.40997 5.31656 2.76238 4.75637 3.75937 3.75937 4.75637 2.76238 5.31656 1.40997 5.31656 0 5.31656-1.40997 4.75637-2.76238 3.75937-3.75937 2.76238-4.75637 1.40997-5.31656 0-5.31656-1.40997-5.31656-2.76238-4.75637-3.75937-3.75937-4.75637-2.76238-5.31656-1.40997-5.31656 0-5.31656 1.40997-4.75637 2.76238-3.75937 3.75937-2.76238 4.75637-1.40997 5.31656 0 5.31656Z" stroke="#757575" stroke-width="1.77219" stroke-linejoin="round" fill="#757575" transform="matrix(1.00087 0 0 1 1022.17 524.44)"/></g><g><path d="M0 5.31656C1.40997 5.31656 2.76238 4.75637 3.75937 3.75937 4.75637 2.76238 5.31656 1.40997 5.31656 0 5.31656-1.40997 4.75637-2.76238 3.75937-3.75937 2.76238-4.75637 1.40997-5.31656 0-5.31656-1.40997-5.31656-2.76238-4.75637-3.75937-3.75937-4.75637-2.76238-5.31656-1.40997-5.31656 0-5.31656 1.40997-4.75637 2.76238-3.75937 3.75937-2.76238 4.75637-1.40997 5.31656 0 5.31656Z" stroke="#040404" stroke-width="1.77219" stroke-linejoin="round" fill="#040404" transform="matrix(1.00087 0 0 1 971.645 524.44)"/></g><g><path d="M0 5.31656C1.40997 5.31656 2.76238 4.75637 3.75937 3.75937 4.75637 2.76238 5.31656 1.40997 5.31656 0 5.31656-1.40997 4.75637-2.76238 3.75937-3.75937 2.76238-4.75637 1.40997-5.31656 0-5.31656-1.40997-5.31656-2.76238-4.75637-3.75937-3.75937-4.75637-2.76238-5.31656-1.40997-5.31656 0-5.31656 1.40997-4.75637 2.76238-3.75937 3.75937-2.76238 4.75637-1.40997 5.31656 0 5.31656Z" stroke="#757575" stroke-width="1.77219" stroke-linejoin="round" fill="#757575" transform="matrix(1.00087 0 0 1 921.124 524.44)"/></g><g><path d="M0 5.31656C1.40997 5.31656 2.76238 4.75637 3.75937 3.75937 4.75637 2.76238 5.31656 1.40997 5.31656 0 5.31656-1.40997 4.75637-2.76238 3.75937-3.75937 2.76238-4.75637 1.40997-5.31656 0-5.31656-1.40997-5.31656-2.76238-4.75637-3.75937-3.75937-4.75637-2.76238-5.31656-1.40997-5.31656 0-5.31656 1.40997-4.75637 2.76238-3.75937 3.75937-2.76238 4.75637-1.40997 5.31656 0 5.31656Z" stroke="#030303" stroke-width="1.77219" stroke-linejoin="round" fill="#030303" transform="matrix(1.00087 0 0 1 870.602 524.44)"/></g><g><path d="M0 5.31656C1.40997 5.31656 2.76238 4.75637 3.75937 3.75937 4.75637 2.76238 5.31656 1.40997 5.31656 0 5.31656-1.40997 4.75637-2.76238 3.75937-3.75937 2.76238-4.75637 1.40997-5.31656 0-5.31656-1.40997-5.31656-2.76238-4.75637-3.75937-3.75937-4.75637-2.76238-5.31656-1.40997-5.31656 0-5.31656 1.40997-4.75637 2.76238-3.75937 3.75937-2.76238 4.75637-1.40997 5.31656 0 5.31656Z" stroke="#686868" stroke-width="1.77219" stroke-linejoin="round" fill="#686868" transform="matrix(1.00087 0 0 1 1122 579.794)"/></g><g><path d="M0 5.31656C1.40997 5.31656 2.76238 4.75637 3.75937 3.75937 4.75637 2.76238 5.31656 1.40997 5.31656 0 5.31656-1.40997 4.75637-2.76238 3.75937-3.75937 2.76238-4.75637 1.40997-5.31656 0-5.31656-1.40997-5.31656-2.76238-4.75637-3.75937-3.75937-4.75637-2.76238-5.31656-1.40997-5.31656 0-5.31656 1.40997-4.75637 2.76238-3.75937 3.75937-2.76238 4.75637-1.40997 5.31656 0 5.31656Z" stroke="#4D4D4D" stroke-width="1.77219" stroke-linejoin="round" fill="#4D4D4D" transform="matrix(1.00087 0 0 1 1071.47 579.794)"/></g><g><path d="M0 5.31656C1.40997 5.31656 2.76238 4.75637 3.75937 3.75937 4.75637 2.76238 5.31656 1.40997 5.31656 0 5.31656-1.40997 4.75637-2.76238 3.75937-3.75937 2.76238-4.75637 1.40997-5.31656 0-5.31656-1.40997-5.31656-2.76238-4.75637-3.75937-3.75937-4.75637-2.76238-5.31656-1.40997-5.31656 0-5.31656 1.40997-4.75637 2.76238-3.75937 3.75937-2.76238 4.75637-1.40997 5.31656 0 5.31656Z" stroke="#919191" stroke-width="1.77219" stroke-linejoin="round" fill="#919191" transform="matrix(1.00087 0 0 1 1020.95 579.794)"/></g><g><path d="M0 5.31656C1.40997 5.31656 2.76238 4.75637 3.75937 3.75937 4.75637 2.76238 5.31656 1.40997 5.31656 0 5.31656-1.40997 4.75637-2.76238 3.75937-3.75937 2.76238-4.75637 1.40997-5.31656 0-5.31656-1.40997-5.31656-2.76238-4.75637-3.75937-3.75937-4.75637-2.76238-5.31656-1.40997-5.31656 0-5.31656 1.40997-4.75637 2.76238-3.75937 3.75937-2.76238 4.75637-1.40997 5.31656 0 5.31656Z" stroke="#626262" stroke-width="1.77219" stroke-linejoin="round" fill="#626262" transform="matrix(1.00087 0 0 1 970.43 579.794)"/></g><g><path d="M0 5.31656C1.40997 5.31656 2.76238 4.75637 3.75937 3.75937 4.75637 2.76238 5.31656 1.40997 5.31656 0 5.31656-1.40997 4.75637-2.76238 3.75937-3.75937 2.76238-4.75637 1.40997-5.31656 0-5.31656-1.40997-5.31656-2.76238-4.75637-3.75937-3.75937-4.75637-2.76238-5.31656-1.40997-5.31656 0-5.31656 1.40997-4.75637 2.76238-3.75937 3.75937-2.76238 4.75637-1.40997 5.31656 0 5.31656Z" stroke="#919191" stroke-width="1.77219" stroke-linejoin="round" fill="#919191" transform="matrix(1.00087 0 0 1 919.909 579.794)"/></g><g><path d="M0 5.31656C1.40997 5.31656 2.76238 4.75637 3.75937 3.75937 4.75637 2.76238 5.31656 1.40997 5.31656 0 5.31656-1.40997 4.75637-2.76238 3.75937-3.75937 2.76238-4.75637 1.40997-5.31656 0-5.31656-1.40997-5.31656-2.76238-4.75637-3.75937-3.75937-4.75637-2.76238-5.31656-1.40997-5.31656 0-5.31656 1.40997-4.75637 2.76238-3.75937 3.75937-2.76238 4.75637-1.40997 5.31656 0 5.31656Z" stroke="#4D4D4D" stroke-width="1.77219" stroke-linejoin="round" fill="#4D4D4D" transform="matrix(1.00087 0 0 1 869.387 579.794)"/></g><g><path d="M0 5.31656C1.40997 5.31656 2.76238 4.75637 3.75937 3.75937 4.75637 2.76238 5.31656 1.40997 5.31656 0 5.31656-1.40997 4.75637-2.76238 3.75937-3.75937 2.76238-4.75637 1.40997-5.31656 0-5.31656-1.40997-5.31656-2.76238-4.75637-3.75937-3.75937-4.75637-2.76238-5.31656-1.40997-5.31656 0-5.31656 1.40997-4.75637 2.76238-3.75937 3.75937-2.76238 4.75637-1.40997 5.31656 0 5.31656Z" stroke="#686868" stroke-width="1.77219" stroke-linejoin="round" fill="#686868" transform="matrix(1.00087 0 0 1 818.865 579.794)"/></g><g><path d="M0 5.31656C1.40997 5.31656 2.76238 4.75637 3.75937 3.75937 4.75637 2.76238 5.31656 1.40997 5.31656 0 5.31656-1.40997 4.75637-2.76238 3.75937-3.75937 2.76238-4.75637 1.40997-5.31656 0-5.31656-1.40997-5.31656-2.76238-4.75637-3.75937-3.75937-4.75637-2.76238-5.31656-1.40997-5.31656 0-5.31656 1.40997-4.75637 2.76238-3.75937 3.75937-2.76238 4.75637-1.40997 5.31656 0 5.31656Z" stroke="#121212" stroke-width="1.77219" stroke-linejoin="round" fill="#121212" transform="matrix(1.00087 0 0 1 1120.78 635.147)"/></g><g><path d="M0 5.31656C1.40997 5.31656 2.76238 4.75637 3.75937 3.75937 4.75637 2.76238 5.31656 1.40997 5.31656 0 5.31656-1.40997 4.75637-2.76238 3.75937-3.75937 2.76238-4.75637 1.40997-5.31656 0-5.31656-1.40997-5.31656-2.76238-4.75637-3.75937-3.75937-4.75637-2.76238-5.31656-1.40997-5.31656 0-5.31656 1.40997-4.75637 2.76238-3.75937 3.75937-2.76238 4.75637-1.40997 5.31656 0 5.31656Z" stroke="#898989" stroke-width="1.77219" stroke-linejoin="round" fill="#898989" transform="matrix(1.00087 0 0 1 1070.26 635.147)"/></g><g><path d="M0 5.31656C1.40997 5.31656 2.76238 4.75637 3.75937 3.75937 4.75637 2.76238 5.31656 1.40997 5.31656 0 5.31656-1.40997 4.75637-2.76238 3.75937-3.75937 2.76238-4.75637 1.40997-5.31656 0-5.31656-1.40997-5.31656-2.76238-4.75637-3.75937-3.75937-4.75637-2.76238-5.31656-1.40997-5.31656 0-5.31656 1.40997-4.75637 2.76238-3.75937 3.75937-2.76238 4.75637-1.40997 5.31656 0 5.31656Z" stroke="#191919" stroke-width="1.77219" stroke-linejoin="round" fill="#191919" transform="matrix(1.00087 0 0 1 1019.74 635.147)"/></g><g><path d="M0 5.31656C1.40997 5.31656 2.76238 4.75637 3.75937 3.75937 4.75637 2.76238 5.31656 1.40997 5.31656 0 5.31656-1.40997 4.75637-2.76238 3.75937-3.75937 2.76238-4.75637 1.40997-5.31656 0-5.31656-1.40997-5.31656-2.76238-4.75637-3.75937-3.75937-4.75637-2.76238-5.31656-1.40997-5.31656 0-5.31656 1.40997-4.75637 2.76238-3.75937 3.75937-2.76238 4.75637-1.40997 5.31656 0 5.31656Z" stroke="#949494" stroke-width="1.77219" stroke-linejoin="round" fill="#949494" transform="matrix(1.00087 0 0 1 969.215 635.147)"/></g><g><path d="M0 5.31656C1.40997 5.31656 2.76238 4.75637 3.75937 3.75937 4.75637 2.76238 5.31656 1.40997 5.31656 0 5.31656-1.40997 4.75637-2.76238 3.75937-3.75937 2.76238-4.75637 1.40997-5.31656 0-5.31656-1.40997-5.31656-2.76238-4.75637-3.75937-3.75937-4.75637-2.76238-5.31656-1.40997-5.31656 0-5.31656 1.40997-4.75637 2.76238-3.75937 3.75937-2.76238 4.75637-1.40997 5.31656 0 5.31656Z" stroke="#191919" stroke-width="1.77219" stroke-linejoin="round" fill="#191919" transform="matrix(1.00087 0 0 1 918.693 635.147)"/></g><g><path d="M0 5.31656C1.40997 5.31656 2.76238 4.75637 3.75937 3.75937 4.75637 2.76238 5.31656 1.40997 5.31656 0 5.31656-1.40997 4.75637-2.76238 3.75937-3.75937 2.76238-4.75637 1.40997-5.31656 0-5.31656-1.40997-5.31656-2.76238-4.75637-3.75937-3.75937-4.75637-2.76238-5.31656-1.40997-5.31656 0-5.31656 1.40997-4.75637 2.76238-3.75937 3.75937-2.76238 4.75637-1.40997 5.31656 0 5.31656Z" stroke="#898989" stroke-width="1.77219" stroke-linejoin="round" fill="#898989" transform="matrix(1.00087 0 0 1 868.172 635.147)"/></g><g><path d="M0 5.31656C1.40997 5.31656 2.76238 4.75637 3.75937 3.75937 4.75637 2.76238 5.31656 1.40997 5.31656 0 5.31656-1.40997 4.75637-2.76238 3.75937-3.75937 2.76238-4.75637 1.40997-5.31656 0-5.31656-1.40997-5.31656-2.76238-4.75637-3.75937-3.75937-4.75637-2.76238-5.31656-1.40997-5.31656 0-5.31656 1.40997-4.75637 2.76238-3.75937 3.75937-2.76238 4.75637-1.40997 5.31656 0 5.31656Z" stroke="#121212" stroke-width="1.77219" stroke-linejoin="round" fill="#121212" transform="matrix(1.00087 0 0 1 817.65 635.147)"/></g><g><path d="M0 5.31656C1.40997 5.31656 2.76238 4.75637 3.75937 3.75937 4.75637 2.76238 5.31656 1.40997 5.31656 0 5.31656-1.40997 4.75637-2.76238 3.75937-3.75937 2.76238-4.75637 1.40997-5.31656 0-5.31656-1.40997-5.31656-2.76238-4.75637-3.75937-3.75937-4.75637-2.76238-5.31656-1.40997-5.31656 0-5.31656 1.40997-4.75637 2.76238-3.75937 3.75937-2.76238 4.75637-1.40997 5.31656 0 5.31656Z" stroke="#000000" stroke-width="1.77219" stroke-linejoin="round" transform="matrix(1.00087 0 0 1 1119.57 690.5)"/></g><g><path d="M0 5.31656C1.40997 5.31656 2.76238 4.75637 3.75937 3.75937 4.75637 2.76238 5.31656 1.40997 5.31656 0 5.31656-1.40997 4.75637-2.76238 3.75937-3.75937 2.76238-4.75637 1.40997-5.31656 0-5.31656-1.40997-5.31656-2.76238-4.75637-3.75937-3.75937-4.75637-2.76238-5.31656-1.40997-5.31656 0-5.31656 1.40997-4.75637 2.76238-3.75937 3.75937-2.76238 4.75637-1.40997 5.31656 0 5.31656Z" stroke="#FFFFFF" stroke-width="1.77219" stroke-linejoin="round" fill="#FFFFFF" transform="matrix(1.00087 0 0 1 1069.04 690.5)"/></g><g><path d="M0 5.31656C1.40997 5.31656 2.76238 4.75637 3.75937 3.75937 4.75637 2.76238 5.31656 1.40997 5.31656 0 5.31656-1.40997 4.75637-2.76238 3.75937-3.75937 2.76238-4.75637 1.40997-5.31656 0-5.31656-1.40997-5.31656-2.76238-4.75637-3.75937-3.75937-4.75637-2.76238-5.31656-1.40997-5.31656 0-5.31656 1.40997-4.75637 2.76238-3.75937 3.75937-2.76238 4.75637-1.40997 5.31656 0 5.31656Z" stroke="#000000" stroke-width="1.77219" stroke-linejoin="round" transform="matrix(1.00087 0 0 1 1018.52 690.5)"/></g><g><path d="M0 5.31656C1.40997 5.31656 2.76238 4.75637 3.75937 3.75937 4.75637 2.76238 5.31656 1.40997 5.31656 0 5.31656-1.40997 4.75637-2.76238 3.75937-3.75937 2.76238-4.75637 1.40997-5.31656 0-5.31656-1.40997-5.31656-2.76238-4.75637-3.75937-3.75937-4.75637-2.76238-5.31656-1.40997-5.31656 0-5.31656 1.40997-4.75637 2.76238-3.75937 3.75937-2.76238 4.75637-1.40997 5.31656 0 5.31656Z" stroke="#000000" stroke-width="1.77219" stroke-linejoin="round" transform="matrix(1.00087 0 0 1 917.478 690.5)"/></g><g><path d="M0 5.31656C1.40997 5.31656 2.76238 4.75637 3.75937 3.75937 4.75637 2.76238 5.31656 1.40997 5.31656 0 5.31656-1.40997 4.75637-2.76238 3.75937-3.75937 2.76238-4.75637 1.40997-5.31656 0-5.31656-1.40997-5.31656-2.76238-4.75637-3.75937-3.75937-4.75637-2.76238-5.31656-1.40997-5.31656 0-5.31656 1.40997-4.75637 2.76238-3.75937 3.75937-2.76238 4.75637-1.40997 5.31656 0 5.31656Z" stroke="#FFFFFF" stroke-width="1.77219" stroke-linejoin="round" fill="#FFFFFF" transform="matrix(1.00087 0 0 1 866.956 690.5)"/></g><g><path d="M0 5.31656C1.40997 5.31656 2.76238 4.75637 3.75937 3.75937 4.75637 2.76238 5.31656 1.40997 5.31656 0 5.31656-1.40997 4.75637-2.76238 3.75937-3.75937 2.76238-4.75637 1.40997-5.31656 0-5.31656-1.40997-5.31656-2.76238-4.75637-3.75937-3.75937-4.75637-2.76238-5.31656-1.40997-5.31656 0-5.31656 1.40997-4.75637 2.76238-3.75937 3.75937-2.76238 4.75637-1.40997 5.31656 0 5.31656Z" stroke="#000000" stroke-width="1.77219" stroke-linejoin="round" transform="matrix(1.00087 0 0 1 816.434 690.5)"/></g><g><path d="M0 5.31656C1.40997 5.31656 2.76238 4.75637 3.75937 3.75937 4.75637 2.76238 5.31656 1.40997 5.31656 0 5.31656-1.40997 4.75637-2.76238 3.75937-3.75937 2.76238-4.75637 1.40997-5.31656 0-5.31656-1.40997-5.31656-2.76238-4.75637-3.75937-3.75937-4.75637-2.76238-5.31656-1.40997-5.31656 0-5.31656 1.40997-4.75637 2.76238-3.75937 3.75937-2.76238 4.75637-1.40997 5.31656 0 5.31656Z" stroke="#121212" stroke-width="1.77219" stroke-linejoin="round" fill="#121212" transform="matrix(1.00087 0 0 1 1118.35 745.852)"/></g><g><path d="M0 5.31656C1.40997 5.31656 2.76238 4.75637 3.75937 3.75937 4.75637 2.76238 5.31656 1.40997 5.31656 0 5.31656-1.40997 4.75637-2.76238 3.75937-3.75937 2.76238-4.75637 1.40997-5.31656 0-5.31656-1.40997-5.31656-2.76238-4.75637-3.75937-3.75937-4.75637-2.76238-5.31656-1.40997-5.31656 0-5.31656 1.40997-4.75637 2.76238-3.75937 3.75937-2.76238 4.75637-1.40997 5.31656 0 5.31656Z" stroke="#898989" stroke-width="1.77219" stroke-linejoin="round" fill="#898989" transform="matrix(1.00087 0 0 1 1067.83 745.852)"/></g><g><path d="M0 5.31656C1.40997 5.31656 2.76238 4.75637 3.75937 3.75937 4.75637 2.76238 5.31656 1.40997 5.31656 0 5.31656-1.40997 4.75637-2.76238 3.75937-3.75937 2.76238-4.75637 1.40997-5.31656 0-5.31656-1.40997-5.31656-2.76238-4.75637-3.75937-3.75937-4.75637-2.76238-5.31656-1.40997-5.31656 0-5.31656 1.40997-4.75637 2.76238-3.75937 3.75937-2.76238 4.75637-1.40997 5.31656 0 5.31656Z" stroke="#191919" stroke-width="1.77219" stroke-linejoin="round" fill="#191919" transform="matrix(1.00087 0 0 1 1017.31 745.852)"/></g><g><path d="M0 5.31656C1.40997 5.31656 2.76238 4.75637 3.75937 3.75937 4.75637 2.76238 5.31656 1.40997 5.31656 0 5.31656-1.40997 4.75637-2.76238 3.75937-3.75937 2.76238-4.75637 1.40997-5.31656 0-5.31656-1.40997-5.31656-2.76238-4.75637-3.75937-3.75937-4.75637-2.76238-5.31656-1.40997-5.31656 0-5.31656 1.40997-4.75637 2.76238-3.75937 3.75937-2.76238 4.75637-1.40997 5.31656 0 5.31656Z" stroke="#949494" stroke-width="1.77219" stroke-linejoin="round" fill="#949494" transform="matrix(1.00087 0 0 1 966.785 745.852)"/></g><g><path d="M0 5.31656C1.40997 5.31656 2.76238 4.75637 3.75937 3.75937 4.75637 2.76238 5.31656 1.40997 5.31656 0 5.31656-1.40997 4.75637-2.76238 3.75937-3.75937 2.76238-4.75637 1.40997-5.31656 0-5.31656-1.40997-5.31656-2.76238-4.75637-3.75937-3.75937-4.75637-2.76238-5.31656-1.40997-5.31656 0-5.31656 1.40997-4.75637 2.76238-3.75937 3.75937-2.76238 4.75637-1.40997 5.31656 0 5.31656Z" stroke="#191919" stroke-width="1.77219" stroke-linejoin="round" fill="#191919" transform="matrix(1.00087 0 0 1 916.263 745.852)"/></g><g><path d="M0 5.31656C1.40997 5.31656 2.76238 4.75637 3.75937 3.75937 4.75637 2.76238 5.31656 1.40997 5.31656 0 5.31656-1.40997 4.75637-2.76238 3.75937-3.75937 2.76238-4.75637 1.40997-5.31656 0-5.31656-1.40997-5.31656-2.76238-4.75637-3.75937-3.75937-4.75637-2.76238-5.31656-1.40997-5.31656 0-5.31656 1.40997-4.75637 2.76238-3.75937 3.75937-2.76238 4.75637-1.40997 5.31656 0 5.31656Z" stroke="#898989" stroke-width="1.77219" stroke-linejoin="round" fill="#898989" transform="matrix(1.00087 0 0 1 865.741 745.852)"/></g><g><path d="M0 5.31656C1.40997 5.31656 2.76238 4.75637 3.75937 3.75937 4.75637 2.76238 5.31656 1.40997 5.31656 0 5.31656-1.40997 4.75637-2.76238 3.75937-3.75937 2.76238-4.75637 1.40997-5.31656 0-5.31656-1.40997-5.31656-2.76238-4.75637-3.75937-3.75937-4.75637-2.76238-5.31656-1.40997-5.31656 0-5.31656 1.40997-4.75637 2.76238-3.75937 3.75937-2.76238 4.75637-1.40997 5.31656 0 5.31656Z" stroke="#121212" stroke-width="1.77219" stroke-linejoin="round" fill="#121212" transform="matrix(1.00087 0 0 1 815.219 745.852)"/></g><g><path d="M0 5.31656C1.40997 5.31656 2.76238 4.75637 3.75937 3.75937 4.75637 2.76238 5.31656 1.40997 5.31656 0 5.31656-1.40997 4.75637-2.76238 3.75937-3.75937 2.76238-4.75637 1.40997-5.31656 0-5.31656-1.40997-5.31656-2.76238-4.75637-3.75937-3.75937-4.75637-2.76238-5.31656-1.40997-5.31656 0-5.31656 1.40997-4.75637 2.76238-3.75937 3.75937-2.76238 4.75637-1.40997 5.31656 0 5.31656Z" stroke="#686868" stroke-width="1.77219" stroke-linejoin="round" fill="#686868" transform="matrix(1.00087 0 0 1 1117.14 801.207)"/></g><g><path d="M0 5.31656C1.40997 5.31656 2.76238 4.75637 3.75937 3.75937 4.75637 2.76238 5.31656 1.40997 5.31656 0 5.31656-1.40997 4.75637-2.76238 3.75937-3.75937 2.76238-4.75637 1.40997-5.31656 0-5.31656-1.40997-5.31656-2.76238-4.75637-3.75937-3.75937-4.75637-2.76238-5.31656-1.40997-5.31656 0-5.31656 1.40997-4.75637 2.76238-3.75937 3.75937-2.76238 4.75637-1.40997 5.31656 0 5.31656Z" stroke="#4D4D4D" stroke-width="1.77219" stroke-linejoin="round" fill="#4D4D4D" transform="matrix(1.00087 0 0 1 1066.61 801.207)"/></g><g><path d="M0 5.31656C1.40997 5.31656 2.76238 4.75637 3.75937 3.75937 4.75637 2.76238 5.31656 1.40997 5.31656 0 5.31656-1.40997 4.75637-2.76238 3.75937-3.75937 2.76238-4.75637 1.40997-5.31656 0-5.31656-1.40997-5.31656-2.76238-4.75637-3.75937-3.75937-4.75637-2.76238-5.31656-1.40997-5.31656 0-5.31656 1.40997-4.75637 2.76238-3.75937 3.75937-2.76238 4.75637-1.40997 5.31656 0 5.31656Z" stroke="#919191" stroke-width="1.77219" stroke-linejoin="round" fill="#919191" transform="matrix(1.00087 0 0 1 1016.09 801.207)"/></g><g><path d="M0 5.31656C1.40997 5.31656 2.76238 4.75637 3.75937 3.75937 4.75637 2.76238 5.31656 1.40997 5.31656 0 5.31656-1.40997 4.75637-2.76238 3.75937-3.75937 2.76238-4.75637 1.40997-5.31656 0-5.31656-1.40997-5.31656-2.76238-4.75637-3.75937-3.75937-4.75637-2.76238-5.31656-1.40997-5.31656 0-5.31656 1.40997-4.75637 2.76238-3.75937 3.75937-2.76238 4.75637-1.40997 5.31656 0 5.31656Z" stroke="#626262" stroke-width="1.77219" stroke-linejoin="round" fill="#626262" transform="matrix(1.00087 0 0 1 965.57 801.207)"/></g><g><path d="M0 5.31656C1.40997 5.31656 2.76238 4.75637 3.75937 3.75937 4.75637 2.76238 5.31656 1.40997 5.31656 0 5.31656-1.40997 4.75637-2.76238 3.75937-3.75937 2.76238-4.75637 1.40997-5.31656 0-5.31656-1.40997-5.31656-2.76238-4.75637-3.75937-3.75937-4.75637-2.76238-5.31656-1.40997-5.31656 0-5.31656 1.40997-4.75637 2.76238-3.75937 3.75937-2.76238 4.75637-1.40997 5.31656 0 5.31656Z" stroke="#919191" stroke-width="1.77219" stroke-linejoin="round" fill="#919191" transform="matrix(1.00087 0 0 1 915.048 801.207)"/></g><g><path d="M0 5.31656C1.40997 5.31656 2.76238 4.75637 3.75937 3.75937 4.75637 2.76238 5.31656 1.40997 5.31656 0 5.31656-1.40997 4.75637-2.76238 3.75937-3.75937 2.76238-4.75637 1.40997-5.31656 0-5.31656-1.40997-5.31656-2.76238-4.75637-3.75937-3.75937-4.75637-2.76238-5.31656-1.40997-5.31656 0-5.31656 1.40997-4.75637 2.76238-3.75937 3.75937-2.76238 4.75637-1.40997 5.31656 0 5.31656Z" stroke="#4D4D4D" stroke-width="1.77219" stroke-linejoin="round" fill="#4D4D4D" transform="matrix(1.00087 0 0 1 864.526 801.207)"/></g><g><path d="M0 5.31656C1.40997 5.31656 2.76238 4.75637 3.75937 3.75937 4.75637 2.76238 5.31656 1.40997 5.31656 0 5.31656-1.40997 4.75637-2.76238 3.75937-3.75937 2.76238-4.75637 1.40997-5.31656 0-5.31656-1.40997-5.31656-2.76238-4.75637-3.75937-3.75937-4.75637-2.76238-5.31656-1.40997-5.31656 0-5.31656 1.40997-4.75637 2.76238-3.75937 3.75937-2.76238 4.75637-1.40997 5.31656 0 5.31656Z" stroke="#686868" stroke-width="1.77219" stroke-linejoin="round" fill="#686868" transform="matrix(1.00087 0 0 1 814.004 801.207)"/></g><g><path d="M0 5.31656C1.40997 5.31656 2.76238 4.75637 3.75937 3.75937 4.75637 2.76238 5.31656 1.40997 5.31656 0 5.31656-1.40997 4.75637-2.76238 3.75937-3.75937 2.76238-4.75637 1.40997-5.31656 0-5.31656-1.40997-5.31656-2.76238-4.75637-3.75937-3.75937-4.75637-2.76238-5.31656-1.40997-5.31656 0-5.31656 1.40997-4.75637 2.76238-3.75937 3.75937-2.76238 4.75637-1.40997 5.31656 0 5.31656Z" stroke="#030303" stroke-width="1.77219" stroke-linejoin="round" fill="#030303" transform="matrix(1.00087 0 0 1 1065.4 856.559)"/></g><g><path d="M0 5.31656C1.40997 5.31656 2.76238 4.75637 3.75937 3.75937 4.75637 2.76238 5.31656 1.40997 5.31656 0 5.31656-1.40997 4.75637-2.76238 3.75937-3.75937 2.76238-4.75637 1.40997-5.31656 0-5.31656-1.40997-5.31656-2.76238-4.75637-3.75937-3.75937-4.75637-2.76238-5.31656-1.40997-5.31656 0-5.31656 1.40997-4.75637 2.76238-3.75937 3.75937-2.76238 4.75637-1.40997 5.31656 0 5.31656Z" stroke="#757575" stroke-width="1.77219" stroke-linejoin="round" fill="#757575" transform="matrix(1.00087 0 0 1 1014.88 856.559)"/></g><g><path d="M0 5.31656C1.40997 5.31656 2.76238 4.75637 3.75937 3.75937 4.75637 2.76238 5.31656 1.40997 5.31656 0 5.31656-1.40997 4.75637-2.76238 3.75937-3.75937 2.76238-4.75637 1.40997-5.31656 0-5.31656-1.40997-5.31656-2.76238-4.75637-3.75937-3.75937-4.75637-2.76238-5.31656-1.40997-5.31656 0-5.31656 1.40997-4.75637 2.76238-3.75937 3.75937-2.76238 4.75637-1.40997 5.31656 0 5.31656Z" stroke="#040404" stroke-width="1.77219" stroke-linejoin="round" fill="#040404" transform="matrix(1.00087 0 0 1 964.355 856.559)"/></g><g><path d="M0 5.31656C1.40997 5.31656 2.76238 4.75637 3.75937 3.75937 4.75637 2.76238 5.31656 1.40997 5.31656 0 5.31656-1.40997 4.75637-2.76238 3.75937-3.75937 2.76238-4.75637 1.40997-5.31656 0-5.31656-1.40997-5.31656-2.76238-4.75637-3.75937-3.75937-4.75637-2.76238-5.31656-1.40997-5.31656 0-5.31656 1.40997-4.75637 2.76238-3.75937 3.75937-2.76238 4.75637-1.40997 5.31656 0 5.31656Z" stroke="#757575" stroke-width="1.77219" stroke-linejoin="round" fill="#757575" transform="matrix(1.00087 0 0 1 913.832 856.559)"/></g><g><path d="M0 5.31656C1.40997 5.31656 2.76238 4.75637 3.75937 3.75937 4.75637 2.76238 5.31656 1.40997 5.31656 0 5.31656-1.40997 4.75637-2.76238 3.75937-3.75937 2.76238-4.75637 1.40997-5.31656 0-5.31656-1.40997-5.31656-2.76238-4.75637-3.75937-3.75937-4.75637-2.76238-5.31656-1.40997-5.31656 0-5.31656 1.40997-4.75637 2.76238-3.75937 3.75937-2.76238 4.75637-1.40997 5.31656 0 5.31656Z" stroke="#030303" stroke-width="1.77219" stroke-linejoin="round" fill="#030303" transform="matrix(1.00087 0 0 1 863.31 856.559)"/></g></g></g></g><path d="M3286.5 481.5 3286.5 434.501 969.5 434.501 969.5 340.5 3286.5 340.5 3286.5 293.5 3380.5 387.499Z" stroke="#2C144A" stroke-width="4.58333" stroke-miterlimit="8" fill="none" fill-rule="evenodd"/><path d="M1394.5 1319.67C1394.5 1303.01 1408.01 1289.5 1424.67 1289.5L1925.33 1289.5C1941.99 1289.5 1955.5 1303.01 1955.5 1319.67L1955.5 1440.33C1955.5 1456.99 1941.99 1470.5 1925.33 1470.5L1424.67 1470.5C1408.01 1470.5 1394.5 1456.99 1394.5 1440.33Z" stroke="#161515" stroke-width="4.58333" stroke-miterlimit="8" fill="#FF7F0E" fill-rule="evenodd" fill-opacity="0.101961"/><text fill="#342F2E" font-family="Arial,Arial_MSFontService,sans-serif" font-style="italic" font-weight="700" font-size="83" transform="matrix(1 0 0 1 1484.57 1410)">Opinion 2</text><rect x="1477.5" y="986.5" width="396" height="198" stroke="#23201F" stroke-width="4.58333" stroke-miterlimit="8" fill="#6E6969"/><text fill="#FFFFFF" font-family="Arial,Arial_MSFontService,sans-serif" font-weight="700" font-size="83" transform="matrix(1 0 0 1 1585.41 1115)">CNN</text><path d="M1681.88 885 1681.88 951.398 1668.13 951.398 1668.13 885ZM1695.63 944.523 1675 985.773 1654.38 944.523Z" fill="#401F68"/><path d="M6.875-2.35919e-05 6.87524 70.7941-6.87476 70.7941-6.875 2.35919e-05ZM20.6252 63.919 0.000360892 105.169-20.6248 63.9192Z" fill="#401F68" transform="matrix(-1 0 0 1 1675 1184)"/><path d="M1681.88 1470 1681.88 1548.46 1668.13 1548.46 1668.13 1470ZM1695.63 1541.58 1675 1582.83 1654.38 1541.58Z" fill="#401F68"/><path d="M1249 1744.13 1359.62 1744.13 1359.62 1757.88 1249 1757.88ZM1352.75 1730.38 1394 1751 1352.75 1771.63Z" fill="#401F68"/><g><g><g><path d="M0 393 395.552 393 395.552 0 0 0Z" fill="#FFFFFF" transform="matrix(1.00087 0 0 1 2168.05 496)"/><g><path d="M0 393 395.552 393 395.552 0 0 0Z" transform="matrix(1.00087 0 0 1 2168.05 496)"/></g><g><path d="M0 5.31656C1.40997 5.31656 2.76238 4.75637 3.75937 3.75937 4.75637 2.76238 5.31656 1.40997 5.31656 0 5.31656-1.40997 4.75637-2.76238 3.75937-3.75937 2.76238-4.75637 1.40997-5.31656 0-5.31656-1.40997-5.31656-2.76238-4.75637-3.75937-3.75937-4.75637-2.76238-5.31656-1.40997-5.31656 0-5.31656 1.40997-4.75637 2.76238-3.75937 3.75937-2.76238 4.75637-1.40997 5.31656 0 5.31656Z" stroke="#000000" stroke-width="1.77219" stroke-linejoin="round" transform="matrix(1.00087 0 0 1 2445.03 864.173)"/></g><g><path d="M0 5.31656C1.40997 5.31656 2.76238 4.75637 3.75937 3.75937 4.75637 2.76238 5.31656 1.40997 5.31656 0 5.31656-1.40997 4.75637-2.76238 3.75937-3.75937 2.76238-4.75637 1.40997-5.31656 0-5.31656-1.40997-5.31656-2.76238-4.75637-3.75937-3.75937-4.75637-2.76238-5.31656-1.40997-5.31656 0-5.31656 1.40997-4.75637 2.76238-3.75937 3.75937-2.76238 4.75637-1.40997 5.31656 0 5.31656Z" stroke="#020202" stroke-width="1.77219" stroke-linejoin="round" fill="#020202" transform="matrix(1.00087 0 0 1 2394.51 864.173)"/></g><g><path d="M0 5.31656C1.40997 5.31656 2.76238 4.75637 3.75937 3.75937 4.75637 2.76238 5.31656 1.40997 5.31656 0 5.31656-1.40997 4.75637-2.76238 3.75937-3.75937 2.76238-4.75637 1.40997-5.31656 0-5.31656-1.40997-5.31656-2.76238-4.75637-3.75937-3.75937-4.75637-2.76238-5.31656-1.40997-5.31656 0-5.31656 1.40997-4.75637 2.76238-3.75937 3.75937-2.76238 4.75637-1.40997 5.31656 0 5.31656Z" stroke="#000000" stroke-width="1.77219" stroke-linejoin="round" transform="matrix(1.00087 0 0 1 2343.99 864.173)"/></g><g><path d="M0 5.31656C1.40997 5.31656 2.76238 4.75637 3.75937 3.75937 4.75637 2.76238 5.31656 1.40997 5.31656 0 5.31656-1.40997 4.75637-2.76238 3.75937-3.75937 2.76238-4.75637 1.40997-5.31656 0-5.31656-1.40997-5.31656-2.76238-4.75637-3.75937-3.75937-4.75637-2.76238-5.31656-1.40997-5.31656 0-5.31656 1.40997-4.75637 2.76238-3.75937 3.75937-2.76238 4.75637-1.40997 5.31656 0 5.31656Z" stroke="#020202" stroke-width="1.77219" stroke-linejoin="round" fill="#020202" transform="matrix(1.00087 0 0 1 2293.47 864.173)"/></g><g><path d="M0 5.31656C1.40997 5.31656 2.76238 4.75637 3.75937 3.75937 4.75637 2.76238 5.31656 1.40997 5.31656 0 5.31656-1.40997 4.75637-2.76238 3.75937-3.75937 2.76238-4.75637 1.40997-5.31656 0-5.31656-1.40997-5.31656-2.76238-4.75637-3.75937-3.75937-4.75637-2.76238-5.31656-1.40997-5.31656 0-5.31656 1.40997-4.75637 2.76238-3.75937 3.75937-2.76238 4.75637-1.40997 5.31656 0 5.31656Z" stroke="#080808" stroke-width="1.77219" stroke-linejoin="round" fill="#080808" transform="matrix(1.00087 0 0 1 2506.56 778.338)"/></g><g><path d="M0 5.31656C1.40997 5.31656 2.76238 4.75637 3.75937 3.75937 4.75637 2.76238 5.31656 1.40997 5.31656 0 5.31656-1.40997 4.75637-2.76238 3.75937-3.75937 2.76238-4.75637 1.40997-5.31656 0-5.31656-1.40997-5.31656-2.76238-4.75637-3.75937-3.75937-4.75637-2.76238-5.31656-1.40997-5.31656 0-5.31656 1.40997-4.75637 2.76238-3.75937 3.75937-2.76238 4.75637-1.40997 5.31656 0 5.31656Z" stroke="#222222" stroke-width="1.77219" stroke-linejoin="round" fill="#222222" transform="matrix(1.00087 0 0 1 2456.04 778.338)"/></g><g><path d="M0 5.31656C1.40997 5.31656 2.76238 4.75637 3.75937 3.75937 4.75637 2.76238 5.31656 1.40997 5.31656 0 5.31656-1.40997 4.75637-2.76238 3.75937-3.75937 2.76238-4.75637 1.40997-5.31656 0-5.31656-1.40997-5.31656-2.76238-4.75637-3.75937-3.75937-4.75637-2.76238-5.31656-1.40997-5.31656 0-5.31656 1.40997-4.75637 2.76238-3.75937 3.75937-2.76238 4.75637-1.40997 5.31656 0 5.31656Z" stroke="#191919" stroke-width="1.77219" stroke-linejoin="round" fill="#191919" transform="matrix(1.00087 0 0 1 2405.52 778.338)"/></g><g><path d="M0 5.31656C1.40997 5.31656 2.76238 4.75637 3.75937 3.75937 4.75637 2.76238 5.31656 1.40997 5.31656 0 5.31656-1.40997 4.75637-2.76238 3.75937-3.75937 2.76238-4.75637 1.40997-5.31656 0-5.31656-1.40997-5.31656-2.76238-4.75637-3.75937-3.75937-4.75637-2.76238-5.31656-1.40997-5.31656 0-5.31656 1.40997-4.75637 2.76238-3.75937 3.75937-2.76238 4.75637-1.40997 5.31656 0 5.31656Z" stroke="#3D3D3D" stroke-width="1.77219" stroke-linejoin="round" fill="#3D3D3D" transform="matrix(1.00087 0 0 1 2355 778.338)"/></g><g><path d="M0 5.31656C1.40997 5.31656 2.76238 4.75637 3.75937 3.75937 4.75637 2.76238 5.31656 1.40997 5.31656 0 5.31656-1.40997 4.75637-2.76238 3.75937-3.75937 2.76238-4.75637 1.40997-5.31656 0-5.31656-1.40997-5.31656-2.76238-4.75637-3.75937-3.75937-4.75637-2.76238-5.31656-1.40997-5.31656 0-5.31656 1.40997-4.75637 2.76238-3.75937 3.75937-2.76238 4.75637-1.40997 5.31656 0 5.31656Z" stroke="#878787" stroke-width="1.77219" stroke-linejoin="round" fill="#878787" transform="matrix(1.00087 0 0 1 2304.47 778.338)"/></g><g><path d="M0 5.31656C1.40997 5.31656 2.76238 4.75637 3.75937 3.75937 4.75637 2.76238 5.31656 1.40997 5.31656 0 5.31656-1.40997 4.75637-2.76238 3.75937-3.75937 2.76238-4.75637 1.40997-5.31656 0-5.31656-1.40997-5.31656-2.76238-4.75637-3.75937-3.75937-4.75637-2.76238-5.31656-1.40997-5.31656 0-5.31656 1.40997-4.75637 2.76238-3.75937 3.75937-2.76238 4.75637-1.40997 5.31656 0 5.31656Z" stroke="#171717" stroke-width="1.77219" stroke-linejoin="round" fill="#171717" transform="matrix(1.00087 0 0 1 2253.95 778.338)"/></g><g><path d="M0 5.31656C1.40997 5.31656 2.76238 4.75637 3.75937 3.75937 4.75637 2.76238 5.31656 1.40997 5.31656 0 5.31656-1.40997 4.75637-2.76238 3.75937-3.75937 2.76238-4.75637 1.40997-5.31656 0-5.31656-1.40997-5.31656-2.76238-4.75637-3.75937-3.75937-4.75637-2.76238-5.31656-1.40997-5.31656 0-5.31656 1.40997-4.75637 2.76238-3.75937 3.75937-2.76238 4.75637-1.40997 5.31656 0 5.31656Z" stroke="#414141" stroke-width="1.77219" stroke-linejoin="round" fill="#414141" transform="matrix(1.00087 0 0 1 2203.43 778.338)"/></g><g><path d="M0 5.31656C1.40997 5.31656 2.76238 4.75637 3.75937 3.75937 4.75637 2.76238 5.31656 1.40997 5.31656 0 5.31656-1.40997 4.75637-2.76238 3.75937-3.75937 2.76238-4.75637 1.40997-5.31656 0-5.31656-1.40997-5.31656-2.76238-4.75637-3.75937-3.75937-4.75637-2.76238-5.31656-1.40997-5.31656 0-5.31656 1.40997-4.75637 2.76238-3.75937 3.75937-2.76238 4.75637-1.40997 5.31656 0 5.31656Z" stroke="#000000" stroke-width="1.77219" stroke-linejoin="round" transform="matrix(1.00087 0 0 1 2517.57 692.5)"/></g><g><path d="M0 5.31656C1.40997 5.31656 2.76238 4.75637 3.75937 3.75937 4.75637 2.76238 5.31656 1.40997 5.31656 0 5.31656-1.40997 4.75637-2.76238 3.75937-3.75937 2.76238-4.75637 1.40997-5.31656 0-5.31656-1.40997-5.31656-2.76238-4.75637-3.75937-3.75937-4.75637-2.76238-5.31656-1.40997-5.31656 0-5.31656 1.40997-4.75637 2.76238-3.75937 3.75937-2.76238 4.75637-1.40997 5.31656 0 5.31656Z" stroke="#FFFFFF" stroke-width="1.77219" stroke-linejoin="round" fill="#FFFFFF" transform="matrix(1.00087 0 0 1 2467.04 692.5)"/></g><g><path d="M0 5.31656C1.40997 5.31656 2.76238 4.75637 3.75937 3.75937 4.75637 2.76238 5.31656 1.40997 5.31656 0 5.31656-1.40997 4.75637-2.76238 3.75937-3.75937 2.76238-4.75637 1.40997-5.31656 0-5.31656-1.40997-5.31656-2.76238-4.75637-3.75937-3.75937-4.75637-2.76238-5.31656-1.40997-5.31656 0-5.31656 1.40997-4.75637 2.76238-3.75937 3.75937-2.76238 4.75637-1.40997 5.31656 0 5.31656Z" stroke="#000000" stroke-width="1.77219" stroke-linejoin="round" transform="matrix(1.00087 0 0 1 2416.52 692.5)"/></g><g><path d="M0 5.31656C1.40997 5.31656 2.76238 4.75637 3.75937 3.75937 4.75637 2.76238 5.31656 1.40997 5.31656 0 5.31656-1.40997 4.75637-2.76238 3.75937-3.75937 2.76238-4.75637 1.40997-5.31656 0-5.31656-1.40997-5.31656-2.76238-4.75637-3.75937-3.75937-4.75637-2.76238-5.31656-1.40997-5.31656 0-5.31656 1.40997-4.75637 2.76238-3.75937 3.75937-2.76238 4.75637-1.40997 5.31656 0 5.31656Z" stroke="#000000" stroke-width="1.77219" stroke-linejoin="round" transform="matrix(1.00087 0 0 1 2315.48 692.5)"/></g><g><path d="M0 5.31656C1.40997 5.31656 2.76238 4.75637 3.75937 3.75937 4.75637 2.76238 5.31656 1.40997 5.31656 0 5.31656-1.40997 4.75637-2.76238 3.75937-3.75937 2.76238-4.75637 1.40997-5.31656 0-5.31656-1.40997-5.31656-2.76238-4.75637-3.75937-3.75937-4.75637-2.76238-5.31656-1.40997-5.31656 0-5.31656 1.40997-4.75637 2.76238-3.75937 3.75937-2.76238 4.75637-1.40997 5.31656 0 5.31656Z" stroke="#FFFFFF" stroke-width="1.77219" stroke-linejoin="round" fill="#FFFFFF" transform="matrix(1.00087 0 0 1 2264.96 692.5)"/></g><g><path d="M0 5.31656C1.40997 5.31656 2.76238 4.75637 3.75937 3.75937 4.75637 2.76238 5.31656 1.40997 5.31656 0 5.31656-1.40997 4.75637-2.76238 3.75937-3.75937 2.76238-4.75637 1.40997-5.31656 0-5.31656-1.40997-5.31656-2.76238-4.75637-3.75937-3.75937-4.75637-2.76238-5.31656-1.40997-5.31656 0-5.31656 1.40997-4.75637 2.76238-3.75937 3.75937-2.76238 4.75637-1.40997 5.31656 0 5.31656Z" stroke="#000000" stroke-width="1.77219" stroke-linejoin="round" transform="matrix(1.00087 0 0 1 2214.43 692.5)"/></g><g><path d="M0 5.31656C1.40997 5.31656 2.76238 4.75637 3.75937 3.75937 4.75637 2.76238 5.31656 1.40997 5.31656 0 5.31656-1.40997 4.75637-2.76238 3.75937-3.75937 2.76238-4.75637 1.40997-5.31656 0-5.31656-1.40997-5.31656-2.76238-4.75637-3.75937-3.75937-4.75637-2.76238-5.31656-1.40997-5.31656 0-5.31656 1.40997-4.75637 2.76238-3.75937 3.75937-2.76238 4.75637-1.40997 5.31656 0 5.31656Z" stroke="#414141" stroke-width="1.77219" stroke-linejoin="round" fill="#414141" transform="matrix(1.00087 0 0 1 2528.57 606.663)"/></g><g><path d="M0 5.31656C1.40997 5.31656 2.76238 4.75637 3.75937 3.75937 4.75637 2.76238 5.31656 1.40997 5.31656 0 5.31656-1.40997 4.75637-2.76238 3.75937-3.75937 2.76238-4.75637 1.40997-5.31656 0-5.31656-1.40997-5.31656-2.76238-4.75637-3.75937-3.75937-4.75637-2.76238-5.31656-1.40997-5.31656 0-5.31656 1.40997-4.75637 2.76238-3.75937 3.75937-2.76238 4.75637-1.40997 5.31656 0 5.31656Z" stroke="#171717" stroke-width="1.77219" stroke-linejoin="round" fill="#171717" transform="matrix(1.00087 0 0 1 2478.05 606.663)"/></g><g><path d="M0 5.31656C1.40997 5.31656 2.76238 4.75637 3.75937 3.75937 4.75637 2.76238 5.31656 1.40997 5.31656 0 5.31656-1.40997 4.75637-2.76238 3.75937-3.75937 2.76238-4.75637 1.40997-5.31656 0-5.31656-1.40997-5.31656-2.76238-4.75637-3.75937-3.75937-4.75637-2.76238-5.31656-1.40997-5.31656 0-5.31656 1.40997-4.75637 2.76238-3.75937 3.75937-2.76238 4.75637-1.40997 5.31656 0 5.31656Z" stroke="#878787" stroke-width="1.77219" stroke-linejoin="round" fill="#878787" transform="matrix(1.00087 0 0 1 2427.53 606.663)"/></g><g><path d="M0 5.31656C1.40997 5.31656 2.76238 4.75637 3.75937 3.75937 4.75637 2.76238 5.31656 1.40997 5.31656 0 5.31656-1.40997 4.75637-2.76238 3.75937-3.75937 2.76238-4.75637 1.40997-5.31656 0-5.31656-1.40997-5.31656-2.76238-4.75637-3.75937-3.75937-4.75637-2.76238-5.31656-1.40997-5.31656 0-5.31656 1.40997-4.75637 2.76238-3.75937 3.75937-2.76238 4.75637-1.40997 5.31656 0 5.31656Z" stroke="#3D3D3D" stroke-width="1.77219" stroke-linejoin="round" fill="#3D3D3D" transform="matrix(1.00087 0 0 1 2377 606.663)"/></g><g><path d="M0 5.31656C1.40997 5.31656 2.76238 4.75637 3.75937 3.75937 4.75637 2.76238 5.31656 1.40997 5.31656 0 5.31656-1.40997 4.75637-2.76238 3.75937-3.75937 2.76238-4.75637 1.40997-5.31656 0-5.31656-1.40997-5.31656-2.76238-4.75637-3.75937-3.75937-4.75637-2.76238-5.31656-1.40997-5.31656 0-5.31656 1.40997-4.75637 2.76238-3.75937 3.75937-2.76238 4.75637-1.40997 5.31656 0 5.31656Z" stroke="#191919" stroke-width="1.77219" stroke-linejoin="round" fill="#191919" transform="matrix(1.00087 0 0 1 2326.48 606.663)"/></g><g><path d="M0 5.31656C1.40997 5.31656 2.76238 4.75637 3.75937 3.75937 4.75637 2.76238 5.31656 1.40997 5.31656 0 5.31656-1.40997 4.75637-2.76238 3.75937-3.75937 2.76238-4.75637 1.40997-5.31656 0-5.31656-1.40997-5.31656-2.76238-4.75637-3.75937-3.75937-4.75637-2.76238-5.31656-1.40997-5.31656 0-5.31656 1.40997-4.75637 2.76238-3.75937 3.75937-2.76238 4.75637-1.40997 5.31656 0 5.31656Z" stroke="#222222" stroke-width="1.77219" stroke-linejoin="round" fill="#222222" transform="matrix(1.00087 0 0 1 2275.96 606.663)"/></g><g><path d="M0 5.31656C1.40997 5.31656 2.76238 4.75637 3.75937 3.75937 4.75637 2.76238 5.31656 1.40997 5.31656 0 5.31656-1.40997 4.75637-2.76238 3.75937-3.75937 2.76238-4.75637 1.40997-5.31656 0-5.31656-1.40997-5.31656-2.76238-4.75637-3.75937-3.75937-4.75637-2.76238-5.31656-1.40997-5.31656 0-5.31656 1.40997-4.75637 2.76238-3.75937 3.75937-2.76238 4.75637-1.40997 5.31656 0 5.31656Z" stroke="#080808" stroke-width="1.77219" stroke-linejoin="round" fill="#080808" transform="matrix(1.00087 0 0 1 2225.44 606.663)"/></g><g><path d="M0 5.31656C1.40997 5.31656 2.76238 4.75637 3.75937 3.75937 4.75637 2.76238 5.31656 1.40997 5.31656 0 5.31656-1.40997 4.75637-2.76238 3.75937-3.75937 2.76238-4.75637 1.40997-5.31656 0-5.31656-1.40997-5.31656-2.76238-4.75637-3.75937-3.75937-4.75637-2.76238-5.31656-1.40997-5.31656 0-5.31656 1.40997-4.75637 2.76238-3.75937 3.75937-2.76238 4.75637-1.40997 5.31656 0 5.31656Z" stroke="#020202" stroke-width="1.77219" stroke-linejoin="round" fill="#020202" transform="matrix(1.00087 0 0 1 2438.53 520.826)"/></g><g><path d="M0 5.31656C1.40997 5.31656 2.76238 4.75637 3.75937 3.75937 4.75637 2.76238 5.31656 1.40997 5.31656 0 5.31656-1.40997 4.75637-2.76238 3.75937-3.75937 2.76238-4.75637 1.40997-5.31656 0-5.31656-1.40997-5.31656-2.76238-4.75637-3.75937-3.75937-4.75637-2.76238-5.31656-1.40997-5.31656 0-5.31656 1.40997-4.75637 2.76238-3.75937 3.75937-2.76238 4.75637-1.40997 5.31656 0 5.31656Z" stroke="#000000" stroke-width="1.77219" stroke-linejoin="round" transform="matrix(1.00087 0 0 1 2388.01 520.826)"/></g><g><path d="M0 5.31656C1.40997 5.31656 2.76238 4.75637 3.75937 3.75937 4.75637 2.76238 5.31656 1.40997 5.31656 0 5.31656-1.40997 4.75637-2.76238 3.75937-3.75937 2.76238-4.75637 1.40997-5.31656 0-5.31656-1.40997-5.31656-2.76238-4.75637-3.75937-3.75937-4.75637-2.76238-5.31656-1.40997-5.31656 0-5.31656 1.40997-4.75637 2.76238-3.75937 3.75937-2.76238 4.75637-1.40997 5.31656 0 5.31656Z" stroke="#020202" stroke-width="1.77219" stroke-linejoin="round" fill="#020202" transform="matrix(1.00087 0 0 1 2337.49 520.826)"/></g><g><path d="M0 5.31656C1.40997 5.31656 2.76238 4.75637 3.75937 3.75937 4.75637 2.76238 5.31656 1.40997 5.31656 0 5.31656-1.40997 4.75637-2.76238 3.75937-3.75937 2.76238-4.75637 1.40997-5.31656 0-5.31656-1.40997-5.31656-2.76238-4.75637-3.75937-3.75937-4.75637-2.76238-5.31656-1.40997-5.31656 0-5.31656 1.40997-4.75637 2.76238-3.75937 3.75937-2.76238 4.75637-1.40997 5.31656 0 5.31656Z" stroke="#000000" stroke-width="1.77219" stroke-linejoin="round" transform="matrix(1.00087 0 0 1 2286.97 520.826)"/></g></g></g></g><path d="M2087.5 1641.83C2087.5 1609.62 2113.62 1583.5 2145.83 1583.5L2590.17 1583.5C2622.38 1583.5 2648.5 1609.62 2648.5 1641.83L2648.5 1875.17C2648.5 1907.38 2622.38 1933.5 2590.17 1933.5L2145.83 1933.5C2113.62 1933.5 2087.5 1907.38 2087.5 1875.17Z" stroke="#161515" stroke-width="4.58333" stroke-miterlimit="8" fill="#FF7F0E" fill-rule="evenodd" fill-opacity="0.6"/><text fill="#342F2E" font-family="Arial,Arial_MSFontService,sans-serif" font-style="italic" font-weight="700" font-size="83" transform="matrix(1 0 0 1 2246.29 1739)">Fused </text><text fill="#342F2E" font-family="Arial,Arial_MSFontService,sans-serif" font-style="italic" font-weight="700" font-size="83" transform="matrix(1 0 0 1 2177.54 1838)">Opinion II</text><path d="M2087.5 1319.67C2087.5 1303.01 2101.01 1289.5 2117.67 1289.5L2618.33 1289.5C2634.99 1289.5 2648.5 1303.01 2648.5 1319.67L2648.5 1440.33C2648.5 1456.99 2634.99 1470.5 2618.33 1470.5L2117.67 1470.5C2101.01 1470.5 2087.5 1456.99 2087.5 1440.33Z" stroke="#161515" stroke-width="4.58333" stroke-miterlimit="8" fill="#FF7F0E" fill-rule="evenodd" fill-opacity="0.101961"/><text fill="#342F2E" font-family="Arial,Arial_MSFontService,sans-serif" font-style="italic" font-weight="700" font-size="83" transform="matrix(1 0 0 1 2177.54 1410)">Opinion 3</text><rect x="2170.5" y="986.5" width="396" height="198" stroke="#23201F" stroke-width="4.58333" stroke-miterlimit="8" fill="#6E6969"/><text fill="#FFFFFF" font-family="Arial,Arial_MSFontService,sans-serif" font-weight="700" font-size="83" transform="matrix(1 0 0 1 2278.38 1115)">CNN</text><path d="M2372.87 888.869 2374.07 951.441 2360.32 951.703 2359.13 889.131ZM2387.68 944.305 2367.85 985.94 2346.44 945.091Z" fill="#401F68"/><path d="M6.875-2.35919e-05 6.87524 70.7941-6.87476 70.7941-6.875 2.35919e-05ZM20.6252 63.919 0.000360892 105.169-20.6248 63.9192Z" fill="#401F68" transform="matrix(-1 0 0 1 2368 1184)"/><path d="M2374.88 1470 2374.88 1548.46 2361.13 1548.46 2361.12 1470ZM2388.63 1541.58 2368 1582.83 2347.38 1541.58Z" fill="#401F68"/><path d="M1955 1751.12 2052.59 1751.13 2052.59 1764.88 1955 1764.87ZM2045.72 1737.38 2086.97 1758 2045.72 1778.63Z" fill="#401F68"/><path d="M3099.5 1650C3099.5 1617.69 3125.69 1591.5 3158 1591.5L3602 1591.5C3634.31 1591.5 3660.5 1617.69 3660.5 1650L3660.5 1884C3660.5 1916.31 3634.31 1942.5 3602 1942.5L3158 1942.5C3125.69 1942.5 3099.5 1916.31 3099.5 1884Z" stroke="#161515" stroke-width="4.58333" stroke-miterlimit="8" fill="#FF7F0E" fill-rule="evenodd"/><text fill="#FFFFFF" font-family="Arial,Arial_MSFontService,sans-serif" font-style="italic" font-weight="700" font-size="83" transform="matrix(1 0 0 1 3207.72 1797)">Decision</text><path d="M3099.5 1328.67C3099.5 1312.01 3113.01 1298.5 3129.67 1298.5L3630.33 1298.5C3646.99 1298.5 3660.5 1312.01 3660.5 1328.67L3660.5 1449.33C3660.5 1465.99 3646.99 1479.5 3630.33 1479.5L3129.67 1479.5C3113.01 1479.5 3099.5 1465.99 3099.5 1449.33Z" stroke="#161515" stroke-width="4.58333" stroke-miterlimit="8" fill="#FF7F0E" fill-rule="evenodd" fill-opacity="0.101961"/><text fill="#342F2E" font-family="Arial,Arial_MSFontService,sans-serif" font-style="italic" font-weight="700" font-size="83" transform="matrix(1 0 0 1 3182.51 1419)">Opinion N</text><rect x="3182.5" y="995.5" width="396" height="198" stroke="#23201F" stroke-width="4.58333" stroke-miterlimit="8" fill="#6E6969"/><text fill="#FFFFFF" font-family="Arial,Arial_MSFontService,sans-serif" font-weight="700" font-size="83" transform="matrix(1 0 0 1 3290.22 1124)">CNN</text><path d="M3381.87 891.694 3384.92 960.257 3371.18 960.869 3368.13 892.306ZM3398.35 952.778 3379.58 994.904 3357.14 954.612Z" fill="#401F68"/><path d="M6.875-2.35919e-05 6.87524 70.7941-6.87476 70.7941-6.875 2.35919e-05ZM20.6252 63.919 0.000360892 105.169-20.6248 63.9192Z" fill="#401F68" transform="matrix(-1 0 0 1 3380 1193)"/><path d="M3386.88 1479 3386.88 1557.46 3373.13 1557.46 3373.12 1479ZM3400.63 1550.58 3380 1591.83 3359.38 1550.58Z" fill="#401F68"/><text font-family="Arial,Arial_MSFontService,sans-serif" font-weight="400" font-size="128" transform="matrix(1 0 0 1 2803.17 1094)">…</text><path d="M2648 1751.12 2744.69 1751.13 2744.69 1764.88 2648 1764.87ZM2737.82 1737.38 2779.07 1758 2737.82 1778.63Z" fill="#401F68"/><path d="M2968 1751.12 3064.69 1751.13 3064.69 1764.88 2968 1764.87ZM3057.82 1737.38 3099.07 1758 3057.82 1778.63Z" fill="#401F68"/><path d="M978.5 2002.75 3298 2002.75 3298 1961.5 3380.5 2044 3298 2126.5 3298 2085.25 978.5 2085.25Z" stroke="#2C144A" stroke-width="4.58333" stroke-miterlimit="8" fill="url(#fill0)" fill-rule="evenodd"/><text font-family="Arial,Arial_MSFontService,sans-serif" font-weight="400" font-size="83" transform="matrix(1 0 0 1 1757.04 2074)">Increasing confidence</text><rect x="770.5" y="493.5" width="396" height="396" stroke="#1F77B4" stroke-width="20.625" stroke-miterlimit="8" fill="none"/><rect x="1477.5" y="493.5" width="396" height="396" stroke="#FF7F0E" stroke-width="20.625" stroke-miterlimit="8" fill="none"/><rect x="2168.5" y="494.5" width="396" height="396" stroke="#2CA02C" stroke-width="20.625" stroke-miterlimit="8" fill="none"/><rect x="3177.5" y="497.5" width="396" height="396" stroke="#D62728" stroke-width="20.625" stroke-miterlimit="8" fill="none"/></g></svg>