<svg width="2285" height="1767" xmlns="http://www.w3.org/2000/svg" xmlns:xlink="http://www.w3.org/1999/xlink" xml:space="preserve" overflow="hidden"><defs><linearGradient x1="929.5" y1="2237.5" x2="3201.5" y2="2237.5" gradientUnits="userSpaceOnUse" spreadMethod="reflect" id="fill0"><stop offset="0" stop-color="#FF7F0E" stop-opacity="0.101961"/><stop offset="1" stop-color="#FF7F0E"/><stop offset="1" stop-color="#FF7F0E"/></linearGradient></defs><g transform="translate(-926 -603)"><path d="M1635.5 1884.5C1635.5 1857.44 1657.44 1835.5 1684.5 1835.5L2147.5 1835.5C2174.56 1835.5 2196.5 1857.44 2196.5 1884.5L2196.5 2080.5C2196.5 2107.56 2174.56 2129.5 2147.5 2129.5L1684.5 2129.5C1657.44 2129.5 1635.5 2107.56 1635.5 2080.5Z" stroke="#171717" stroke-width="6.875" stroke-miterlimit="8" fill="#FF7F0E" fill-rule="evenodd" fill-opacity="0.4"/><text font-family="Arial,Arial_MSFontService,sans-serif" font-style="italic" font-weight="700" font-size="92" transform="matrix(1 0 0 1 1780.39 1961)">Fused </text><text font-family="Arial,Arial_MSFontService,sans-serif" font-style="italic" font-weight="700" font-size="92" transform="matrix(1 0 0 1 1717.37 2071)">Opinion I</text><rect x="1012.5" y="1247.5" width="396" height="198" stroke="#000000" stroke-width="6.875" stroke-miterlimit="8" fill="#747474"/><text fill="#FFFFFF" font-family="Arial,Arial_MSFontService,sans-serif" font-weight="700" font-size="128" transform="matrix(1 0 0 1 1070.39 1394)">CNN</text><path d="M1216.88 1133 1216.88 1212.27 1203.13 1212.27 1203.12 1133ZM1230.63 1205.4 1210 1246.65 1189.38 1205.4Z" fill="#156082"/><text font-family="Arial,Arial_MSFontService,sans-serif" font-weight="700" font-size="183" transform="matrix(1 0 0 1 2317.84 988)">…</text><path d="M6.875-2.67683e-05 6.87523 58.3144-6.87477 58.3145-6.875 2.67683e-05ZM20.6252 51.4394 0.000360892 92.6894-20.6248 51.4395Z" fill="#156082" transform="matrix(-1 0 0 1 1210 1445)"/><path d="M929.5 1632C929.5 1580.36 971.362 1538.5 1023 1538.5L1397 1538.5C1448.64 1538.5 1490.5 1580.36 1490.5 1632L1490.5 2067C1490.5 2118.64 1448.64 2160.5 1397 2160.5L1023 2160.5C971.362 2160.5 929.5 2118.64 929.5 2067Z" stroke="#171717" stroke-width="6.875" stroke-miterlimit="8" fill="#FF7F0E" fill-rule="evenodd" fill-opacity="0.101961"/><rect x="1041.5" y="1943.5" width="41.9999" height="90.0001" stroke="#0C445E" stroke-width="6.875" stroke-miterlimit="8" fill="#1F77B4"/><rect x="1083.5" y="1796.5" width="41.9999" height="237" stroke="#0C445E" stroke-width="6.875" stroke-miterlimit="8" fill="#1F77B4"/><rect x="1125.5" y="1921.5" width="43" height="112" stroke="#0C445E" stroke-width="6.875" stroke-miterlimit="8" fill="#1F77B4"/><rect x="1168.5" y="1969.5" width="41.9999" height="64.0002" stroke="#0C445E" stroke-width="6.875" stroke-miterlimit="8" fill="#1F77B4"/><rect x="1210.5" y="2016.5" width="42.0002" height="17.0002" stroke="#0C445E" stroke-width="6.875" stroke-miterlimit="8" fill="#1F77B4"/><rect x="1252.5" y="1921.5" width="41.9999" height="112" stroke="#0C445E" stroke-width="6.875" stroke-miterlimit="8" fill="#1F77B4"/><rect x="1294.5" y="1960.5" width="41.9999" height="73.0002" stroke="#0C445E" stroke-width="6.875" stroke-miterlimit="8" fill="#1F77B4"/><rect x="1012" y="1735" width="396" height="298" stroke="#0C445E" stroke-width="2.29167" stroke-miterlimit="8" fill="none"/><text font-family="Arial,Arial_MSFontService,sans-serif" font-style="italic" font-weight="700" font-size="92" transform="matrix(1 0 0 1 998.487 1676)">Opinion 1</text><text font-family="Arial,Arial_MSFontService,sans-serif" font-weight="700" font-size="183" transform="matrix(1 0 0 1 2317.81 1647)">…</text><text font-family="Arial,Arial_MSFontService,sans-serif" font-weight="700" font-size="183" transform="matrix(1 0 0 1 2316.08 1999)">…</text><path d="M1635.5 1574.5C1635.5 1557.93 1648.93 1544.5 1665.5 1544.5L2166.5 1544.5C2183.07 1544.5 2196.5 1557.93 2196.5 1574.5L2196.5 1694.5C2196.5 1711.07 2183.07 1724.5 2166.5 1724.5L1665.5 1724.5C1648.93 1724.5 1635.5 1711.07 1635.5 1694.5Z" stroke="#171717" stroke-width="6.875" stroke-miterlimit="8" fill="#FF7F0E" fill-rule="evenodd" fill-opacity="0.101961"/><text font-family="Arial,Arial_MSFontService,sans-serif" font-style="italic" font-weight="700" font-size="92" transform="matrix(1 0 0 1 1704.48 1668)">Opinion 2</text><rect x="1718.5" y="1240.5" width="396" height="198" stroke="#000000" stroke-width="6.875" stroke-miterlimit="8" fill="#747474"/><text fill="#FFFFFF" font-family="Arial,Arial_MSFontService,sans-serif" font-weight="700" font-size="128" transform="matrix(1 0 0 1 1776.38 1387)">CNN</text><path d="M1922.88 1135 1922.88 1206.23 1909.13 1206.23 1909.13 1135ZM1936.63 1199.35 1916 1240.6 1895.38 1199.35Z" fill="#156082"/><path d="M6.875-2.35919e-05 6.87524 70.7941-6.87476 70.7941-6.875 2.35919e-05ZM20.6252 63.919 0.000360892 105.169-20.6248 63.9192Z" fill="#156082" transform="matrix(-1 0 0 1 1916 1438)"/><path d="M1922.88 1724 1922.88 1799.93 1909.13 1799.93 1909.13 1724ZM1936.63 1793.06 1916 1834.31 1895.38 1793.06Z" fill="#156082"/><path d="M1490 1975.13 1600.62 1975.13 1600.62 1988.88 1490 1988.88ZM1593.75 1961.38 1635 1982 1593.75 2002.63Z" fill="#156082"/><path d="M2196 1975.13 2293.59 1975.13 2293.59 1988.88 2196 1988.88ZM2286.72 1961.38 2327.97 1982 2286.72 2002.63Z" fill="#156082"/><path d="M2640.5 1883.67C2640.5 1856.51 2662.51 1834.5 2689.67 1834.5L3152.33 1834.5C3179.49 1834.5 3201.5 1856.51 3201.5 1883.67L3201.5 2080.33C3201.5 2107.49 3179.49 2129.5 3152.33 2129.5L2689.67 2129.5C2662.51 2129.5 2640.5 2107.49 2640.5 2080.33Z" stroke="#171717" stroke-width="6.875" stroke-miterlimit="8" fill="#FF7F0E" fill-rule="evenodd"/><text fill="#FFFFFF" font-family="Arial,Arial_MSFontService,sans-serif" font-style="italic" font-weight="700" font-size="92" transform="matrix(1 0 0 1 2728.93 2016)">Decision</text><path d="M2640.5 1582.67C2640.5 1566.01 2654.01 1552.5 2670.67 1552.5L3171.33 1552.5C3187.99 1552.5 3201.5 1566.01 3201.5 1582.67L3201.5 1703.33C3201.5 1719.99 3187.99 1733.5 3171.33 1733.5L2670.67 1733.5C2654.01 1733.5 2640.5 1719.99 2640.5 1703.33Z" stroke="#171717" stroke-width="6.875" stroke-miterlimit="8" fill="#FF7F0E" fill-rule="evenodd" fill-opacity="0.101961"/><text font-family="Arial,Arial_MSFontService,sans-serif" font-style="italic" font-weight="700" font-size="92" transform="matrix(1 0 0 1 2701.15 1677)">Opinion N</text><rect x="2722.5" y="1249.5" width="396" height="198" stroke="#000000" stroke-width="6.875" stroke-miterlimit="8" fill="#747474"/><text fill="#FFFFFF" font-family="Arial,Arial_MSFontService,sans-serif" font-weight="700" font-size="128" transform="matrix(1 0 0 1 2780.78 1396)">CNN</text><path d="M2926.88 1138 2926.88 1215.06 2913.13 1215.06 2913.13 1138ZM2940.63 1208.19 2920 1249.44 2899.38 1208.19Z" fill="#156082"/><path d="M6.875-2.35919e-05 6.87524 70.7941-6.87476 70.7941-6.875 2.35919e-05ZM20.6252 63.919 0.000360892 105.169-20.6248 63.9192Z" fill="#156082" transform="matrix(-1 0 0 1 2920 1447)"/><path d="M2926.88 1733 2926.88 1799.89 2913.13 1799.89 2913.13 1733ZM2940.63 1793.02 2920 1834.27 2899.38 1793.02Z" fill="#156082"/><text font-family="Arial,Arial_MSFontService,sans-serif" font-weight="700" font-size="183" transform="matrix(1 0 0 1 2316.08 1350)">…</text><path d="M0.00728821-6.875 96.6983-6.77249 96.6838 6.9775-0.00728821 6.875ZM89.8379-20.5298 131.066 0.138944 89.7942 20.7202Z" fill="#156082" transform="matrix(1 0 0 -1 2508 1982.14)"/><path d="M929.5 2181.48 2997 2181.48 2997 2154.5 3201.5 2237.5 2997 2320.5 2997 2293.52 929.5 2293.52Z" stroke="#0C445E" stroke-width="6.875" stroke-miterlimit="8" fill="url(#fill0)" fill-rule="evenodd"/><text font-family="Arial,Arial_MSFontService,sans-serif" font-weight="700" font-size="110" transform="matrix(1 0 0 1 1415.59 2278)">Increasing confidence</text><g><g><g><path d="M0 327.785 329.914 327.785 329.914 0 0 0Z" fill="#FFFFFF" transform="matrix(1 0 0 1.00065 1045.04 805)"/><g><path d="M0 327.785 329.914 327.785 329.914 0 0 0Z" transform="matrix(1 0 0 1.00065 1045.04 805)"/></g><g><path d="M0 4.43432C1.176 4.43432 2.30399 3.96709 3.13554 3.13554 3.96709 2.30399 4.43432 1.176 4.43432 0 4.43432-1.176 3.96709-2.30399 3.13554-3.13554 2.30399-3.96709 1.176-4.43432 0-4.43432-1.176-4.43432-2.30399-3.96709-3.13554-3.13554-3.96709-2.30399-4.43432-1.176-4.43432 0-4.43432 1.176-3.96709 2.30399-3.13554 3.13554-2.30399 3.96709-1.176 4.43432 0 4.43432Z" stroke="#030303" stroke-width="1.47811" stroke-linejoin="round" fill="#030303" transform="matrix(1 0 0 1.00065 1297.24 830.406)"/></g><g><path d="M0 4.43432C1.176 4.43432 2.30399 3.96709 3.13554 3.13554 3.96709 2.30399 4.43432 1.176 4.43432 0 4.43432-1.176 3.96709-2.30399 3.13554-3.13554 2.30399-3.96709 1.176-4.43432 0-4.43432-1.176-4.43432-2.30399-3.96709-3.13554-3.13554-3.96709-2.30399-4.43432-1.176-4.43432 0-4.43432 1.176-3.96709 2.30399-3.13554 3.13554-2.30399 3.96709-1.176 4.43432 0 4.43432Z" stroke="#757575" stroke-width="1.47811" stroke-linejoin="round" fill="#757575" transform="matrix(1 0 0 1.00065 1255.14 830.406)"/></g><g><path d="M0 4.43432C1.176 4.43432 2.30399 3.96709 3.13554 3.13554 3.96709 2.30399 4.43432 1.176 4.43432 0 4.43432-1.176 3.96709-2.30399 3.13554-3.13554 2.30399-3.96709 1.176-4.43432 0-4.43432-1.176-4.43432-2.30399-3.96709-3.13554-3.13554-3.96709-2.30399-4.43432-1.176-4.43432 0-4.43432 1.176-3.96709 2.30399-3.13554 3.13554-2.30399 3.96709-1.176 4.43432 0 4.43432Z" stroke="#040404" stroke-width="1.47811" stroke-linejoin="round" fill="#040404" transform="matrix(1 0 0 1.00065 1213.04 830.406)"/></g><g><path d="M0 4.43432C1.176 4.43432 2.30399 3.96709 3.13554 3.13554 3.96709 2.30399 4.43432 1.176 4.43432 0 4.43432-1.176 3.96709-2.30399 3.13554-3.13554 2.30399-3.96709 1.176-4.43432 0-4.43432-1.176-4.43432-2.30399-3.96709-3.13554-3.13554-3.96709-2.30399-4.43432-1.176-4.43432 0-4.43432 1.176-3.96709 2.30399-3.13554 3.13554-2.30399 3.96709-1.176 4.43432 0 4.43432Z" stroke="#757575" stroke-width="1.47811" stroke-linejoin="round" fill="#757575" transform="matrix(1 0 0 1.00065 1170.94 830.406)"/></g><g><path d="M0 4.43432C1.176 4.43432 2.30399 3.96709 3.13554 3.13554 3.96709 2.30399 4.43432 1.176 4.43432 0 4.43432-1.176 3.96709-2.30399 3.13554-3.13554 2.30399-3.96709 1.176-4.43432 0-4.43432-1.176-4.43432-2.30399-3.96709-3.13554-3.13554-3.96709-2.30399-4.43432-1.176-4.43432 0-4.43432 1.176-3.96709 2.30399-3.13554 3.13554-2.30399 3.96709-1.176 4.43432 0 4.43432Z" stroke="#030303" stroke-width="1.47811" stroke-linejoin="round" fill="#030303" transform="matrix(1 0 0 1.00065 1128.84 830.406)"/></g><g><path d="M0 4.43432C1.176 4.43432 2.30399 3.96709 3.13554 3.13554 3.96709 2.30399 4.43432 1.176 4.43432 0 4.43432-1.176 3.96709-2.30399 3.13554-3.13554 2.30399-3.96709 1.176-4.43432 0-4.43432-1.176-4.43432-2.30399-3.96709-3.13554-3.13554-3.96709-2.30399-4.43432-1.176-4.43432 0-4.43432 1.176-3.96709 2.30399-3.13554 3.13554-2.30399 3.96709-1.176 4.43432 0 4.43432Z" stroke="#686868" stroke-width="1.47811" stroke-linejoin="round" fill="#686868" transform="matrix(1 0 0 1.00065 1338.33 876.604)"/></g><g><path d="M0 4.43432C1.176 4.43432 2.30399 3.96709 3.13554 3.13554 3.96709 2.30399 4.43432 1.176 4.43432 0 4.43432-1.176 3.96709-2.30399 3.13554-3.13554 2.30399-3.96709 1.176-4.43432 0-4.43432-1.176-4.43432-2.30399-3.96709-3.13554-3.13554-3.96709-2.30399-4.43432-1.176-4.43432 0-4.43432 1.176-3.96709 2.30399-3.13554 3.13554-2.30399 3.96709-1.176 4.43432 0 4.43432Z" stroke="#4D4D4D" stroke-width="1.47811" stroke-linejoin="round" fill="#4D4D4D" transform="matrix(1 0 0 1.00065 1296.23 876.604)"/></g><g><path d="M0 4.43432C1.176 4.43432 2.30399 3.96709 3.13554 3.13554 3.96709 2.30399 4.43432 1.176 4.43432 0 4.43432-1.176 3.96709-2.30399 3.13554-3.13554 2.30399-3.96709 1.176-4.43432 0-4.43432-1.176-4.43432-2.30399-3.96709-3.13554-3.13554-3.96709-2.30399-4.43432-1.176-4.43432 0-4.43432 1.176-3.96709 2.30399-3.13554 3.13554-2.30399 3.96709-1.176 4.43432 0 4.43432Z" stroke="#919191" stroke-width="1.47811" stroke-linejoin="round" fill="#919191" transform="matrix(1 0 0 1.00065 1254.13 876.604)"/></g><g><path d="M0 4.43432C1.176 4.43432 2.30399 3.96709 3.13554 3.13554 3.96709 2.30399 4.43432 1.176 4.43432 0 4.43432-1.176 3.96709-2.30399 3.13554-3.13554 2.30399-3.96709 1.176-4.43432 0-4.43432-1.176-4.43432-2.30399-3.96709-3.13554-3.13554-3.96709-2.30399-4.43432-1.176-4.43432 0-4.43432 1.176-3.96709 2.30399-3.13554 3.13554-2.30399 3.96709-1.176 4.43432 0 4.43432Z" stroke="#626262" stroke-width="1.47811" stroke-linejoin="round" fill="#626262" transform="matrix(1 0 0 1.00065 1212.03 876.604)"/></g><g><path d="M0 4.43432C1.176 4.43432 2.30399 3.96709 3.13554 3.13554 3.96709 2.30399 4.43432 1.176 4.43432 0 4.43432-1.176 3.96709-2.30399 3.13554-3.13554 2.30399-3.96709 1.176-4.43432 0-4.43432-1.176-4.43432-2.30399-3.96709-3.13554-3.13554-3.96709-2.30399-4.43432-1.176-4.43432 0-4.43432 1.176-3.96709 2.30399-3.13554 3.13554-2.30399 3.96709-1.176 4.43432 0 4.43432Z" stroke="#919191" stroke-width="1.47811" stroke-linejoin="round" fill="#919191" transform="matrix(1 0 0 1.00065 1169.92 876.604)"/></g><g><path d="M0 4.43432C1.176 4.43432 2.30399 3.96709 3.13554 3.13554 3.96709 2.30399 4.43432 1.176 4.43432 0 4.43432-1.176 3.96709-2.30399 3.13554-3.13554 2.30399-3.96709 1.176-4.43432 0-4.43432-1.176-4.43432-2.30399-3.96709-3.13554-3.13554-3.96709-2.30399-4.43432-1.176-4.43432 0-4.43432 1.176-3.96709 2.30399-3.13554 3.13554-2.30399 3.96709-1.176 4.43432 0 4.43432Z" stroke="#4D4D4D" stroke-width="1.47811" stroke-linejoin="round" fill="#4D4D4D" transform="matrix(1 0 0 1.00065 1127.82 876.604)"/></g><g><path d="M0 4.43432C1.176 4.43432 2.30399 3.96709 3.13554 3.13554 3.96709 2.30399 4.43432 1.176 4.43432 0 4.43432-1.176 3.96709-2.30399 3.13554-3.13554 2.30399-3.96709 1.176-4.43432 0-4.43432-1.176-4.43432-2.30399-3.96709-3.13554-3.13554-3.96709-2.30399-4.43432-1.176-4.43432 0-4.43432 1.176-3.96709 2.30399-3.13554 3.13554-2.30399 3.96709-1.176 4.43432 0 4.43432Z" stroke="#686868" stroke-width="1.47811" stroke-linejoin="round" fill="#686868" transform="matrix(1 0 0 1.00065 1085.72 876.604)"/></g><g><path d="M0 4.43432C1.176 4.43432 2.30399 3.96709 3.13554 3.13554 3.96709 2.30399 4.43432 1.176 4.43432 0 4.43432-1.176 3.96709-2.30399 3.13554-3.13554 2.30399-3.96709 1.176-4.43432 0-4.43432-1.176-4.43432-2.30399-3.96709-3.13554-3.13554-3.96709-2.30399-4.43432-1.176-4.43432 0-4.43432 1.176-3.96709 2.30399-3.13554 3.13554-2.30399 3.96709-1.176 4.43432 0 4.43432Z" stroke="#121212" stroke-width="1.47811" stroke-linejoin="round" fill="#121212" transform="matrix(1 0 0 1.00065 1337.32 922.802)"/></g><g><path d="M0 4.43432C1.176 4.43432 2.30399 3.96709 3.13554 3.13554 3.96709 2.30399 4.43432 1.176 4.43432 0 4.43432-1.176 3.96709-2.30399 3.13554-3.13554 2.30399-3.96709 1.176-4.43432 0-4.43432-1.176-4.43432-2.30399-3.96709-3.13554-3.13554-3.96709-2.30399-4.43432-1.176-4.43432 0-4.43432 1.176-3.96709 2.30399-3.13554 3.13554-2.30399 3.96709-1.176 4.43432 0 4.43432Z" stroke="#898989" stroke-width="1.47811" stroke-linejoin="round" fill="#898989" transform="matrix(1 0 0 1.00065 1295.22 922.802)"/></g><g><path d="M0 4.43432C1.176 4.43432 2.30399 3.96709 3.13554 3.13554 3.96709 2.30399 4.43432 1.176 4.43432 0 4.43432-1.176 3.96709-2.30399 3.13554-3.13554 2.30399-3.96709 1.176-4.43432 0-4.43432-1.176-4.43432-2.30399-3.96709-3.13554-3.13554-3.96709-2.30399-4.43432-1.176-4.43432 0-4.43432 1.176-3.96709 2.30399-3.13554 3.13554-2.30399 3.96709-1.176 4.43432 0 4.43432Z" stroke="#191919" stroke-width="1.47811" stroke-linejoin="round" fill="#191919" transform="matrix(1 0 0 1.00065 1253.11 922.802)"/></g><g><path d="M0 4.43432C1.176 4.43432 2.30399 3.96709 3.13554 3.13554 3.96709 2.30399 4.43432 1.176 4.43432 0 4.43432-1.176 3.96709-2.30399 3.13554-3.13554 2.30399-3.96709 1.176-4.43432 0-4.43432-1.176-4.43432-2.30399-3.96709-3.13554-3.13554-3.96709-2.30399-4.43432-1.176-4.43432 0-4.43432 1.176-3.96709 2.30399-3.13554 3.13554-2.30399 3.96709-1.176 4.43432 0 4.43432Z" stroke="#949494" stroke-width="1.47811" stroke-linejoin="round" fill="#949494" transform="matrix(1 0 0 1.00065 1211.01 922.802)"/></g><g><path d="M0 4.43432C1.176 4.43432 2.30399 3.96709 3.13554 3.13554 3.96709 2.30399 4.43432 1.176 4.43432 0 4.43432-1.176 3.96709-2.30399 3.13554-3.13554 2.30399-3.96709 1.176-4.43432 0-4.43432-1.176-4.43432-2.30399-3.96709-3.13554-3.13554-3.96709-2.30399-4.43432-1.176-4.43432 0-4.43432 1.176-3.96709 2.30399-3.13554 3.13554-2.30399 3.96709-1.176 4.43432 0 4.43432Z" stroke="#191919" stroke-width="1.47811" stroke-linejoin="round" fill="#191919" transform="matrix(1 0 0 1.00065 1168.91 922.802)"/></g><g><path d="M0 4.43432C1.176 4.43432 2.30399 3.96709 3.13554 3.13554 3.96709 2.30399 4.43432 1.176 4.43432 0 4.43432-1.176 3.96709-2.30399 3.13554-3.13554 2.30399-3.96709 1.176-4.43432 0-4.43432-1.176-4.43432-2.30399-3.96709-3.13554-3.13554-3.96709-2.30399-4.43432-1.176-4.43432 0-4.43432 1.176-3.96709 2.30399-3.13554 3.13554-2.30399 3.96709-1.176 4.43432 0 4.43432Z" stroke="#898989" stroke-width="1.47811" stroke-linejoin="round" fill="#898989" transform="matrix(1 0 0 1.00065 1126.81 922.802)"/></g><g><path d="M0 4.43432C1.176 4.43432 2.30399 3.96709 3.13554 3.13554 3.96709 2.30399 4.43432 1.176 4.43432 0 4.43432-1.176 3.96709-2.30399 3.13554-3.13554 2.30399-3.96709 1.176-4.43432 0-4.43432-1.176-4.43432-2.30399-3.96709-3.13554-3.13554-3.96709-2.30399-4.43432-1.176-4.43432 0-4.43432 1.176-3.96709 2.30399-3.13554 3.13554-2.30399 3.96709-1.176 4.43432 0 4.43432Z" stroke="#121212" stroke-width="1.47811" stroke-linejoin="round" fill="#121212" transform="matrix(1 0 0 1.00065 1084.71 922.802)"/></g><g><path d="M0 4.43432C1.176 4.43432 2.30399 3.96709 3.13554 3.13554 3.96709 2.30399 4.43432 1.176 4.43432 0 4.43432-1.176 3.96709-2.30399 3.13554-3.13554 2.30399-3.96709 1.176-4.43432 0-4.43432-1.176-4.43432-2.30399-3.96709-3.13554-3.13554-3.96709-2.30399-4.43432-1.176-4.43432 0-4.43432 1.176-3.96709 2.30399-3.13554 3.13554-2.30399 3.96709-1.176 4.43432 0 4.43432Z" stroke="#000000" stroke-width="1.47811" stroke-linejoin="round" transform="matrix(1 0 0 1.00065 1336.3 969)"/></g><g><path d="M0 4.43432C1.176 4.43432 2.30399 3.96709 3.13554 3.13554 3.96709 2.30399 4.43432 1.176 4.43432 0 4.43432-1.176 3.96709-2.30399 3.13554-3.13554 2.30399-3.96709 1.176-4.43432 0-4.43432-1.176-4.43432-2.30399-3.96709-3.13554-3.13554-3.96709-2.30399-4.43432-1.176-4.43432 0-4.43432 1.176-3.96709 2.30399-3.13554 3.13554-2.30399 3.96709-1.176 4.43432 0 4.43432Z" stroke="#FFFFFF" stroke-width="1.47811" stroke-linejoin="round" fill="#FFFFFF" transform="matrix(1 0 0 1.00065 1294.2 969)"/></g><g><path d="M0 4.43432C1.176 4.43432 2.30399 3.96709 3.13554 3.13554 3.96709 2.30399 4.43432 1.176 4.43432 0 4.43432-1.176 3.96709-2.30399 3.13554-3.13554 2.30399-3.96709 1.176-4.43432 0-4.43432-1.176-4.43432-2.30399-3.96709-3.13554-3.13554-3.96709-2.30399-4.43432-1.176-4.43432 0-4.43432 1.176-3.96709 2.30399-3.13554 3.13554-2.30399 3.96709-1.176 4.43432 0 4.43432Z" stroke="#000000" stroke-width="1.47811" stroke-linejoin="round" transform="matrix(1 0 0 1.00065 1252.1 969)"/></g><g><path d="M0 4.43432C1.176 4.43432 2.30399 3.96709 3.13554 3.13554 3.96709 2.30399 4.43432 1.176 4.43432 0 4.43432-1.176 3.96709-2.30399 3.13554-3.13554 2.30399-3.96709 1.176-4.43432 0-4.43432-1.176-4.43432-2.30399-3.96709-3.13554-3.13554-3.96709-2.30399-4.43432-1.176-4.43432 0-4.43432 1.176-3.96709 2.30399-3.13554 3.13554-2.30399 3.96709-1.176 4.43432 0 4.43432Z" stroke="#000000" stroke-width="1.47811" stroke-linejoin="round" transform="matrix(1 0 0 1.00065 1167.9 969)"/></g><g><path d="M0 4.43432C1.176 4.43432 2.30399 3.96709 3.13554 3.13554 3.96709 2.30399 4.43432 1.176 4.43432 0 4.43432-1.176 3.96709-2.30399 3.13554-3.13554 2.30399-3.96709 1.176-4.43432 0-4.43432-1.176-4.43432-2.30399-3.96709-3.13554-3.13554-3.96709-2.30399-4.43432-1.176-4.43432 0-4.43432 1.176-3.96709 2.30399-3.13554 3.13554-2.30399 3.96709-1.176 4.43432 0 4.43432Z" stroke="#FFFFFF" stroke-width="1.47811" stroke-linejoin="round" fill="#FFFFFF" transform="matrix(1 0 0 1.00065 1125.8 969)"/></g><g><path d="M0 4.43432C1.176 4.43432 2.30399 3.96709 3.13554 3.13554 3.96709 2.30399 4.43432 1.176 4.43432 0 4.43432-1.176 3.96709-2.30399 3.13554-3.13554 2.30399-3.96709 1.176-4.43432 0-4.43432-1.176-4.43432-2.30399-3.96709-3.13554-3.13554-3.96709-2.30399-4.43432-1.176-4.43432 0-4.43432 1.176-3.96709 2.30399-3.13554 3.13554-2.30399 3.96709-1.176 4.43432 0 4.43432Z" stroke="#000000" stroke-width="1.47811" stroke-linejoin="round" transform="matrix(1 0 0 1.00065 1083.7 969)"/></g><g><path d="M0 4.43432C1.176 4.43432 2.30399 3.96709 3.13554 3.13554 3.96709 2.30399 4.43432 1.176 4.43432 0 4.43432-1.176 3.96709-2.30399 3.13554-3.13554 2.30399-3.96709 1.176-4.43432 0-4.43432-1.176-4.43432-2.30399-3.96709-3.13554-3.13554-3.96709-2.30399-4.43432-1.176-4.43432 0-4.43432 1.176-3.96709 2.30399-3.13554 3.13554-2.30399 3.96709-1.176 4.43432 0 4.43432Z" stroke="#121212" stroke-width="1.47811" stroke-linejoin="round" fill="#121212" transform="matrix(1 0 0 1.00065 1335.29 1015.2)"/></g><g><path d="M0 4.43432C1.176 4.43432 2.30399 3.96709 3.13554 3.13554 3.96709 2.30399 4.43432 1.176 4.43432 0 4.43432-1.176 3.96709-2.30399 3.13554-3.13554 2.30399-3.96709 1.176-4.43432 0-4.43432-1.176-4.43432-2.30399-3.96709-3.13554-3.13554-3.96709-2.30399-4.43432-1.176-4.43432 0-4.43432 1.176-3.96709 2.30399-3.13554 3.13554-2.30399 3.96709-1.176 4.43432 0 4.43432Z" stroke="#898989" stroke-width="1.47811" stroke-linejoin="round" fill="#898989" transform="matrix(1 0 0 1.00065 1293.19 1015.2)"/></g><g><path d="M0 4.43432C1.176 4.43432 2.30399 3.96709 3.13554 3.13554 3.96709 2.30399 4.43432 1.176 4.43432 0 4.43432-1.176 3.96709-2.30399 3.13554-3.13554 2.30399-3.96709 1.176-4.43432 0-4.43432-1.176-4.43432-2.30399-3.96709-3.13554-3.13554-3.96709-2.30399-4.43432-1.176-4.43432 0-4.43432 1.176-3.96709 2.30399-3.13554 3.13554-2.30399 3.96709-1.176 4.43432 0 4.43432Z" stroke="#191919" stroke-width="1.47811" stroke-linejoin="round" fill="#191919" transform="matrix(1 0 0 1.00065 1251.09 1015.2)"/></g><g><path d="M0 4.43432C1.176 4.43432 2.30399 3.96709 3.13554 3.13554 3.96709 2.30399 4.43432 1.176 4.43432 0 4.43432-1.176 3.96709-2.30399 3.13554-3.13554 2.30399-3.96709 1.176-4.43432 0-4.43432-1.176-4.43432-2.30399-3.96709-3.13554-3.13554-3.96709-2.30399-4.43432-1.176-4.43432 0-4.43432 1.176-3.96709 2.30399-3.13554 3.13554-2.30399 3.96709-1.176 4.43432 0 4.43432Z" stroke="#949494" stroke-width="1.47811" stroke-linejoin="round" fill="#949494" transform="matrix(1 0 0 1.00065 1208.99 1015.2)"/></g><g><path d="M0 4.43432C1.176 4.43432 2.30399 3.96709 3.13554 3.13554 3.96709 2.30399 4.43432 1.176 4.43432 0 4.43432-1.176 3.96709-2.30399 3.13554-3.13554 2.30399-3.96709 1.176-4.43432 0-4.43432-1.176-4.43432-2.30399-3.96709-3.13554-3.13554-3.96709-2.30399-4.43432-1.176-4.43432 0-4.43432 1.176-3.96709 2.30399-3.13554 3.13554-2.30399 3.96709-1.176 4.43432 0 4.43432Z" stroke="#191919" stroke-width="1.47811" stroke-linejoin="round" fill="#191919" transform="matrix(1 0 0 1.00065 1166.89 1015.2)"/></g><g><path d="M0 4.43432C1.176 4.43432 2.30399 3.96709 3.13554 3.13554 3.96709 2.30399 4.43432 1.176 4.43432 0 4.43432-1.176 3.96709-2.30399 3.13554-3.13554 2.30399-3.96709 1.176-4.43432 0-4.43432-1.176-4.43432-2.30399-3.96709-3.13554-3.13554-3.96709-2.30399-4.43432-1.176-4.43432 0-4.43432 1.176-3.96709 2.30399-3.13554 3.13554-2.30399 3.96709-1.176 4.43432 0 4.43432Z" stroke="#898989" stroke-width="1.47811" stroke-linejoin="round" fill="#898989" transform="matrix(1 0 0 1.00065 1124.78 1015.2)"/></g><g><path d="M0 4.43432C1.176 4.43432 2.30399 3.96709 3.13554 3.13554 3.96709 2.30399 4.43432 1.176 4.43432 0 4.43432-1.176 3.96709-2.30399 3.13554-3.13554 2.30399-3.96709 1.176-4.43432 0-4.43432-1.176-4.43432-2.30399-3.96709-3.13554-3.13554-3.96709-2.30399-4.43432-1.176-4.43432 0-4.43432 1.176-3.96709 2.30399-3.13554 3.13554-2.30399 3.96709-1.176 4.43432 0 4.43432Z" stroke="#121212" stroke-width="1.47811" stroke-linejoin="round" fill="#121212" transform="matrix(1 0 0 1.00065 1082.68 1015.2)"/></g><g><path d="M0 4.43432C1.176 4.43432 2.30399 3.96709 3.13554 3.13554 3.96709 2.30399 4.43432 1.176 4.43432 0 4.43432-1.176 3.96709-2.30399 3.13554-3.13554 2.30399-3.96709 1.176-4.43432 0-4.43432-1.176-4.43432-2.30399-3.96709-3.13554-3.13554-3.96709-2.30399-4.43432-1.176-4.43432 0-4.43432 1.176-3.96709 2.30399-3.13554 3.13554-2.30399 3.96709-1.176 4.43432 0 4.43432Z" stroke="#686868" stroke-width="1.47811" stroke-linejoin="round" fill="#686868" transform="matrix(1 0 0 1.00065 1334.28 1061.4)"/></g><g><path d="M0 4.43432C1.176 4.43432 2.30399 3.96709 3.13554 3.13554 3.96709 2.30399 4.43432 1.176 4.43432 0 4.43432-1.176 3.96709-2.30399 3.13554-3.13554 2.30399-3.96709 1.176-4.43432 0-4.43432-1.176-4.43432-2.30399-3.96709-3.13554-3.13554-3.96709-2.30399-4.43432-1.176-4.43432 0-4.43432 1.176-3.96709 2.30399-3.13554 3.13554-2.30399 3.96709-1.176 4.43432 0 4.43432Z" stroke="#4D4D4D" stroke-width="1.47811" stroke-linejoin="round" fill="#4D4D4D" transform="matrix(1 0 0 1.00065 1292.18 1061.4)"/></g><g><path d="M0 4.43432C1.176 4.43432 2.30399 3.96709 3.13554 3.13554 3.96709 2.30399 4.43432 1.176 4.43432 0 4.43432-1.176 3.96709-2.30399 3.13554-3.13554 2.30399-3.96709 1.176-4.43432 0-4.43432-1.176-4.43432-2.30399-3.96709-3.13554-3.13554-3.96709-2.30399-4.43432-1.176-4.43432 0-4.43432 1.176-3.96709 2.30399-3.13554 3.13554-2.30399 3.96709-1.176 4.43432 0 4.43432Z" stroke="#919191" stroke-width="1.47811" stroke-linejoin="round" fill="#919191" transform="matrix(1 0 0 1.00065 1250.08 1061.4)"/></g><g><path d="M0 4.43432C1.176 4.43432 2.30399 3.96709 3.13554 3.13554 3.96709 2.30399 4.43432 1.176 4.43432 0 4.43432-1.176 3.96709-2.30399 3.13554-3.13554 2.30399-3.96709 1.176-4.43432 0-4.43432-1.176-4.43432-2.30399-3.96709-3.13554-3.13554-3.96709-2.30399-4.43432-1.176-4.43432 0-4.43432 1.176-3.96709 2.30399-3.13554 3.13554-2.30399 3.96709-1.176 4.43432 0 4.43432Z" stroke="#626262" stroke-width="1.47811" stroke-linejoin="round" fill="#626262" transform="matrix(1 0 0 1.00065 1207.97 1061.4)"/></g><g><path d="M0 4.43432C1.176 4.43432 2.30399 3.96709 3.13554 3.13554 3.96709 2.30399 4.43432 1.176 4.43432 0 4.43432-1.176 3.96709-2.30399 3.13554-3.13554 2.30399-3.96709 1.176-4.43432 0-4.43432-1.176-4.43432-2.30399-3.96709-3.13554-3.13554-3.96709-2.30399-4.43432-1.176-4.43432 0-4.43432 1.176-3.96709 2.30399-3.13554 3.13554-2.30399 3.96709-1.176 4.43432 0 4.43432Z" stroke="#919191" stroke-width="1.47811" stroke-linejoin="round" fill="#919191" transform="matrix(1 0 0 1.00065 1165.87 1061.4)"/></g><g><path d="M0 4.43432C1.176 4.43432 2.30399 3.96709 3.13554 3.13554 3.96709 2.30399 4.43432 1.176 4.43432 0 4.43432-1.176 3.96709-2.30399 3.13554-3.13554 2.30399-3.96709 1.176-4.43432 0-4.43432-1.176-4.43432-2.30399-3.96709-3.13554-3.13554-3.96709-2.30399-4.43432-1.176-4.43432 0-4.43432 1.176-3.96709 2.30399-3.13554 3.13554-2.30399 3.96709-1.176 4.43432 0 4.43432Z" stroke="#4D4D4D" stroke-width="1.47811" stroke-linejoin="round" fill="#4D4D4D" transform="matrix(1 0 0 1.00065 1123.77 1061.4)"/></g><g><path d="M0 4.43432C1.176 4.43432 2.30399 3.96709 3.13554 3.13554 3.96709 2.30399 4.43432 1.176 4.43432 0 4.43432-1.176 3.96709-2.30399 3.13554-3.13554 2.30399-3.96709 1.176-4.43432 0-4.43432-1.176-4.43432-2.30399-3.96709-3.13554-3.13554-3.96709-2.30399-4.43432-1.176-4.43432 0-4.43432 1.176-3.96709 2.30399-3.13554 3.13554-2.30399 3.96709-1.176 4.43432 0 4.43432Z" stroke="#686868" stroke-width="1.47811" stroke-linejoin="round" fill="#686868" transform="matrix(1 0 0 1.00065 1081.67 1061.4)"/></g><g><path d="M0 4.43432C1.176 4.43432 2.30399 3.96709 3.13554 3.13554 3.96709 2.30399 4.43432 1.176 4.43432 0 4.43432-1.176 3.96709-2.30399 3.13554-3.13554 2.30399-3.96709 1.176-4.43432 0-4.43432-1.176-4.43432-2.30399-3.96709-3.13554-3.13554-3.96709-2.30399-4.43432-1.176-4.43432 0-4.43432 1.176-3.96709 2.30399-3.13554 3.13554-2.30399 3.96709-1.176 4.43432 0 4.43432Z" stroke="#030303" stroke-width="1.47811" stroke-linejoin="round" fill="#030303" transform="matrix(1 0 0 1.00065 1291.16 1107.59)"/></g><g><path d="M0 4.43432C1.176 4.43432 2.30399 3.96709 3.13554 3.13554 3.96709 2.30399 4.43432 1.176 4.43432 0 4.43432-1.176 3.96709-2.30399 3.13554-3.13554 2.30399-3.96709 1.176-4.43432 0-4.43432-1.176-4.43432-2.30399-3.96709-3.13554-3.13554-3.96709-2.30399-4.43432-1.176-4.43432 0-4.43432 1.176-3.96709 2.30399-3.13554 3.13554-2.30399 3.96709-1.176 4.43432 0 4.43432Z" stroke="#757575" stroke-width="1.47811" stroke-linejoin="round" fill="#757575" transform="matrix(1 0 0 1.00065 1249.06 1107.59)"/></g><g><path d="M0 4.43432C1.176 4.43432 2.30399 3.96709 3.13554 3.13554 3.96709 2.30399 4.43432 1.176 4.43432 0 4.43432-1.176 3.96709-2.30399 3.13554-3.13554 2.30399-3.96709 1.176-4.43432 0-4.43432-1.176-4.43432-2.30399-3.96709-3.13554-3.13554-3.96709-2.30399-4.43432-1.176-4.43432 0-4.43432 1.176-3.96709 2.30399-3.13554 3.13554-2.30399 3.96709-1.176 4.43432 0 4.43432Z" stroke="#040404" stroke-width="1.47811" stroke-linejoin="round" fill="#040404" transform="matrix(1 0 0 1.00065 1206.96 1107.59)"/></g><g><path d="M0 4.43432C1.176 4.43432 2.30399 3.96709 3.13554 3.13554 3.96709 2.30399 4.43432 1.176 4.43432 0 4.43432-1.176 3.96709-2.30399 3.13554-3.13554 2.30399-3.96709 1.176-4.43432 0-4.43432-1.176-4.43432-2.30399-3.96709-3.13554-3.13554-3.96709-2.30399-4.43432-1.176-4.43432 0-4.43432 1.176-3.96709 2.30399-3.13554 3.13554-2.30399 3.96709-1.176 4.43432 0 4.43432Z" stroke="#757575" stroke-width="1.47811" stroke-linejoin="round" fill="#757575" transform="matrix(1 0 0 1.00065 1164.86 1107.59)"/></g><g><path d="M0 4.43432C1.176 4.43432 2.30399 3.96709 3.13554 3.13554 3.96709 2.30399 4.43432 1.176 4.43432 0 4.43432-1.176 3.96709-2.30399 3.13554-3.13554 2.30399-3.96709 1.176-4.43432 0-4.43432-1.176-4.43432-2.30399-3.96709-3.13554-3.13554-3.96709-2.30399-4.43432-1.176-4.43432 0-4.43432 1.176-3.96709 2.30399-3.13554 3.13554-2.30399 3.96709-1.176 4.43432 0 4.43432Z" stroke="#030303" stroke-width="1.47811" stroke-linejoin="round" fill="#030303" transform="matrix(1 0 0 1.00065 1122.76 1107.59)"/></g></g></g></g><path d="M1045.5 804.5 1375.5 804.5 1375.5 1134.5 1045.5 1134.5Z" stroke="#1F77B4" stroke-width="20.625" stroke-miterlimit="8" fill="none" fill-rule="evenodd"/><g><g><g><path d="M0 327.785 329.914 327.785 329.914 0 0 0Z" fill="#FFFFFF" transform="matrix(1 0 0 1.00065 1751.04 806)"/><g><path d="M0 327.785 329.914 327.785 329.914 0 0 0Z" transform="matrix(1 0 0 1.00065 1751.04 806)"/></g><g><path d="M0 4.43432C1.176 4.43432 2.30399 3.96709 3.13554 3.13554 3.96709 2.30399 4.43432 1.176 4.43432 0 4.43432-1.176 3.96709-2.30399 3.13554-3.13554 2.30399-3.96709 1.176-4.43432 0-4.43432-1.176-4.43432-2.30399-3.96709-3.13554-3.13554-3.96709-2.30399-4.43432-1.176-4.43432 0-4.43432 1.176-3.96709 2.30399-3.13554 3.13554-2.30399 3.96709-1.176 4.43432 0 4.43432Z" stroke="#000000" stroke-width="1.47811" stroke-linejoin="round" transform="matrix(1 0 0 1.00065 1966.87 1116.47)"/></g><g><path d="M0 4.43432C1.176 4.43432 2.30399 3.96709 3.13554 3.13554 3.96709 2.30399 4.43432 1.176 4.43432 0 4.43432-1.176 3.96709-2.30399 3.13554-3.13554 2.30399-3.96709 1.176-4.43432 0-4.43432-1.176-4.43432-2.30399-3.96709-3.13554-3.13554-3.96709-2.30399-4.43432-1.176-4.43432 0-4.43432 1.176-3.96709 2.30399-3.13554 3.13554-2.30399 3.96709-1.176 4.43432 0 4.43432Z" stroke="#898989" stroke-width="1.47811" stroke-linejoin="round" fill="#898989" transform="matrix(1 0 0 1.00065 1941.43 1116.47)"/></g><g><path d="M0 4.43432C1.176 4.43432 2.30399 3.96709 3.13554 3.13554 3.96709 2.30399 4.43432 1.176 4.43432 0 4.43432-1.176 3.96709-2.30399 3.13554-3.13554 2.30399-3.96709 1.176-4.43432 0-4.43432-1.176-4.43432-2.30399-3.96709-3.13554-3.13554-3.96709-2.30399-4.43432-1.176-4.43432 0-4.43432 1.176-3.96709 2.30399-3.13554 3.13554-2.30399 3.96709-1.176 4.43432 0 4.43432Z" stroke="#040404" stroke-width="1.47811" stroke-linejoin="round" fill="#040404" transform="matrix(1 0 0 1.00065 1916 1116.47)"/></g><g><path d="M0 4.43432C1.176 4.43432 2.30399 3.96709 3.13554 3.13554 3.96709 2.30399 4.43432 1.176 4.43432 0 4.43432-1.176 3.96709-2.30399 3.13554-3.13554 2.30399-3.96709 1.176-4.43432 0-4.43432-1.176-4.43432-2.30399-3.96709-3.13554-3.13554-3.96709-2.30399-4.43432-1.176-4.43432 0-4.43432 1.176-3.96709 2.30399-3.13554 3.13554-2.30399 3.96709-1.176 4.43432 0 4.43432Z" stroke="#626262" stroke-width="1.47811" stroke-linejoin="round" fill="#626262" transform="matrix(1 0 0 1.00065 1890.57 1116.47)"/></g><g><path d="M0 4.43432C1.176 4.43432 2.30399 3.96709 3.13554 3.13554 3.96709 2.30399 4.43432 1.176 4.43432 0 4.43432-1.176 3.96709-2.30399 3.13554-3.13554 2.30399-3.96709 1.176-4.43432 0-4.43432-1.176-4.43432-2.30399-3.96709-3.13554-3.13554-3.96709-2.30399-4.43432-1.176-4.43432 0-4.43432 1.176-3.96709 2.30399-3.13554 3.13554-2.30399 3.96709-1.176 4.43432 0 4.43432Z" stroke="#020202" stroke-width="1.47811" stroke-linejoin="round" fill="#020202" transform="matrix(1 0 0 1.00065 1865.13 1116.47)"/></g><g><path d="M0 4.43432C1.176 4.43432 2.30399 3.96709 3.13554 3.13554 3.96709 2.30399 4.43432 1.176 4.43432 0 4.43432-1.176 3.96709-2.30399 3.13554-3.13554 2.30399-3.96709 1.176-4.43432 0-4.43432-1.176-4.43432-2.30399-3.96709-3.13554-3.13554-3.96709-2.30399-4.43432-1.176-4.43432 0-4.43432 1.176-3.96709 2.30399-3.13554 3.13554-2.30399 3.96709-1.176 4.43432 0 4.43432Z" stroke="#010101" stroke-width="1.47811" stroke-linejoin="round" fill="#010101" transform="matrix(1 0 0 1.00065 2068.61 970)"/></g><g><path d="M0 4.43432C1.176 4.43432 2.30399 3.96709 3.13554 3.13554 3.96709 2.30399 4.43432 1.176 4.43432 0 4.43432-1.176 3.96709-2.30399 3.13554-3.13554 2.30399-3.96709 1.176-4.43432 0-4.43432-1.176-4.43432-2.30399-3.96709-3.13554-3.13554-3.96709-2.30399-4.43432-1.176-4.43432 0-4.43432 1.176-3.96709 2.30399-3.13554 3.13554-2.30399 3.96709-1.176 4.43432 0 4.43432Z" stroke="#000000" stroke-width="1.47811" stroke-linejoin="round" transform="matrix(1 0 0 1.00065 2043.17 970)"/></g><g><path d="M0 4.43432C1.176 4.43432 2.30399 3.96709 3.13554 3.13554 3.96709 2.30399 4.43432 1.176 4.43432 0 4.43432-1.176 3.96709-2.30399 3.13554-3.13554 2.30399-3.96709 1.176-4.43432 0-4.43432-1.176-4.43432-2.30399-3.96709-3.13554-3.13554-3.96709-2.30399-4.43432-1.176-4.43432 0-4.43432 1.176-3.96709 2.30399-3.13554 3.13554-2.30399 3.96709-1.176 4.43432 0 4.43432Z" stroke="#FFFFFF" stroke-width="1.47811" stroke-linejoin="round" fill="#FFFFFF" transform="matrix(1 0 0 1.00065 2017.74 970)"/></g><g><path d="M0 4.43432C1.176 4.43432 2.30399 3.96709 3.13554 3.13554 3.96709 2.30399 4.43432 1.176 4.43432 0 4.43432-1.176 3.96709-2.30399 3.13554-3.13554 2.30399-3.96709 1.176-4.43432 0-4.43432-1.176-4.43432-2.30399-3.96709-3.13554-3.13554-3.96709-2.30399-4.43432-1.176-4.43432 0-4.43432 1.176-3.96709 2.30399-3.13554 3.13554-2.30399 3.96709-1.176 4.43432 0 4.43432Z" stroke="#000000" stroke-width="1.47811" stroke-linejoin="round" transform="matrix(1 0 0 1.00065 1992.3 970)"/></g><g><path d="M0 4.43432C1.176 4.43432 2.30399 3.96709 3.13554 3.13554 3.96709 2.30399 4.43432 1.176 4.43432 0 4.43432-1.176 3.96709-2.30399 3.13554-3.13554 2.30399-3.96709 1.176-4.43432 0-4.43432-1.176-4.43432-2.30399-3.96709-3.13554-3.13554-3.96709-2.30399-4.43432-1.176-4.43432 0-4.43432 1.176-3.96709 2.30399-3.13554 3.13554-2.30399 3.96709-1.176 4.43432 0 4.43432Z" stroke="#ABABAB" stroke-width="1.47811" stroke-linejoin="round" fill="#ABABAB" transform="matrix(1 0 0 1.00065 1966.87 970)"/></g><g><path d="M0 4.43432C1.176 4.43432 2.30399 3.96709 3.13554 3.13554 3.96709 2.30399 4.43432 1.176 4.43432 0 4.43432-1.176 3.96709-2.30399 3.13554-3.13554 2.30399-3.96709 1.176-4.43432 0-4.43432-1.176-4.43432-2.30399-3.96709-3.13554-3.13554-3.96709-2.30399-4.43432-1.176-4.43432 0-4.43432 1.176-3.96709 2.30399-3.13554 3.13554-2.30399 3.96709-1.176 4.43432 0 4.43432Z" stroke="#000000" stroke-width="1.47811" stroke-linejoin="round" transform="matrix(1 0 0 1.00065 1941.43 970)"/></g><g><path d="M0 4.43432C1.176 4.43432 2.30399 3.96709 3.13554 3.13554 3.96709 2.30399 4.43432 1.176 4.43432 0 4.43432-1.176 3.96709-2.30399 3.13554-3.13554 2.30399-3.96709 1.176-4.43432 0-4.43432-1.176-4.43432-2.30399-3.96709-3.13554-3.13554-3.96709-2.30399-4.43432-1.176-4.43432 0-4.43432 1.176-3.96709 2.30399-3.13554 3.13554-2.30399 3.96709-1.176 4.43432 0 4.43432Z" stroke="#000000" stroke-width="1.47811" stroke-linejoin="round" transform="matrix(1 0 0 1.00065 1890.57 970)"/></g><g><path d="M0 4.43432C1.176 4.43432 2.30399 3.96709 3.13554 3.13554 3.96709 2.30399 4.43432 1.176 4.43432 0 4.43432-1.176 3.96709-2.30399 3.13554-3.13554 2.30399-3.96709 1.176-4.43432 0-4.43432-1.176-4.43432-2.30399-3.96709-3.13554-3.13554-3.96709-2.30399-4.43432-1.176-4.43432 0-4.43432 1.176-3.96709 2.30399-3.13554 3.13554-2.30399 3.96709-1.176 4.43432 0 4.43432Z" stroke="#ABABAB" stroke-width="1.47811" stroke-linejoin="round" fill="#ABABAB" transform="matrix(1 0 0 1.00065 1865.13 970)"/></g><g><path d="M0 4.43432C1.176 4.43432 2.30399 3.96709 3.13554 3.13554 3.96709 2.30399 4.43432 1.176 4.43432 0 4.43432-1.176 3.96709-2.30399 3.13554-3.13554 2.30399-3.96709 1.176-4.43432 0-4.43432-1.176-4.43432-2.30399-3.96709-3.13554-3.13554-3.96709-2.30399-4.43432-1.176-4.43432 0-4.43432 1.176-3.96709 2.30399-3.13554 3.13554-2.30399 3.96709-1.176 4.43432 0 4.43432Z" stroke="#000000" stroke-width="1.47811" stroke-linejoin="round" transform="matrix(1 0 0 1.00065 1839.7 970)"/></g><g><path d="M0 4.43432C1.176 4.43432 2.30399 3.96709 3.13554 3.13554 3.96709 2.30399 4.43432 1.176 4.43432 0 4.43432-1.176 3.96709-2.30399 3.13554-3.13554 2.30399-3.96709 1.176-4.43432 0-4.43432-1.176-4.43432-2.30399-3.96709-3.13554-3.13554-3.96709-2.30399-4.43432-1.176-4.43432 0-4.43432 1.176-3.96709 2.30399-3.13554 3.13554-2.30399 3.96709-1.176 4.43432 0 4.43432Z" stroke="#FFFFFF" stroke-width="1.47811" stroke-linejoin="round" fill="#FFFFFF" transform="matrix(1 0 0 1.00065 1814.26 970)"/></g><g><path d="M0 4.43432C1.176 4.43432 2.30399 3.96709 3.13554 3.13554 3.96709 2.30399 4.43432 1.176 4.43432 0 4.43432-1.176 3.96709-2.30399 3.13554-3.13554 2.30399-3.96709 1.176-4.43432 0-4.43432-1.176-4.43432-2.30399-3.96709-3.13554-3.13554-3.96709-2.30399-4.43432-1.176-4.43432 0-4.43432 1.176-3.96709 2.30399-3.13554 3.13554-2.30399 3.96709-1.176 4.43432 0 4.43432Z" stroke="#000000" stroke-width="1.47811" stroke-linejoin="round" transform="matrix(1 0 0 1.00065 1788.83 970)"/></g><g><path d="M0 4.43432C1.176 4.43432 2.30399 3.96709 3.13554 3.13554 3.96709 2.30399 4.43432 1.176 4.43432 0 4.43432-1.176 3.96709-2.30399 3.13554-3.13554 2.30399-3.96709 1.176-4.43432 0-4.43432-1.176-4.43432-2.30399-3.96709-3.13554-3.13554-3.96709-2.30399-4.43432-1.176-4.43432 0-4.43432 1.176-3.96709 2.30399-3.13554 3.13554-2.30399 3.96709-1.176 4.43432 0 4.43432Z" stroke="#010101" stroke-width="1.47811" stroke-linejoin="round" fill="#010101" transform="matrix(1 0 0 1.00065 1763.39 970)"/></g><g><path d="M0 4.43432C1.176 4.43432 2.30399 3.96709 3.13554 3.13554 3.96709 2.30399 4.43432 1.176 4.43432 0 4.43432-1.176 3.96709-2.30399 3.13554-3.13554 2.30399-3.96709 1.176-4.43432 0-4.43432-1.176-4.43432-2.30399-3.96709-3.13554-3.13554-3.96709-2.30399-4.43432-1.176-4.43432 0-4.43432 1.176-3.96709 2.30399-3.13554 3.13554-2.30399 3.96709-1.176 4.43432 0 4.43432Z" stroke="#020202" stroke-width="1.47811" stroke-linejoin="round" fill="#020202" transform="matrix(1 0 0 1.00065 1966.87 823.529)"/></g><g><path d="M0 4.43432C1.176 4.43432 2.30399 3.96709 3.13554 3.13554 3.96709 2.30399 4.43432 1.176 4.43432 0 4.43432-1.176 3.96709-2.30399 3.13554-3.13554 2.30399-3.96709 1.176-4.43432 0-4.43432-1.176-4.43432-2.30399-3.96709-3.13554-3.13554-3.96709-2.30399-4.43432-1.176-4.43432 0-4.43432 1.176-3.96709 2.30399-3.13554 3.13554-2.30399 3.96709-1.176 4.43432 0 4.43432Z" stroke="#626262" stroke-width="1.47811" stroke-linejoin="round" fill="#626262" transform="matrix(1 0 0 1.00065 1941.43 823.529)"/></g><g><path d="M0 4.43432C1.176 4.43432 2.30399 3.96709 3.13554 3.13554 3.96709 2.30399 4.43432 1.176 4.43432 0 4.43432-1.176 3.96709-2.30399 3.13554-3.13554 2.30399-3.96709 1.176-4.43432 0-4.43432-1.176-4.43432-2.30399-3.96709-3.13554-3.13554-3.96709-2.30399-4.43432-1.176-4.43432 0-4.43432 1.176-3.96709 2.30399-3.13554 3.13554-2.30399 3.96709-1.176 4.43432 0 4.43432Z" stroke="#040404" stroke-width="1.47811" stroke-linejoin="round" fill="#040404" transform="matrix(1 0 0 1.00065 1916 823.529)"/></g><g><path d="M0 4.43432C1.176 4.43432 2.30399 3.96709 3.13554 3.13554 3.96709 2.30399 4.43432 1.176 4.43432 0 4.43432-1.176 3.96709-2.30399 3.13554-3.13554 2.30399-3.96709 1.176-4.43432 0-4.43432-1.176-4.43432-2.30399-3.96709-3.13554-3.13554-3.96709-2.30399-4.43432-1.176-4.43432 0-4.43432 1.176-3.96709 2.30399-3.13554 3.13554-2.30399 3.96709-1.176 4.43432 0 4.43432Z" stroke="#898989" stroke-width="1.47811" stroke-linejoin="round" fill="#898989" transform="matrix(1 0 0 1.00065 1890.57 823.529)"/></g><g><path d="M0 4.43432C1.176 4.43432 2.30399 3.96709 3.13554 3.13554 3.96709 2.30399 4.43432 1.176 4.43432 0 4.43432-1.176 3.96709-2.30399 3.13554-3.13554 2.30399-3.96709 1.176-4.43432 0-4.43432-1.176-4.43432-2.30399-3.96709-3.13554-3.13554-3.96709-2.30399-4.43432-1.176-4.43432 0-4.43432 1.176-3.96709 2.30399-3.13554 3.13554-2.30399 3.96709-1.176 4.43432 0 4.43432Z" stroke="#000000" stroke-width="1.47811" stroke-linejoin="round" transform="matrix(1 0 0 1.00065 1865.13 823.529)"/></g></g></g></g><path d="M1751.5 805.5 2081.5 805.5 2081.5 1135.5 1751.5 1135.5Z" stroke="#FF7F0E" stroke-width="20.625" stroke-miterlimit="8" fill="none" fill-rule="evenodd"/><g><g><g><path d="M0 327.785 329.914 327.785 329.914 0 0 0Z" stroke="#000000" stroke-width="1.47811" stroke-linejoin="round" fill="#FFFFFF" transform="matrix(1 0 0 1.00066 2755.04 810)"/><g><path d="M0 327.785 329.914 327.785 329.914 0 0 0Z" stroke="#000000" stroke-width="1.47811" stroke-linejoin="round" transform="matrix(1 0 0 1.00066 2755.04 810)"/></g><g><path d="M0 4.43432C1.176 4.43432 2.30399 3.96709 3.13554 3.13554 3.96709 2.30399 4.43432 1.176 4.43432 0 4.43432-1.176 3.96709-2.30399 3.13554-3.13554 2.30399-3.96709 1.176-4.43432 0-4.43432-1.176-4.43432-2.30399-3.96709-3.13554-3.13554-3.96709-2.30399-4.43432-1.176-4.43432 0-4.43432 1.176-3.96709 2.30399-3.13554 3.13554-2.30399 3.96709-1.176 4.43432 0 4.43432Z" stroke="#000000" stroke-width="1.47811" stroke-linejoin="round" fill="#090909" transform="matrix(1 0 0 1.00066 2989.6 832.663)"/></g><g><path d="M0 4.43432C1.176 4.43432 2.30399 3.96709 3.13554 3.13554 3.96709 2.30399 4.43432 1.176 4.43432 0 4.43432-1.176 3.96709-2.30399 3.13554-3.13554 2.30399-3.96709 1.176-4.43432 0-4.43432-1.176-4.43432-2.30399-3.96709-3.13554-3.13554-3.96709-2.30399-4.43432-1.176-4.43432 0-4.43432 1.176-3.96709 2.30399-3.13554 3.13554-2.30399 3.96709-1.176 4.43432 0 4.43432Z" stroke="#000000" stroke-width="1.47811" stroke-linejoin="round" fill="#030303" transform="matrix(1 0 0 1.00066 2954.8 832.663)"/></g><g><path d="M0 4.43432C1.176 4.43432 2.30399 3.96709 3.13554 3.13554 3.96709 2.30399 4.43432 1.176 4.43432 0 4.43432-1.176 3.96709-2.30399 3.13554-3.13554 2.30399-3.96709 1.176-4.43432 0-4.43432-1.176-4.43432-2.30399-3.96709-3.13554-3.13554-3.96709-2.30399-4.43432-1.176-4.43432 0-4.43432 1.176-3.96709 2.30399-3.13554 3.13554-2.30399 3.96709-1.176 4.43432 0 4.43432Z" stroke="#000000" stroke-width="1.47811" stroke-linejoin="round" fill="#030303" transform="matrix(1 0 0 1.00066 2920 832.663)"/></g><g><path d="M0 4.43432C1.176 4.43432 2.30399 3.96709 3.13554 3.13554 3.96709 2.30399 4.43432 1.176 4.43432 0 4.43432-1.176 3.96709-2.30399 3.13554-3.13554 2.30399-3.96709 1.176-4.43432 0-4.43432-1.176-4.43432-2.30399-3.96709-3.13554-3.13554-3.96709-2.30399-4.43432-1.176-4.43432 0-4.43432 1.176-3.96709 2.30399-3.13554 3.13554-2.30399 3.96709-1.176 4.43432 0 4.43432Z" stroke="#000000" stroke-width="1.47811" stroke-linejoin="round" fill="#030303" transform="matrix(1 0 0 1.00066 2885.2 832.663)"/></g><g><path d="M0 4.43432C1.176 4.43432 2.30399 3.96709 3.13554 3.13554 3.96709 2.30399 4.43432 1.176 4.43432 0 4.43432-1.176 3.96709-2.30399 3.13554-3.13554 2.30399-3.96709 1.176-4.43432 0-4.43432-1.176-4.43432-2.30399-3.96709-3.13554-3.13554-3.96709-2.30399-4.43432-1.176-4.43432 0-4.43432 1.176-3.96709 2.30399-3.13554 3.13554-2.30399 3.96709-1.176 4.43432 0 4.43432Z" stroke="#000000" stroke-width="1.47811" stroke-linejoin="round" fill="#090909" transform="matrix(1 0 0 1.00066 2850.4 832.663)"/></g><g><path d="M0 4.43432C1.176 4.43432 2.30399 3.96709 3.13554 3.13554 3.96709 2.30399 4.43432 1.176 4.43432 0 4.43432-1.176 3.96709-2.30399 3.13554-3.13554 2.30399-3.96709 1.176-4.43432 0-4.43432-1.176-4.43432-2.30399-3.96709-3.13554-3.13554-3.96709-2.30399-4.43432-1.176-4.43432 0-4.43432 1.176-3.96709 2.30399-3.13554 3.13554-2.30399 3.96709-1.176 4.43432 0 4.43432Z" stroke="#000000" stroke-width="1.47811" stroke-linejoin="round" fill="#161616" transform="matrix(1 0 0 1.00066 3024.39 879.775)"/></g><g><path d="M0 4.43432C1.176 4.43432 2.30399 3.96709 3.13554 3.13554 3.96709 2.30399 4.43432 1.176 4.43432 0 4.43432-1.176 3.96709-2.30399 3.13554-3.13554 2.30399-3.96709 1.176-4.43432 0-4.43432-1.176-4.43432-2.30399-3.96709-3.13554-3.13554-3.96709-2.30399-4.43432-1.176-4.43432 0-4.43432 1.176-3.96709 2.30399-3.13554 3.13554-2.30399 3.96709-1.176 4.43432 0 4.43432Z" stroke="#000000" stroke-width="1.47811" stroke-linejoin="round" fill="#3D3D3D" transform="matrix(1 0 0 1.00066 2989.6 879.775)"/></g><g><path d="M0 4.43432C1.176 4.43432 2.30399 3.96709 3.13554 3.13554 3.96709 2.30399 4.43432 1.176 4.43432 0 4.43432-1.176 3.96709-2.30399 3.13554-3.13554 2.30399-3.96709 1.176-4.43432 0-4.43432-1.176-4.43432-2.30399-3.96709-3.13554-3.13554-3.96709-2.30399-4.43432-1.176-4.43432 0-4.43432 1.176-3.96709 2.30399-3.13554 3.13554-2.30399 3.96709-1.176 4.43432 0 4.43432Z" stroke="#000000" stroke-width="1.47811" stroke-linejoin="round" fill="#101010" transform="matrix(1 0 0 1.00066 2954.8 879.775)"/></g><g><path d="M0 4.43432C1.176 4.43432 2.30399 3.96709 3.13554 3.13554 3.96709 2.30399 4.43432 1.176 4.43432 0 4.43432-1.176 3.96709-2.30399 3.13554-3.13554 2.30399-3.96709 1.176-4.43432 0-4.43432-1.176-4.43432-2.30399-3.96709-3.13554-3.13554-3.96709-2.30399-4.43432-1.176-4.43432 0-4.43432 1.176-3.96709 2.30399-3.13554 3.13554-2.30399 3.96709-1.176 4.43432 0 4.43432Z" stroke="#000000" stroke-width="1.47811" stroke-linejoin="round" fill="#5C5C5C" transform="matrix(1 0 0 1.00066 2920 879.775)"/></g><g><path d="M0 4.43432C1.176 4.43432 2.30399 3.96709 3.13554 3.13554 3.96709 2.30399 4.43432 1.176 4.43432 0 4.43432-1.176 3.96709-2.30399 3.13554-3.13554 2.30399-3.96709 1.176-4.43432 0-4.43432-1.176-4.43432-2.30399-3.96709-3.13554-3.13554-3.96709-2.30399-4.43432-1.176-4.43432 0-4.43432 1.176-3.96709 2.30399-3.13554 3.13554-2.30399 3.96709-1.176 4.43432 0 4.43432Z" stroke="#000000" stroke-width="1.47811" stroke-linejoin="round" fill="#101010" transform="matrix(1 0 0 1.00066 2885.2 879.775)"/></g><g><path d="M0 4.43432C1.176 4.43432 2.30399 3.96709 3.13554 3.13554 3.96709 2.30399 4.43432 1.176 4.43432 0 4.43432-1.176 3.96709-2.30399 3.13554-3.13554 2.30399-3.96709 1.176-4.43432 0-4.43432-1.176-4.43432-2.30399-3.96709-3.13554-3.13554-3.96709-2.30399-4.43432-1.176-4.43432 0-4.43432 1.176-3.96709 2.30399-3.13554 3.13554-2.30399 3.96709-1.176 4.43432 0 4.43432Z" stroke="#000000" stroke-width="1.47811" stroke-linejoin="round" fill="#3D3D3D" transform="matrix(1 0 0 1.00066 2850.4 879.775)"/></g><g><path d="M0 4.43432C1.176 4.43432 2.30399 3.96709 3.13554 3.13554 3.96709 2.30399 4.43432 1.176 4.43432 0 4.43432-1.176 3.96709-2.30399 3.13554-3.13554 2.30399-3.96709 1.176-4.43432 0-4.43432-1.176-4.43432-2.30399-3.96709-3.13554-3.13554-3.96709-2.30399-4.43432-1.176-4.43432 0-4.43432 1.176-3.96709 2.30399-3.13554 3.13554-2.30399 3.96709-1.176 4.43432 0 4.43432Z" stroke="#000000" stroke-width="1.47811" stroke-linejoin="round" fill="#161616" transform="matrix(1 0 0 1.00066 2815.61 879.775)"/></g><g><path d="M0 4.43432C1.176 4.43432 2.30399 3.96709 3.13554 3.13554 3.96709 2.30399 4.43432 1.176 4.43432 0 4.43432-1.176 3.96709-2.30399 3.13554-3.13554 2.30399-3.96709 1.176-4.43432 0-4.43432-1.176-4.43432-2.30399-3.96709-3.13554-3.13554-3.96709-2.30399-4.43432-1.176-4.43432 0-4.43432 1.176-3.96709 2.30399-3.13554 3.13554-2.30399 3.96709-1.176 4.43432 0 4.43432Z" stroke="#000000" stroke-width="1.47811" stroke-linejoin="round" fill="#010101" transform="matrix(1 0 0 1.00066 3059.19 926.888)"/></g><g><path d="M0 4.43432C1.176 4.43432 2.30399 3.96709 3.13554 3.13554 3.96709 2.30399 4.43432 1.176 4.43432 0 4.43432-1.176 3.96709-2.30399 3.13554-3.13554 2.30399-3.96709 1.176-4.43432 0-4.43432-1.176-4.43432-2.30399-3.96709-3.13554-3.13554-3.96709-2.30399-4.43432-1.176-4.43432 0-4.43432 1.176-3.96709 2.30399-3.13554 3.13554-2.30399 3.96709-1.176 4.43432 0 4.43432Z" stroke="#000000" stroke-width="1.47811" stroke-linejoin="round" fill="#727272" transform="matrix(1 0 0 1.00066 3024.39 926.888)"/></g><g><path d="M0 4.43432C1.176 4.43432 2.30399 3.96709 3.13554 3.13554 3.96709 2.30399 4.43432 1.176 4.43432 0 4.43432-1.176 3.96709-2.30399 3.13554-3.13554 2.30399-3.96709 1.176-4.43432 0-4.43432-1.176-4.43432-2.30399-3.96709-3.13554-3.13554-3.96709-2.30399-4.43432-1.176-4.43432 0-4.43432 1.176-3.96709 2.30399-3.13554 3.13554-2.30399 3.96709-1.176 4.43432 0 4.43432Z" stroke="#000000" stroke-width="1.47811" stroke-linejoin="round" fill="#858585" transform="matrix(1 0 0 1.00066 2989.6 926.888)"/></g><g><path d="M0 4.43432C1.176 4.43432 2.30399 3.96709 3.13554 3.13554 3.96709 2.30399 4.43432 1.176 4.43432 0 4.43432-1.176 3.96709-2.30399 3.13554-3.13554 2.30399-3.96709 1.176-4.43432 0-4.43432-1.176-4.43432-2.30399-3.96709-3.13554-3.13554-3.96709-2.30399-4.43432-1.176-4.43432 0-4.43432 1.176-3.96709 2.30399-3.13554 3.13554-2.30399 3.96709-1.176 4.43432 0 4.43432Z" stroke="#000000" stroke-width="1.47811" stroke-linejoin="round" fill="#777777" transform="matrix(1 0 0 1.00066 2954.8 926.888)"/></g><g><path d="M0 4.43432C1.176 4.43432 2.30399 3.96709 3.13554 3.13554 3.96709 2.30399 4.43432 1.176 4.43432 0 4.43432-1.176 3.96709-2.30399 3.13554-3.13554 2.30399-3.96709 1.176-4.43432 0-4.43432-1.176-4.43432-2.30399-3.96709-3.13554-3.13554-3.96709-2.30399-4.43432-1.176-4.43432 0-4.43432 1.176-3.96709 2.30399-3.13554 3.13554-2.30399 3.96709-1.176 4.43432 0 4.43432Z" stroke="#000000" stroke-width="1.47811" stroke-linejoin="round" fill="#8C8C8C" transform="matrix(1 0 0 1.00066 2920 926.888)"/></g><g><path d="M0 4.43432C1.176 4.43432 2.30399 3.96709 3.13554 3.13554 3.96709 2.30399 4.43432 1.176 4.43432 0 4.43432-1.176 3.96709-2.30399 3.13554-3.13554 2.30399-3.96709 1.176-4.43432 0-4.43432-1.176-4.43432-2.30399-3.96709-3.13554-3.13554-3.96709-2.30399-4.43432-1.176-4.43432 0-4.43432 1.176-3.96709 2.30399-3.13554 3.13554-2.30399 3.96709-1.176 4.43432 0 4.43432Z" stroke="#000000" stroke-width="1.47811" stroke-linejoin="round" fill="#777777" transform="matrix(1 0 0 1.00066 2885.2 926.888)"/></g><g><path d="M0 4.43432C1.176 4.43432 2.30399 3.96709 3.13554 3.13554 3.96709 2.30399 4.43432 1.176 4.43432 0 4.43432-1.176 3.96709-2.30399 3.13554-3.13554 2.30399-3.96709 1.176-4.43432 0-4.43432-1.176-4.43432-2.30399-3.96709-3.13554-3.13554-3.96709-2.30399-4.43432-1.176-4.43432 0-4.43432 1.176-3.96709 2.30399-3.13554 3.13554-2.30399 3.96709-1.176 4.43432 0 4.43432Z" stroke="#000000" stroke-width="1.47811" stroke-linejoin="round" fill="#858585" transform="matrix(1 0 0 1.00066 2850.4 926.888)"/></g><g><path d="M0 4.43432C1.176 4.43432 2.30399 3.96709 3.13554 3.13554 3.96709 2.30399 4.43432 1.176 4.43432 0 4.43432-1.176 3.96709-2.30399 3.13554-3.13554 2.30399-3.96709 1.176-4.43432 0-4.43432-1.176-4.43432-2.30399-3.96709-3.13554-3.13554-3.96709-2.30399-4.43432-1.176-4.43432 0-4.43432 1.176-3.96709 2.30399-3.13554 3.13554-2.30399 3.96709-1.176 4.43432 0 4.43432Z" stroke="#000000" stroke-width="1.47811" stroke-linejoin="round" fill="#727272" transform="matrix(1 0 0 1.00066 2815.61 926.888)"/></g><g><path d="M0 4.43432C1.176 4.43432 2.30399 3.96709 3.13554 3.13554 3.96709 2.30399 4.43432 1.176 4.43432 0 4.43432-1.176 3.96709-2.30399 3.13554-3.13554 2.30399-3.96709 1.176-4.43432 0-4.43432-1.176-4.43432-2.30399-3.96709-3.13554-3.13554-3.96709-2.30399-4.43432-1.176-4.43432 0-4.43432 1.176-3.96709 2.30399-3.13554 3.13554-2.30399 3.96709-1.176 4.43432 0 4.43432Z" stroke="#000000" stroke-width="1.47811" stroke-linejoin="round" fill="#010101" transform="matrix(1 0 0 1.00066 2780.81 926.888)"/></g><g><path d="M0 4.43432C1.176 4.43432 2.30399 3.96709 3.13554 3.13554 3.96709 2.30399 4.43432 1.176 4.43432 0 4.43432-1.176 3.96709-2.30399 3.13554-3.13554 2.30399-3.96709 1.176-4.43432 0-4.43432-1.176-4.43432-2.30399-3.96709-3.13554-3.13554-3.96709-2.30399-4.43432-1.176-4.43432 0-4.43432 1.176-3.96709 2.30399-3.13554 3.13554-2.30399 3.96709-1.176 4.43432 0 4.43432Z" stroke="#000000" stroke-width="1.47811" stroke-linejoin="round" fill="#212121" transform="matrix(1 0 0 1.00066 3059.19 974)"/></g><g><path d="M0 4.43432C1.176 4.43432 2.30399 3.96709 3.13554 3.13554 3.96709 2.30399 4.43432 1.176 4.43432 0 4.43432-1.176 3.96709-2.30399 3.13554-3.13554 2.30399-3.96709 1.176-4.43432 0-4.43432-1.176-4.43432-2.30399-3.96709-3.13554-3.13554-3.96709-2.30399-4.43432-1.176-4.43432 0-4.43432 1.176-3.96709 2.30399-3.13554 3.13554-2.30399 3.96709-1.176 4.43432 0 4.43432Z" stroke="#000000" stroke-width="1.47811" stroke-linejoin="round" fill="#FFFFFF" transform="matrix(1 0 0 1.00066 3024.39 974)"/></g><g><path d="M0 4.43432C1.176 4.43432 2.30399 3.96709 3.13554 3.13554 3.96709 2.30399 4.43432 1.176 4.43432 0 4.43432-1.176 3.96709-2.30399 3.13554-3.13554 2.30399-3.96709 1.176-4.43432 0-4.43432-1.176-4.43432-2.30399-3.96709-3.13554-3.13554-3.96709-2.30399-4.43432-1.176-4.43432 0-4.43432 1.176-3.96709 2.30399-3.13554 3.13554-2.30399 3.96709-1.176 4.43432 0 4.43432Z" stroke="#000000" stroke-width="1.47811" stroke-linejoin="round" fill="#4C4C4C" transform="matrix(1 0 0 1.00066 2989.6 974)"/></g><g><path d="M0 4.43432C1.176 4.43432 2.30399 3.96709 3.13554 3.13554 3.96709 2.30399 4.43432 1.176 4.43432 0 4.43432-1.176 3.96709-2.30399 3.13554-3.13554 2.30399-3.96709 1.176-4.43432 0-4.43432-1.176-4.43432-2.30399-3.96709-3.13554-3.13554-3.96709-2.30399-4.43432-1.176-4.43432 0-4.43432 1.176-3.96709 2.30399-3.13554 3.13554-2.30399 3.96709-1.176 4.43432 0 4.43432Z" stroke="#000000" stroke-width="1.47811" stroke-linejoin="round" fill="#070707" transform="matrix(1 0 0 1.00066 2954.8 974)"/></g><g><path d="M0 4.43432C1.176 4.43432 2.30399 3.96709 3.13554 3.13554 3.96709 2.30399 4.43432 1.176 4.43432 0 4.43432-1.176 3.96709-2.30399 3.13554-3.13554 2.30399-3.96709 1.176-4.43432 0-4.43432-1.176-4.43432-2.30399-3.96709-3.13554-3.13554-3.96709-2.30399-4.43432-1.176-4.43432 0-4.43432 1.176-3.96709 2.30399-3.13554 3.13554-2.30399 3.96709-1.176 4.43432 0 4.43432Z" stroke="#000000" stroke-width="1.47811" stroke-linejoin="round" fill="#070707" transform="matrix(1 0 0 1.00066 2885.2 974)"/></g><g><path d="M0 4.43432C1.176 4.43432 2.30399 3.96709 3.13554 3.13554 3.96709 2.30399 4.43432 1.176 4.43432 0 4.43432-1.176 3.96709-2.30399 3.13554-3.13554 2.30399-3.96709 1.176-4.43432 0-4.43432-1.176-4.43432-2.30399-3.96709-3.13554-3.13554-3.96709-2.30399-4.43432-1.176-4.43432 0-4.43432 1.176-3.96709 2.30399-3.13554 3.13554-2.30399 3.96709-1.176 4.43432 0 4.43432Z" stroke="#000000" stroke-width="1.47811" stroke-linejoin="round" fill="#4C4C4C" transform="matrix(1 0 0 1.00066 2850.4 974)"/></g><g><path d="M0 4.43432C1.176 4.43432 2.30399 3.96709 3.13554 3.13554 3.96709 2.30399 4.43432 1.176 4.43432 0 4.43432-1.176 3.96709-2.30399 3.13554-3.13554 2.30399-3.96709 1.176-4.43432 0-4.43432-1.176-4.43432-2.30399-3.96709-3.13554-3.13554-3.96709-2.30399-4.43432-1.176-4.43432 0-4.43432 1.176-3.96709 2.30399-3.13554 3.13554-2.30399 3.96709-1.176 4.43432 0 4.43432Z" stroke="#000000" stroke-width="1.47811" stroke-linejoin="round" fill="#FFFFFF" transform="matrix(1 0 0 1.00066 2815.61 974)"/></g><g><path d="M0 4.43432C1.176 4.43432 2.30399 3.96709 3.13554 3.13554 3.96709 2.30399 4.43432 1.176 4.43432 0 4.43432-1.176 3.96709-2.30399 3.13554-3.13554 2.30399-3.96709 1.176-4.43432 0-4.43432-1.176-4.43432-2.30399-3.96709-3.13554-3.13554-3.96709-2.30399-4.43432-1.176-4.43432 0-4.43432 1.176-3.96709 2.30399-3.13554 3.13554-2.30399 3.96709-1.176 4.43432 0 4.43432Z" stroke="#000000" stroke-width="1.47811" stroke-linejoin="round" fill="#212121" transform="matrix(1 0 0 1.00066 2780.81 974)"/></g><g><path d="M0 4.43432C1.176 4.43432 2.30399 3.96709 3.13554 3.13554 3.96709 2.30399 4.43432 1.176 4.43432 0 4.43432-1.176 3.96709-2.30399 3.13554-3.13554 2.30399-3.96709 1.176-4.43432 0-4.43432-1.176-4.43432-2.30399-3.96709-3.13554-3.13554-3.96709-2.30399-4.43432-1.176-4.43432 0-4.43432 1.176-3.96709 2.30399-3.13554 3.13554-2.30399 3.96709-1.176 4.43432 0 4.43432Z" stroke="#000000" stroke-width="1.47811" stroke-linejoin="round" fill="#010101" transform="matrix(1 0 0 1.00066 3059.19 1021.11)"/></g><g><path d="M0 4.43432C1.176 4.43432 2.30399 3.96709 3.13554 3.13554 3.96709 2.30399 4.43432 1.176 4.43432 0 4.43432-1.176 3.96709-2.30399 3.13554-3.13554 2.30399-3.96709 1.176-4.43432 0-4.43432-1.176-4.43432-2.30399-3.96709-3.13554-3.13554-3.96709-2.30399-4.43432-1.176-4.43432 0-4.43432 1.176-3.96709 2.30399-3.13554 3.13554-2.30399 3.96709-1.176 4.43432 0 4.43432Z" stroke="#000000" stroke-width="1.47811" stroke-linejoin="round" fill="#727272" transform="matrix(1 0 0 1.00066 3024.39 1021.11)"/></g><g><path d="M0 4.43432C1.176 4.43432 2.30399 3.96709 3.13554 3.13554 3.96709 2.30399 4.43432 1.176 4.43432 0 4.43432-1.176 3.96709-2.30399 3.13554-3.13554 2.30399-3.96709 1.176-4.43432 0-4.43432-1.176-4.43432-2.30399-3.96709-3.13554-3.13554-3.96709-2.30399-4.43432-1.176-4.43432 0-4.43432 1.176-3.96709 2.30399-3.13554 3.13554-2.30399 3.96709-1.176 4.43432 0 4.43432Z" stroke="#000000" stroke-width="1.47811" stroke-linejoin="round" fill="#858585" transform="matrix(1 0 0 1.00066 2989.6 1021.11)"/></g><g><path d="M0 4.43432C1.176 4.43432 2.30399 3.96709 3.13554 3.13554 3.96709 2.30399 4.43432 1.176 4.43432 0 4.43432-1.176 3.96709-2.30399 3.13554-3.13554 2.30399-3.96709 1.176-4.43432 0-4.43432-1.176-4.43432-2.30399-3.96709-3.13554-3.13554-3.96709-2.30399-4.43432-1.176-4.43432 0-4.43432 1.176-3.96709 2.30399-3.13554 3.13554-2.30399 3.96709-1.176 4.43432 0 4.43432Z" stroke="#000000" stroke-width="1.47811" stroke-linejoin="round" fill="#777777" transform="matrix(1 0 0 1.00066 2954.8 1021.11)"/></g><g><path d="M0 4.43432C1.176 4.43432 2.30399 3.96709 3.13554 3.13554 3.96709 2.30399 4.43432 1.176 4.43432 0 4.43432-1.176 3.96709-2.30399 3.13554-3.13554 2.30399-3.96709 1.176-4.43432 0-4.43432-1.176-4.43432-2.30399-3.96709-3.13554-3.13554-3.96709-2.30399-4.43432-1.176-4.43432 0-4.43432 1.176-3.96709 2.30399-3.13554 3.13554-2.30399 3.96709-1.176 4.43432 0 4.43432Z" stroke="#000000" stroke-width="1.47811" stroke-linejoin="round" fill="#8C8C8C" transform="matrix(1 0 0 1.00066 2920 1021.11)"/></g><g><path d="M0 4.43432C1.176 4.43432 2.30399 3.96709 3.13554 3.13554 3.96709 2.30399 4.43432 1.176 4.43432 0 4.43432-1.176 3.96709-2.30399 3.13554-3.13554 2.30399-3.96709 1.176-4.43432 0-4.43432-1.176-4.43432-2.30399-3.96709-3.13554-3.13554-3.96709-2.30399-4.43432-1.176-4.43432 0-4.43432 1.176-3.96709 2.30399-3.13554 3.13554-2.30399 3.96709-1.176 4.43432 0 4.43432Z" stroke="#000000" stroke-width="1.47811" stroke-linejoin="round" fill="#777777" transform="matrix(1 0 0 1.00066 2885.2 1021.11)"/></g><g><path d="M0 4.43432C1.176 4.43432 2.30399 3.96709 3.13554 3.13554 3.96709 2.30399 4.43432 1.176 4.43432 0 4.43432-1.176 3.96709-2.30399 3.13554-3.13554 2.30399-3.96709 1.176-4.43432 0-4.43432-1.176-4.43432-2.30399-3.96709-3.13554-3.13554-3.96709-2.30399-4.43432-1.176-4.43432 0-4.43432 1.176-3.96709 2.30399-3.13554 3.13554-2.30399 3.96709-1.176 4.43432 0 4.43432Z" stroke="#000000" stroke-width="1.47811" stroke-linejoin="round" fill="#858585" transform="matrix(1 0 0 1.00066 2850.4 1021.11)"/></g><g><path d="M0 4.43432C1.176 4.43432 2.30399 3.96709 3.13554 3.13554 3.96709 2.30399 4.43432 1.176 4.43432 0 4.43432-1.176 3.96709-2.30399 3.13554-3.13554 2.30399-3.96709 1.176-4.43432 0-4.43432-1.176-4.43432-2.30399-3.96709-3.13554-3.13554-3.96709-2.30399-4.43432-1.176-4.43432 0-4.43432 1.176-3.96709 2.30399-3.13554 3.13554-2.30399 3.96709-1.176 4.43432 0 4.43432Z" stroke="#000000" stroke-width="1.47811" stroke-linejoin="round" fill="#727272" transform="matrix(1 0 0 1.00066 2815.61 1021.11)"/></g><g><path d="M0 4.43432C1.176 4.43432 2.30399 3.96709 3.13554 3.13554 3.96709 2.30399 4.43432 1.176 4.43432 0 4.43432-1.176 3.96709-2.30399 3.13554-3.13554 2.30399-3.96709 1.176-4.43432 0-4.43432-1.176-4.43432-2.30399-3.96709-3.13554-3.13554-3.96709-2.30399-4.43432-1.176-4.43432 0-4.43432 1.176-3.96709 2.30399-3.13554 3.13554-2.30399 3.96709-1.176 4.43432 0 4.43432Z" stroke="#000000" stroke-width="1.47811" stroke-linejoin="round" fill="#010101" transform="matrix(1 0 0 1.00066 2780.81 1021.11)"/></g><g><path d="M0 4.43432C1.176 4.43432 2.30399 3.96709 3.13554 3.13554 3.96709 2.30399 4.43432 1.176 4.43432 0 4.43432-1.176 3.96709-2.30399 3.13554-3.13554 2.30399-3.96709 1.176-4.43432 0-4.43432-1.176-4.43432-2.30399-3.96709-3.13554-3.13554-3.96709-2.30399-4.43432-1.176-4.43432 0-4.43432 1.176-3.96709 2.30399-3.13554 3.13554-2.30399 3.96709-1.176 4.43432 0 4.43432Z" stroke="#000000" stroke-width="1.47811" stroke-linejoin="round" fill="#161616" transform="matrix(1 0 0 1.00066 3024.39 1068.22)"/></g><g><path d="M0 4.43432C1.176 4.43432 2.30399 3.96709 3.13554 3.13554 3.96709 2.30399 4.43432 1.176 4.43432 0 4.43432-1.176 3.96709-2.30399 3.13554-3.13554 2.30399-3.96709 1.176-4.43432 0-4.43432-1.176-4.43432-2.30399-3.96709-3.13554-3.13554-3.96709-2.30399-4.43432-1.176-4.43432 0-4.43432 1.176-3.96709 2.30399-3.13554 3.13554-2.30399 3.96709-1.176 4.43432 0 4.43432Z" stroke="#000000" stroke-width="1.47811" stroke-linejoin="round" fill="#3D3D3D" transform="matrix(1 0 0 1.00066 2989.6 1068.22)"/></g><g><path d="M0 4.43432C1.176 4.43432 2.30399 3.96709 3.13554 3.13554 3.96709 2.30399 4.43432 1.176 4.43432 0 4.43432-1.176 3.96709-2.30399 3.13554-3.13554 2.30399-3.96709 1.176-4.43432 0-4.43432-1.176-4.43432-2.30399-3.96709-3.13554-3.13554-3.96709-2.30399-4.43432-1.176-4.43432 0-4.43432 1.176-3.96709 2.30399-3.13554 3.13554-2.30399 3.96709-1.176 4.43432 0 4.43432Z" stroke="#000000" stroke-width="1.47811" stroke-linejoin="round" fill="#101010" transform="matrix(1 0 0 1.00066 2954.8 1068.22)"/></g><g><path d="M0 4.43432C1.176 4.43432 2.30399 3.96709 3.13554 3.13554 3.96709 2.30399 4.43432 1.176 4.43432 0 4.43432-1.176 3.96709-2.30399 3.13554-3.13554 2.30399-3.96709 1.176-4.43432 0-4.43432-1.176-4.43432-2.30399-3.96709-3.13554-3.13554-3.96709-2.30399-4.43432-1.176-4.43432 0-4.43432 1.176-3.96709 2.30399-3.13554 3.13554-2.30399 3.96709-1.176 4.43432 0 4.43432Z" stroke="#000000" stroke-width="1.47811" stroke-linejoin="round" fill="#5C5C5C" transform="matrix(1 0 0 1.00066 2920 1068.22)"/></g><g><path d="M0 4.43432C1.176 4.43432 2.30399 3.96709 3.13554 3.13554 3.96709 2.30399 4.43432 1.176 4.43432 0 4.43432-1.176 3.96709-2.30399 3.13554-3.13554 2.30399-3.96709 1.176-4.43432 0-4.43432-1.176-4.43432-2.30399-3.96709-3.13554-3.13554-3.96709-2.30399-4.43432-1.176-4.43432 0-4.43432 1.176-3.96709 2.30399-3.13554 3.13554-2.30399 3.96709-1.176 4.43432 0 4.43432Z" stroke="#000000" stroke-width="1.47811" stroke-linejoin="round" fill="#101010" transform="matrix(1 0 0 1.00066 2885.2 1068.22)"/></g><g><path d="M0 4.43432C1.176 4.43432 2.30399 3.96709 3.13554 3.13554 3.96709 2.30399 4.43432 1.176 4.43432 0 4.43432-1.176 3.96709-2.30399 3.13554-3.13554 2.30399-3.96709 1.176-4.43432 0-4.43432-1.176-4.43432-2.30399-3.96709-3.13554-3.13554-3.96709-2.30399-4.43432-1.176-4.43432 0-4.43432 1.176-3.96709 2.30399-3.13554 3.13554-2.30399 3.96709-1.176 4.43432 0 4.43432Z" stroke="#000000" stroke-width="1.47811" stroke-linejoin="round" fill="#3D3D3D" transform="matrix(1 0 0 1.00066 2850.4 1068.22)"/></g><g><path d="M0 4.43432C1.176 4.43432 2.30399 3.96709 3.13554 3.13554 3.96709 2.30399 4.43432 1.176 4.43432 0 4.43432-1.176 3.96709-2.30399 3.13554-3.13554 2.30399-3.96709 1.176-4.43432 0-4.43432-1.176-4.43432-2.30399-3.96709-3.13554-3.13554-3.96709-2.30399-4.43432-1.176-4.43432 0-4.43432 1.176-3.96709 2.30399-3.13554 3.13554-2.30399 3.96709-1.176 4.43432 0 4.43432Z" stroke="#000000" stroke-width="1.47811" stroke-linejoin="round" fill="#161616" transform="matrix(1 0 0 1.00066 2815.61 1068.22)"/></g><g><path d="M0 4.43432C1.176 4.43432 2.30399 3.96709 3.13554 3.13554 3.96709 2.30399 4.43432 1.176 4.43432 0 4.43432-1.176 3.96709-2.30399 3.13554-3.13554 2.30399-3.96709 1.176-4.43432 0-4.43432-1.176-4.43432-2.30399-3.96709-3.13554-3.13554-3.96709-2.30399-4.43432-1.176-4.43432 0-4.43432 1.176-3.96709 2.30399-3.13554 3.13554-2.30399 3.96709-1.176 4.43432 0 4.43432Z" stroke="#000000" stroke-width="1.47811" stroke-linejoin="round" fill="#090909" transform="matrix(1 0 0 1.00066 2989.6 1115.34)"/></g><g><path d="M0 4.43432C1.176 4.43432 2.30399 3.96709 3.13554 3.13554 3.96709 2.30399 4.43432 1.176 4.43432 0 4.43432-1.176 3.96709-2.30399 3.13554-3.13554 2.30399-3.96709 1.176-4.43432 0-4.43432-1.176-4.43432-2.30399-3.96709-3.13554-3.13554-3.96709-2.30399-4.43432-1.176-4.43432 0-4.43432 1.176-3.96709 2.30399-3.13554 3.13554-2.30399 3.96709-1.176 4.43432 0 4.43432Z" stroke="#000000" stroke-width="1.47811" stroke-linejoin="round" fill="#030303" transform="matrix(1 0 0 1.00066 2954.8 1115.34)"/></g><g><path d="M0 4.43432C1.176 4.43432 2.30399 3.96709 3.13554 3.13554 3.96709 2.30399 4.43432 1.176 4.43432 0 4.43432-1.176 3.96709-2.30399 3.13554-3.13554 2.30399-3.96709 1.176-4.43432 0-4.43432-1.176-4.43432-2.30399-3.96709-3.13554-3.13554-3.96709-2.30399-4.43432-1.176-4.43432 0-4.43432 1.176-3.96709 2.30399-3.13554 3.13554-2.30399 3.96709-1.176 4.43432 0 4.43432Z" stroke="#000000" stroke-width="1.47811" stroke-linejoin="round" fill="#030303" transform="matrix(1 0 0 1.00066 2920 1115.34)"/></g><g><path d="M0 4.43432C1.176 4.43432 2.30399 3.96709 3.13554 3.13554 3.96709 2.30399 4.43432 1.176 4.43432 0 4.43432-1.176 3.96709-2.30399 3.13554-3.13554 2.30399-3.96709 1.176-4.43432 0-4.43432-1.176-4.43432-2.30399-3.96709-3.13554-3.13554-3.96709-2.30399-4.43432-1.176-4.43432 0-4.43432 1.176-3.96709 2.30399-3.13554 3.13554-2.30399 3.96709-1.176 4.43432 0 4.43432Z" stroke="#000000" stroke-width="1.47811" stroke-linejoin="round" fill="#030303" transform="matrix(1 0 0 1.00066 2885.2 1115.34)"/></g><g><path d="M0 4.43432C1.176 4.43432 2.30399 3.96709 3.13554 3.13554 3.96709 2.30399 4.43432 1.176 4.43432 0 4.43432-1.176 3.96709-2.30399 3.13554-3.13554 2.30399-3.96709 1.176-4.43432 0-4.43432-1.176-4.43432-2.30399-3.96709-3.13554-3.13554-3.96709-2.30399-4.43432-1.176-4.43432 0-4.43432 1.176-3.96709 2.30399-3.13554 3.13554-2.30399 3.96709-1.176 4.43432 0 4.43432Z" stroke="#000000" stroke-width="1.47811" stroke-linejoin="round" fill="#090909" transform="matrix(1 0 0 1.00066 2850.4 1115.34)"/></g></g></g></g><path d="M2755.5 809.5 3085.5 809.5 3085.5 1139.5 2755.5 1139.5Z" stroke="#D62728" stroke-width="20.625" stroke-miterlimit="8" fill="none" fill-rule="evenodd"/><path d="M929.5 647.484 2997 647.484 2997 620.5 3201.5 703.501 2997 786.5 2997 759.516 929.5 759.516Z" stroke="#0C445E" stroke-width="6.875" stroke-miterlimit="8" fill="none" fill-rule="evenodd"/><text font-family="Arial,Arial_MSFontService,sans-serif" font-weight="700" font-size="110" transform="matrix(1 0 0 1 1618.54 744)">Multiple Views</text></g></svg>